<svg id="Laag_1" data-name="Laag 1" xmlns="http://www.w3.org/2000/svg" viewBox="0 0 68 64.04"><defs><style>.cls-1,.cls-2{fill:none;}.cls-1{stroke:#000;stroke-miterlimit:10;stroke-width:4px;}</style></defs><title>alarm</title><path d="M74.73,17.32a3,3,0,0,1,1.81.75l16,14a3,3,0,1,1-3.94,4.54h0l-16-14a3,3,0,0,1,2.13-5.29Zm-29.94,0a3,3,0,0,1,1.75,5.29l-16,14a3,3,0,1,1-3.94-4.54h0l16-14A3,3,0,0,1,44.79,17.32Zm14.78,6a29,29,0,1,1-29,29A29,29,0,0,1,59.57,23.36Zm0,6a23,23,0,1,0,23,23A23,23,0,0,0,59.57,29.36Zm0,5a3,3,0,0,1,3,3v15a3,3,0,0,1-3,3h-13a3,3,0,0,1,0-6h10v-12A3,3,0,0,1,59.57,34.36Z" transform="translate(-25.57 -17.32)"/><path class="cls-1" d="M50,56.41" transform="translate(-25.57 -17.32)"/><path class="cls-1" d="M50,35.41" transform="translate(-25.57 -17.32)"/><path class="cls-2" d="M50,35a3,3,0,0,1,2.89,2.2c.6,2.24.11,16.38.11,16.38A3.22,3.22,0,0,1,50.49,56c-2,.28-3.49-1.36-3.49-6V37.29A2.81,2.81,0,0,1,50,35Z" transform="translate(-25.57 -17.32)"/></svg>