<svg id="Laag_1" data-name="Laag 1" xmlns="http://www.w3.org/2000/svg" viewBox="0 0 924.72 318.39"><defs><style>.cls-1,.cls-4,.cls-5{fill:#784213;}.cls-1,.cls-2{stroke:#1d3d21;}.cls-1,.cls-2,.cls-5{stroke-miterlimit:10;stroke-width:0.25px;}.cls-2{fill:#443e1c;}.cls-3{fill:#443e1d;}.cls-5{stroke:#1c3d21;}</style></defs><title>bomendood</title><path class="cls-1" d="M860.21,311.21s20.72-28.69,19.5-50.6.06-57.38.06-57.38-14.28-18.26-22-37c0,0-29.66-18.26-38.6-30.26,0,0,34.13,22.43,35.35,21.39s-1.63-21.39-1.63-21.39H857s2,29.74,28.85,53.73v-19.3s-16.25-9.39-15.85-59h2.22s2.72,50.18,13.63,48c0,0,1.22-34.12,6.85-47H895s-4.13,24.32-2.16,23.37,17.22-16.43,18.94-30.95,7.38,10.73-18.69,38.21c0,0-2.22,34.43,1,46.75,0,0,11.07-25.27,42.8-39.48,0,0,18-10.74,19.93-12.32,0,0-40.43,31.91-44,39.16,0,0-6.15,20.85-6.39,32.53s-9.59,64.7,18,101.52c0,0-16.24.82-28.78,10,0,0-15.47-7.12-26.32-6.32C861.55,315.43,860.21,311.21,860.21,311.21Z" transform="translate(-32.16 -22.58)"/><path class="cls-1" d="M744.37,326.32s28.6-34.9,26.92-61.55.07-69.8.07-69.8-19.7-22.21-30.36-45.05c0,0-40.94-22.21-53.28-36.8,0,0,47.11,27.28,48.8,26s-2.25-26-2.25-26h5.61s2.81,36.17,39.82,65.35V155s-22.43-11.42-21.87-71.7h3.06s3.75,61,18.81,58.34c0,0,1.69-41.5,9.46-57.12h3.24s-5.71,29.58-3,28.43,23.77-20,26.14-37.65,10.19,13.06-25.8,46.48c0,0-3.06,41.87,1.36,56.86,0,0,15.28-30.74,59.08-48,0,0,24.79-13.06,27.51-15,0,0-55.81,38.82-60.79,47.64,0,0-8.49,25.35-8.83,39.57s-13.24,78.69,24.79,123.48c0,0-22.41,1-39.73,12.13,0,0-21.35-8.65-36.33-7.69C746.22,331.45,744.37,326.32,744.37,326.32Z" transform="translate(-32.16 -22.58)"/><path class="cls-2" d="M428.45,234.47s19.83-22.39,18.67-39.48.05-44.78.05-44.78S433.51,136,426.12,121.32c0,0-28.38-14.25-36.94-23.61,0,0,32.66,17.5,33.83,16.69s-1.56-16.69-1.56-16.69h3.89s2,23.2,27.61,41.92V124.57s-15.55-7.32-15.16-46h2.12s2.6,39.15,13,37.42c0,0,1.17-26.62,6.56-36.64h2.24s-4,19-2.07,18.24,16.48-12.82,18.13-24.15,7.06,8.38-17.9,29.81c0,0-2.12,26.86.95,36.48,0,0,10.59-19.72,41-30.81,0,0,17.18-8.38,19.07-9.61,0,0-38.69,24.9-42.14,30.56,0,0-5.89,16.26-6.12,25.38s-9.19,50.48,17.18,79.21c0,0-15.54.63-27.54,7.78,0,0-14.8-5.55-25.19-4.93C429.74,237.76,428.45,234.47,428.45,234.47Z" transform="translate(-32.16 -22.58)"/><path class="cls-3" d="M635,279.71s28.11-30.67,26.46-54.09.07-61.34.07-61.34-19.36-19.52-29.84-39.59c0,0-40.24-19.52-52.37-32.35,0,0,46.31,24,48,22.87S625,92.34,625,92.34h5.51s2.76,31.79,39.14,57.44V129.15s-22.05-10-21.5-63h3s3.68,53.64,18.49,51.28c0,0,1.66-36.47,9.29-50.21h3.18s-5.6,26-2.93,25,23.36-17.56,25.7-33.09,10,11.48-25.37,40.85c0,0-3,36.8,1.34,50,0,0,15-27,58.07-42.2,0,0,24.37-11.48,27-13.17,0,0-54.85,34.11-59.75,41.87,0,0-8.34,22.28-8.67,34.77s-13,69.16,24.36,108.52c0,0-22,.88-39.05,10.67,0,0-21-7.61-35.71-6.76C636.78,284.23,635,279.71,635,279.71Z" transform="translate(-32.16 -22.58)"/><path class="cls-4" d="M684.89,331.82s22.43-26.3,21.11-46.38,0-52.6,0-52.6-15.44-16.74-23.79-34c0,0-32.1-16.74-41.77-27.73,0,0,36.93,20.56,38.25,19.6s-1.76-19.6-1.76-19.6h4.4s2.2,27.25,31.21,49.25V202.71s-17.58-8.61-17.14-54h2.4s2.93,46,14.74,44c0,0,1.33-31.28,7.41-43h2.54s-4.47,22.29-2.34,21.42,18.63-15,20.5-28.37,8,9.84-20.23,35c0,0-2.4,31.56,1.06,42.85,0,0,12-23.16,46.32-36.19,0,0,19.43-9.84,21.56-11.29,0,0-43.74,29.25-47.65,35.9,0,0-6.65,19.11-6.92,29.82s-10.38,59.31,19.43,93.06c0,0-17.57.75-31.14,9.15,0,0-16.74-6.52-28.48-5.79C686.34,335.69,684.89,331.82,684.89,331.82Z" transform="translate(-32.16 -22.58)"/><path class="cls-4" d="M589.74,298.47s21.11-29.8,19.87-52.55,0-59.59,0-59.59-14.54-19-22.4-38.46c0,0-30.21-19-39.31-31.42,0,0,34.76,23.29,36,22.21s-1.65-22.21-1.65-22.21h4.13s2.07,30.88,29.38,55.8V152.2S599.26,142.45,599.68,91h2.26s2.76,52.1,13.87,49.81c0,0,1.25-35.43,7-48.77h2.39S621,117.28,623,116.3s17.54-17.06,19.3-32.14,7.51,11.15-19,39.68c0,0-2.25,35.75,1,48.54,0,0,11.27-26.23,43.59-41,0,0,18.29-11.16,20.29-12.8,0,0-41.17,33.14-44.84,40.68,0,0-6.27,21.64-6.52,33.78S627,260.23,655,298.47c0,0-16.53.85-29.31,10.36,0,0-15.75-7.39-26.81-6.56C591.11,302.85,589.74,298.47,589.74,298.47Z" transform="translate(-32.16 -22.58)"/><path class="cls-4" d="M446,282.62s17.92-22,16.86-38.76.05-44,.05-44-12.34-14-19-28.37c0,0-25.64-14-33.37-23.17,0,0,29.5,17.18,30.56,16.38s-1.41-16.38-1.41-16.38h3.51s1.76,22.77,24.94,41.15V174.74s-14.05-7.19-13.7-45.15h1.92s2.35,38.43,11.78,36.74c0,0,1.06-26.13,5.92-36h2s-3.57,18.62-1.87,17.9,14.89-12.58,16.37-23.71,6.38,8.23-16.16,29.27c0,0-1.91,26.37.85,35.8,0,0,9.57-19.35,37-30.23,0,0,15.52-8.23,17.22-9.44,0,0-34.95,24.44-38.07,30,0,0-5.31,16-5.52,24.91s-8.3,49.55,15.52,77.76c0,0-14,.62-24.88,7.63,0,0-13.37-5.44-22.76-4.83C447.19,285.85,446,282.62,446,282.62Z" transform="translate(-32.16 -22.58)"/><path class="cls-2" d="M232,252.69s18.22-23.56,17.15-41.55.05-47.12.05-47.12-12.56-15-19.35-30.41c0,0-26.09-15-34-24.84,0,0,30,18.42,31.09,17.56s-1.43-17.56-1.43-17.56h3.58s1.78,24.41,25.37,44.12V137s-14.29-7.71-13.94-48.4h2s2.38,41.19,12,39.38c0,0,1.08-28,6-38.56h2.06s-3.63,20-1.9,19.19,15.15-13.49,16.66-25.42,6.49,8.82-16.45,31.38c0,0-1.94,28.27.87,38.38,0,0,9.74-20.74,37.65-32.41,0,0,15.8-8.82,17.53-10.12,0,0-35.56,26.21-38.73,32.16,0,0-5.41,17.12-5.63,26.71s-8.44,53.13,15.8,83.36c0,0-14.29.67-25.32,8.19,0,0-13.61-5.84-23.16-5.19C233.16,256.15,232,252.69,232,252.69Z" transform="translate(-32.16 -22.58)"/><path class="cls-2" d="M137.11,263.64s28.72-32.82,27-57.88.07-65.65.07-65.65-19.78-20.88-30.48-42.37c0,0-41.1-20.88-53.49-34.61,0,0,47.3,25.66,49,24.47S127,63.13,127,63.13h5.63s2.81,34,40,61.47V102.52s-22.52-10.74-22-67.44h3.07s3.76,57.4,18.88,54.87c0,0,1.7-39,9.5-53.72h3.25s-5.73,27.82-3,26.74,23.86-18.79,26.25-35.41,10.22,12.28-25.91,43.72c0,0-3.07,39.38,1.36,53.47,0,0,15.34-28.9,59.32-45.16,0,0,24.88-12.29,27.61-14.09,0,0-56,36.5-61,44.8,0,0-8.52,23.84-8.86,37.21s-13.3,74,24.88,116.13c0,0-22.5.93-39.88,11.41,0,0-21.43-8.14-36.48-7.22C139,268.47,137.11,263.64,137.11,263.64Z" transform="translate(-32.16 -22.58)"/><path class="cls-5" d="M182.22,311.89s17.95-22.12,16.9-39,0-44.23,0-44.23-12.37-14.08-19.06-28.56c0,0-25.69-14.07-33.44-23.32,0,0,29.57,17.29,30.63,16.48s-1.41-16.48-1.41-16.48h3.52s1.76,22.92,25,41.42V203.31s-14.09-7.24-13.73-45.45h1.92s2.35,38.68,11.81,37c0,0,1.06-26.3,5.93-36.2h2s-3.58,18.75-1.87,18S225.41,164,226.9,152.79s6.39,8.28-16.2,29.47c0,0-1.92,26.54.85,36,0,0,9.59-19.48,37.09-30.43,0,0,15.56-8.28,17.26-9.5,0,0-35,24.6-38.15,30.19,0,0-5.33,16.07-5.54,25.08s-8.31,49.88,15.56,78.26c0,0-14.07.63-24.94,7.69,0,0-13.4-5.48-22.8-4.87C183.38,315.15,182.22,311.89,182.22,311.89Z" transform="translate(-32.16 -22.58)"/><path class="cls-5" d="M81.84,323.54s24.78-26.91,23.33-47.45.06-53.81.06-53.81-17.07-17.12-26.31-34.73c0,0-35.47-17.12-46.16-28.37,0,0,40.82,21,42.28,20.06s-2-20.06-2-20.06H78s2.43,27.88,34.51,50.38v-18.1s-19.44-8.8-19-55.27h2.66s3.24,47.05,16.3,45c0,0,1.46-32,8.19-44h2.8s-4.94,22.8-2.59,21.92,20.6-15.41,22.66-29,8.83,10.07-22.36,35.84c0,0-2.65,32.28,1.18,43.83,0,0,13.24-23.69,51.19-37,0,0,21.48-10.07,23.84-11.55,0,0-48.36,29.92-52.67,36.72,0,0-7.36,19.55-7.65,30.51S125.57,289,158.53,323.54c0,0-19.42.76-34.43,9.35,0,0-18.5-6.67-31.48-5.92C83.44,327.49,81.84,323.54,81.84,323.54Z" transform="translate(-32.16 -22.58)"/><path class="cls-2" d="M357.94,221.68s24.05-26,22.63-45.91.06-52.05.06-52.05-16.56-16.57-25.52-33.6c0,0-34.43-16.57-44.8-27.45,0,0,39.61,20.35,41,19.4s-1.88-19.4-1.88-19.4h4.71s2.36,27,33.49,48.74V93.9s-18.87-8.51-18.39-53.47h2.57S375,85.94,387.65,83.94c0,0,1.42-30.95,8-42.6h2.72s-4.8,22.06-2.51,21.2,20-14.9,22-28.08,8.57,9.74-21.7,34.67c0,0-2.57,31.23,1.15,42.4,0,0,12.84-22.92,49.68-35.81,0,0,20.84-9.74,23.12-11.17,0,0-46.92,28.94-51.1,35.52,0,0-7.14,18.91-7.43,29.52s-11.13,58.69,20.84,92.09c0,0-18.84.74-33.4,9,0,0-17.95-6.46-30.55-5.73C359.49,225.51,357.94,221.68,357.94,221.68Z" transform="translate(-32.16 -22.58)"/><path class="cls-2" d="M825.57,268s12.11-17.79,11.4-31.37S837,201,837,201s-8.34-11.32-12.85-23c0,0-17.34-11.32-22.56-18.76,0,0,19.95,13.91,20.66,13.26s-1-13.26-1-13.26h2.37a55.18,55.18,0,0,0,16.86,33.31v-12s-9.5-5.82-9.26-36.54h1.3s1.58,31.11,8,29.74c0,0,.72-21.15,4-29.12h1.37s-2.42,15.08-1.27,14.49S854.71,149,855.71,140s4.32,6.66-10.92,23.69c0,0-1.3,21.35.57,29,0,0,6.47-15.66,25-24.47,0,0,10.49-6.66,11.64-7.64,0,0-23.62,19.78-25.73,24.28,0,0-3.6,12.92-3.74,20.17s-5.61,40.11,10.5,62.93c0,0-9.49.51-16.83,6.18,0,0-9-4.4-15.38-3.91C826.36,270.59,825.57,268,825.57,268Z" transform="translate(-32.16 -22.58)"/><path class="cls-1" d="M397.31,291.69s21.48-26.37,20.22-46.51.05-52.73.05-52.73-14.8-16.78-22.8-34c0,0-30.75-16.78-40-27.81,0,0,35.39,20.62,36.65,19.66s-1.68-19.66-1.68-19.66h4.21S396,157.93,423.85,180V162.24s-16.85-8.62-16.43-54.17h2.3s2.81,46.11,14.13,44.08c0,0,1.26-31.35,7.1-43.16h2.43s-4.28,22.35-2.24,21.48S449,115.38,450.77,102s7.65,9.86-19.38,35.12c0,0-2.29,31.64,1,43,0,0,11.48-23.23,44.38-36.29,0,0,18.62-9.87,20.66-11.32,0,0-41.92,29.33-45.66,36,0,0-6.37,19.16-6.63,29.9s-9.94,59.46,18.62,93.3c0,0-16.83.75-29.84,9.16,0,0-16-6.53-27.29-5.8C398.7,295.57,397.31,291.69,397.31,291.69Z" transform="translate(-32.16 -22.58)"/><path class="cls-1" d="M277.2,305.57S306.86,273.5,305.11,249s.08-64.15.08-64.15-20.43-20.41-31.48-41.4c0,0-42.45-20.41-55.24-33.82,0,0,48.84,25.07,50.59,23.91s-2.33-23.91-2.33-23.91h5.82s2.91,33.24,41.28,60.06V148.13s-23.26-10.5-22.67-65.9h3.17s3.88,56.09,19.5,53.62c0,0,1.75-38.14,9.81-52.5H327s-5.91,27.19-3.09,26.13S348.54,91.12,351,74.88s10.56,12-26.76,42.72c0,0-3.17,38.48,1.41,52.25,0,0,15.84-28.24,61.26-44.13,0,0,25.7-12,28.51-13.77,0,0-57.85,35.67-63,43.78,0,0-8.8,23.3-9.15,36.36S329.53,264.41,369,305.57c0,0-23.24.91-41.19,11.15,0,0-22.14-8-37.67-7.06C279.12,310.29,277.2,305.57,277.2,305.57Z" transform="translate(-32.16 -22.58)"/></svg>