<svg id="Laag_1" data-name="Laag 1" xmlns="http://www.w3.org/2000/svg" viewBox="0 0 275.19 269.8"><defs><style>.cls-1{fill:none;stroke:#e0b036;}.cls-1,.cls-4,.cls-5,.cls-6{stroke-miterlimit:10;}.cls-2{fill:#edbe83;}.cls-3{fill:#3f5a24;}.cls-4{fill:#784213;}.cls-4,.cls-5,.cls-6{stroke:#1c3d21;stroke-width:0.25px;}.cls-5{fill:#2b644a;}.cls-6{fill:#307d33;}</style></defs><title>boom</title><path class="cls-1" d="M548.43-168.27" transform="translate(-24.62 -8.29)"/><path class="cls-2" d="M144.49,100.33" transform="translate(-24.62 -8.29)"/><path class="cls-2" d="M59.57,109.59" transform="translate(-24.62 -8.29)"/><path class="cls-3" d="M-53.75,107.6" transform="translate(-24.62 -8.29)"/><path class="cls-3" d="M396.57,145.84" transform="translate(-24.62 -8.29)"/><path class="cls-4" d="M198,259s16.3-20,15.34-35.26,0-40,0-40S202.17,171,196.1,157.93c0,0-23.33-12.72-30.37-21.08,0,0,26.85,15.63,27.81,14.9s-1.28-14.9-1.28-14.9h3.2s1.6,20.71,22.69,37.43V160.84s-12.78-6.55-12.46-41.08h1.74s2.14,35,10.72,33.42c0,0,1-23.77,5.39-32.72h1.85s-3.25,17-1.71,16.29,13.55-11.45,14.91-21.57,5.8,7.48-14.71,26.63c0,0-1.74,24,.77,32.57,0,0,8.71-17.61,33.67-27.51,0,0,14.13-7.48,15.68-8.58,0,0-31.8,22.23-34.64,27.28,0,0-4.84,14.53-5,22.67s-7.55,45.08,14.12,70.74c0,0-12.77.56-22.64,6.95,0,0-12.16-5-20.7-4.41C199.07,261.92,198,259,198,259Z" transform="translate(-24.62 -8.29)"/><path class="cls-5" d="M299.44,124c1.75-5.31-6.17-11.34-11.2-13.82-1.31-.65-5-.8-1.25-3.91,1.26-1,1-3.38,1-5.21a14.48,14.48,0,0,0-6.62-12,3.12,3.12,0,0,1-1-3.9,13.88,13.88,0,0,0,1.39-6c0-8.17-7.11-14.79-15.87-14.79-2.14,0-5.17,2.48-7.63,4.46a2.45,2.45,0,0,1-3.87-1.3c-2.5-6.9-6.53-14.13-12.91-14.13-.28,0-.56,0-.84.05a18,18,0,0,0-15.34-9.06c-6.3,0-12.17,5.53-15.46,10.77-.72,1.16-3.1-2-4.11-2.83-2.67-2.25-7.92-.89-11.15,0-8.54,2.24-11.8,6.13-11.8,14.3v0c0,1.9-1.46,3.42-3.09,3a16.71,16.71,0,0,0-4.34-.56c-8.77,0-19.2,3.27-15.87,14.79.48,1.66,4.05,4.54,4.65,6.09-.31,0-9.91-.78-10.23-.78-8.76,0-10.26,1.81-10.26,10,0,2.32-.13,9.68,1.56,10.89,4.6,3.27.33,4.05-.8,4.91-3.55,2.71-5.88,5.8-5.88,10.42,0,8.17,7.54,17.87,15.87,14.79a20.72,20.72,0,0,1,2.85-1.05c-2.85,1.05-3,6.25-2.66,7.66,2,8.18,5.22,9.53,16,9.53,6.86,0,12.38-1.24,14.6-6.92a2.65,2.65,0,0,1,1.9-1.71,16.12,16.12,0,0,0,3.88-1.23,2.35,2.35,0,0,1,1.94,0,16.71,16.71,0,0,0,7,1.51,16.11,16.11,0,0,0,13.67-7.3,2.36,2.36,0,0,1,3.45-.69,16.75,16.75,0,0,0,19.54-.19,2.33,2.33,0,0,1,3.44.75,16.09,16.09,0,0,0,13.76,7.43,16.56,16.56,0,0,0,8.82-2.51,2.37,2.37,0,0,1,3.18.63,16.19,16.19,0,0,0,12.82,6.1c8.77,0,15.88-6.62,15.88-14.79,0-1.25-4.68-3-5-4.11-.26-.93,5.83-2.15,6.57-2.63C298.19,129.14,298.43,127,299.44,124Zm-32.11-8.52a3.59,3.59,0,0,0-.08-.35l.26.08C267.45,115.27,267.39,115.37,267.33,115.46Z" transform="translate(-24.62 -8.29)"/><path class="cls-4" d="M106.88,269.5s22.5-24.32,21.18-42.88.06-48.64.06-48.64-15.5-15.47-23.89-31.39c0,0-32.21-15.47-41.91-25.64,0,0,37.06,19,38.38,18.13S98.94,121,98.94,121h4.41s2.21,25.2,31.33,45.54V150.13s-17.65-8-17.21-50h2.41s3,42.52,14.8,40.65c0,0,1.33-28.91,7.44-39.8h2.54s-4.48,20.61-2.35,19.81S161,106.91,162.88,94.6s8,9.1-20.3,32.39c0,0-2.4,29.17,1.07,39.61,0,0,12-21.41,46.48-33.46,0,0,19.5-9.1,21.64-10.44,0,0-43.9,27.05-47.82,33.19,0,0-6.68,17.67-6.94,27.57s-10.42,54.84,19.5,86c0,0-17.63.69-31.26,8.45,0,0-16.79-6-28.58-5.35C108.34,273.08,106.88,269.5,106.88,269.5Z" transform="translate(-24.62 -8.29)"/><path class="cls-6" d="M246.89,105.3c2.42-6.45-8.52-13.79-15.46-16.81-1.8-.79-6.91-1-1.73-4.75,1.75-1.28,1.41-4.11,1.41-6.34,0-6-3.61-11.34-9.14-14.6a3.54,3.54,0,0,1-1.41-4.74,15.27,15.27,0,0,0,1.93-7.36c0-9.94-9.81-18-21.92-18-2.94,0-7.13,3-10.53,5.43a3.55,3.55,0,0,1-5.34-1.58c-3.45-8.4-9-17.19-17.82-17.19-.39,0-.77,0-1.16.06a25.51,25.51,0,0,0-21.18-11c-8.69,0-16.8,6.73-21.33,13.1-1,1.41-4.29-2.41-5.68-3.44C113.85,15.33,106.6,17,102.14,18c-11.79,2.72-16.29,7.45-16.29,17.39v.06a3.56,3.56,0,0,1-4.27,3.63,26,26,0,0,0-6-.69c-12.1,0-26.5,4-21.91,18,.66,2,5.6,5.52,6.43,7.42-.44,0-13.68-1-14.12-1-12.1,0-14.17,2.2-14.17,12.14,0,2.81-.18,11.77,2.16,13.23,6.34,4,.45,4.94-1.11,6-4.9,3.29-8.12,7-8.12,12.66,0,9.94,10.4,21.74,21.91,18,3.93-1.28,3.63-1.27,3.93-1.28-3.93,1.28-4.16,7.62-3.67,9.32,2.83,10,7.2,11.6,22.08,11.6,9.46,0,17.08-1.52,20.14-8.42A3.54,3.54,0,0,1,91.77,134a25.66,25.66,0,0,0,5.36-1.49,3.53,3.53,0,0,1,2.67,0,25.69,25.69,0,0,0,9.61,1.83c8,0,15.07-3.57,18.87-8.88a3.53,3.53,0,0,1,4.77-.83,25.66,25.66,0,0,0,27-.24,3.47,3.47,0,0,1,4.75.92c3.78,5.39,10.87,9,19,9a25.22,25.22,0,0,0,12.18-3.05,3.54,3.54,0,0,1,4.38.77c4,4.49,10.42,7.42,17.71,7.42,12.1,0,21.91-8.06,21.91-18,0-1.52-6.45-3.6-6.89-5-.35-1.13,8.06-2.62,9.08-3.2C245.16,111.58,245.49,109,246.89,105.3ZM202.57,94.94c0-.15-.08-.29-.11-.43l.35.1C202.73,94.71,202.65,94.83,202.57,94.94Z" transform="translate(-24.62 -8.29)"/></svg>