<svg id="Laag_1" data-name="Laag 1" xmlns="http://www.w3.org/2000/svg" viewBox="0 0 79.55 75.03"><defs><style>.cls-1{fill:none;stroke:#1d1d1b;stroke-miterlimit:10;stroke-width:0.5px;}</style></defs><title>doodvis1</title><path d="M77.26,56.57c-1.31,5.21.6,7.34,1.91,7.12a3.25,3.25,0,0,0,1.65-1.47c1.05-1.24,3-2,6.58-3.08C83.72,59.65,80.36,59.21,77.26,56.57Z" transform="translate(-28.85 -34.91)"/><path d="M77.07,44.53c2.1-1.83,3-4.11,9.21-4.11a12.2,12.2,0,0,1,4.48.81c-.53-1.62-1.45-3.6-3.82-3.75-5.13-.29-8-.44-9.74-1.54a4.27,4.27,0,0,0-2.37-1C72.72,35.06,72.39,39.47,77.07,44.53Z" transform="translate(-28.85 -34.91)"/><path d="M74.5,47.39c-1.58.67-2.5-.66-3.49-2.2a21.28,21.28,0,0,1-1.32-2,.58.58,0,0,0-1,0h0a13.91,13.91,0,0,0,0,12.11.56.56,0,0,0,1,.08c1.77-2.65,3-5.22,4.87-3.31A18.48,18.48,0,0,1,74.5,47.39Z" transform="translate(-28.85 -34.91)"/><path d="M98.14,51.51c-.07,0-.07-.15,0-.15a3.08,3.08,0,0,1,.59-.07c.46,0-.2-1.4-.4-1.84a2.19,2.19,0,0,0-.33-.59,16.57,16.57,0,0,0-2.17-3.15h0a13.16,13.16,0,0,0-4.74-3.53h0a12,12,0,0,0-4.81-1c-7.17,0-6.78,3-11.06,5.8a14.84,14.84,0,0,0,.27,6.46c.32.74,4.34,7.27,14.41,4.48a17,17,0,0,0,7.25-4A7.8,7.8,0,0,0,98.86,52C99.06,51.65,98.6,51.65,98.14,51.51Zm-1.45-3.09a1.13,1.13,0,1,1-1.12-1.25A1.18,1.18,0,0,1,96.69,48.42ZM86.15,56c-1.91-.44-2.9-4.25-.53-5.94,1.26-.88,3.23-1,5.8,1.32a5.09,5.09,0,0,0-5.33-.44,5.83,5.83,0,0,1,4.74.95A4.92,4.92,0,0,0,85.69,53a5.46,5.46,0,0,1,4.41-.51A5.08,5.08,0,0,0,85.69,55a6.24,6.24,0,0,1,4.74-1.77v.15C87.73,54.29,87.86,56.35,86.15,56Z" transform="translate(-28.85 -34.91)"/><line class="cls-1" x1="66.1" y1="12.81" x2="67.24" y2="14.2"/><line class="cls-1" x1="67.25" y1="12.82" x2="66.09" y2="14.19"/><path d="M49,60c-3.56-1.1-5.54-1.84-6.59-3.08a3.18,3.18,0,0,0-1.64-1.47c-1.32-.22-3.23,1.91-1.91,7.12C42,59.93,45.31,59.48,49,60Z" transform="translate(-28.85 -34.91)"/><path d="M36.42,84.22a4.18,4.18,0,0,0,2.37-1c1.78-1.11,4.61-1.25,9.74-1.55,2.38-.14,3.3-2.12,3.82-3.74a12.36,12.36,0,0,1-4.47.81c-6.19,0-7.11-2.28-9.22-4.11C34,79.67,34.31,84.08,36.42,84.22Z" transform="translate(-28.85 -34.91)"/><path d="M36.09,67.05c-1.91,1.9-3.09-.66-4.87-3.31a.56.56,0,0,0-1,.08,13.94,13.94,0,0,0,0,12.11h0a.58.58,0,0,0,1.05,0,20,20,0,0,1,1.32-2c1-1.55,1.91-2.87,3.49-2.21A18.41,18.41,0,0,1,36.09,67.05Z" transform="translate(-28.85 -34.91)"/><path d="M60.45,67.12a7.37,7.37,0,0,0-1.71-1.91,17,17,0,0,0-7.24-4C41.42,58.46,37.41,65,37.08,65.72a15,15,0,0,0-.27,6.46C41.09,75,40.7,78,47.88,78a12.2,12.2,0,0,0,4.8-1h0a13.16,13.16,0,0,0,4.74-3.53h0a17.28,17.28,0,0,0,2.18-3.15,2.92,2.92,0,0,0,.33-.59c.19-.44.85-1.84.39-1.84a3.08,3.08,0,0,1-.59-.07c-.07,0-.07-.15,0-.15C60.19,67.49,60.65,67.49,60.45,67.12ZM57.16,72a1.25,1.25,0,1,1,1.12-1.24A1.17,1.17,0,0,1,57.16,72ZM52,65.8v.14a6.27,6.27,0,0,1-4.74-1.76,5.11,5.11,0,0,0,4.42,2.5,5.45,5.45,0,0,1-4.42-.52,4.9,4.9,0,0,0,5.14,1.11,5.87,5.87,0,0,1-4.74,1A5.11,5.11,0,0,0,53,67.78c-2.57,2.28-4.54,2.2-5.79,1.32-2.37-1.69-1.38-5.5.52-5.94C49.46,62.79,49.32,64.84,52,65.8Z" transform="translate(-28.85 -34.91)"/><line class="cls-1" x1="27.69" y1="35.08" x2="28.84" y2="36.47"/><line class="cls-1" x1="28.84" y1="35.09" x2="27.69" y2="36.46"/><path d="M62,102.81c-1.31,5.21.6,7.34,1.91,7.12a3.25,3.25,0,0,0,1.65-1.47c1-1.25,3-2,6.58-3.08C68.46,105.89,65.1,105.45,62,102.81Z" transform="translate(-28.85 -34.91)"/><path d="M61.81,90.77c2.1-1.84,3-4.11,9.21-4.11a12.41,12.41,0,0,1,4.48.8c-.53-1.61-1.45-3.59-3.82-3.74-5.13-.29-8-.44-9.74-1.54a4.2,4.2,0,0,0-2.37-1C57.46,81.3,57.13,85.7,61.81,90.77Z" transform="translate(-28.85 -34.91)"/><path d="M59.24,93.63c-1.58.66-2.5-.66-3.49-2.2a21.28,21.28,0,0,1-1.32-2,.58.58,0,0,0-1,0h0a13.91,13.91,0,0,0,0,12.11.56.56,0,0,0,1,.07c1.77-2.64,3-5.21,4.87-3.3A18.48,18.48,0,0,1,59.24,93.63Z" transform="translate(-28.85 -34.91)"/><path d="M82.87,97.74c-.06,0-.06-.15,0-.15a3.22,3.22,0,0,1,.6-.07c.46,0-.2-1.39-.4-1.83a2.5,2.5,0,0,0-.33-.59,17,17,0,0,0-2.17-3.16h0a13.34,13.34,0,0,0-4.74-3.52h0a12,12,0,0,0-4.81-1c-7.17,0-6.78,3-11.06,5.8a15,15,0,0,0,.26,6.46c.33.73,4.35,7.27,14.42,4.48a17,17,0,0,0,7.25-4,7.85,7.85,0,0,0,1.71-1.9C83.8,97.89,83.34,97.89,82.87,97.74Zm-1.44-3.08a1.13,1.13,0,1,1-2.24,0,1.13,1.13,0,1,1,2.24,0Zm-10.54,7.56c-1.91-.44-2.9-4.26-.53-6,1.26-.88,3.23-1,5.8,1.32a5.11,5.11,0,0,0-5.33-.44,5.87,5.87,0,0,1,4.74,1,4.9,4.9,0,0,0-5.14,1.1,5.46,5.46,0,0,1,4.41-.51,5.09,5.09,0,0,0-4.41,2.49,6.27,6.27,0,0,1,4.74-1.76v.15C72.47,100.53,72.6,102.59,70.89,102.22Z" transform="translate(-28.85 -34.91)"/><line class="cls-1" x1="50.84" y1="59.05" x2="51.98" y2="60.43"/><line class="cls-1" x1="51.99" y1="59.05" x2="50.83" y2="60.43"/><path d="M100.92,70.25c-2.31-.71-3.6-1.19-4.28-2a2.06,2.06,0,0,0-1.07-1c-.86-.14-2.1,1.24-1.24,4.62A7.79,7.79,0,0,1,100.92,70.25Z" transform="translate(-28.85 -34.91)"/><path d="M92.74,86a2.72,2.72,0,0,0,1.54-.67c1.16-.71,3-.81,6.34-1,1.54-.09,2.14-1.38,2.48-2.43a7.9,7.9,0,0,1-2.91.53c-4,0-4.62-1.48-6-2.67C91.16,83,91.37,85.87,92.74,86Z" transform="translate(-28.85 -34.91)"/><path d="M92.53,74.82c-1.24,1.24-2-.42-3.17-2.14a.36.36,0,0,0-.64,0,9,9,0,0,0,0,7.86h0a.38.38,0,0,0,.68,0,13.14,13.14,0,0,1,.86-1.29c.64-1,1.24-1.86,2.27-1.43A12,12,0,0,1,92.53,74.82Z" transform="translate(-28.85 -34.91)"/><path d="M108.36,74.87a4.94,4.94,0,0,0-1.11-1.24,11.06,11.06,0,0,0-4.71-2.57C96,69.25,93.38,73.49,93.17,74A9.68,9.68,0,0,0,93,78.16c2.78,1.81,2.52,3.76,7.19,3.76a7.87,7.87,0,0,0,3.12-.67h0A8.61,8.61,0,0,0,106.39,79h0a11.14,11.14,0,0,0,1.42-2,1.8,1.8,0,0,0,.21-.38c.13-.29.56-1.19.26-1.19a2,2,0,0,1-.39,0s0-.1,0-.1C108.19,75.11,108.49,75.11,108.36,74.87ZM106.22,78a.81.81,0,1,1,.73-.81A.76.76,0,0,1,106.22,78Zm-3.33-4v.1A4.11,4.11,0,0,1,99.8,73a3.34,3.34,0,0,0,2.87,1.62,3.61,3.61,0,0,1-2.87-.34,3.21,3.21,0,0,0,3.34.72,3.82,3.82,0,0,1-3.08.62,3.37,3.37,0,0,0,3.47-.29c-1.67,1.48-3,1.43-3.77.86-1.54-1.1-.9-3.57.34-3.86S101.13,73.39,102.89,74Z" transform="translate(-28.85 -34.91)"/><line class="cls-1" x1="76.97" y1="41.83" x2="77.72" y2="42.72"/><line class="cls-1" x1="77.72" y1="41.83" x2="76.97" y2="42.72"/></svg>