<svg id="Laag_1" data-name="Laag 1" xmlns="http://www.w3.org/2000/svg" viewBox="0 0 96.2 34.67"><defs><style>.cls-1{fill:#fff;}</style></defs><title>doodvidgoed</title><path class="cls-1" d="M83.62,21.86H77c.27-3,1.51-3.32,1.54-3.34a1.3,1.3,0,0,0,.64-1.71,1.27,1.27,0,0,0-1.7-.62c-.3.13-2.72,1.67-3.06,5.67h-6.2c.16-5,2.58-6.33,2.66-6.38a1.28,1.28,0,1,0-1-2.34c-.17.08-4,1.72-4.19,8.72H59c.32-7,3.8-8.8,3.94-8.87a1.3,1.3,0,0,0,.65-1.71,1.28,1.28,0,0,0-1.7-.63c-.21.1-5.1,2.21-5.47,11.21H49.21c.32-9,4.66-10.85,4.84-10.93a1.3,1.3,0,0,0,.64-1.71A1.27,1.27,0,0,0,53,8.58c-.26.12-6,3.28-6.37,13.28H38.88c-.09-10,5.76-13.5,6-13.61a1.3,1.3,0,0,0,.7-1.69,1.28,1.28,0,0,0-1.68-.68c-.33.14-7.69,4-7.6,16H32.22a1.52,1.52,0,0,0,0,3h4.09c0,12,7.24,15.23,7.56,15.36.16.07.33,0,.5,0a1.34,1.34,0,0,0,1.18-.85,1.06,1.06,0,0,0-.69-1.47c-.06,0-5.93-3-6-13h7.77c.48,10,6.06,12.55,6.31,12.66s.35,0,.52,0a1.35,1.35,0,0,0,1.17-.81A1.07,1.07,0,0,0,54,35.21c-.19-.09-4.38-2.35-4.81-10.35h7.2c.48,8,5.21,10.5,5.42,10.59s.35,0,.53,0a1.34,1.34,0,0,0,1.17-.82,1.06,1.06,0,0,0-.65-1.49s-3.47-2.28-3.9-8.28h6.67c.31,6,4,8,4.13,8.1s.36,0,.54,0a1.36,1.36,0,0,0,1.18-.82,1.05,1.05,0,0,0-.63-1.48c-.11-.06-2.39-1.8-2.65-5.8h6.22c.45,4,2.71,4.93,3,5.06s.36,0,.54,0a1.36,1.36,0,0,0,1.18-.81,1.05,1.05,0,0,0-.62-1.49A4,4,0,0,1,77,24.86h6.58a1.52,1.52,0,0,0,0-3Z" transform="translate(-1.93 -5.58)"/><path class="cls-1" d="M92.67,22.86c1.79-1.11,5.46-4.48,5.46-13.29a.77.77,0,0,0-.77-.78C85,8.79,82.81,22.48,82.79,22.62a.72.72,0,0,0,0,.21.89.89,0,0,0,0,.23c0,.14,2.24,13.86,14.57,13.86a.77.77,0,0,0,.77-.77C98.13,27.33,94.46,24,92.67,22.86Z" transform="translate(-1.93 -5.58)"/><path class="cls-1" d="M32.43,6.55c-1.74-.9-5.15-1-6.17-1-11.5,0-24.33,7.34-24.33,17.16,0,4.57,2.75,8.92,7.71,12.25a10.25,10.25,0,0,1,9.21-5.46,1.29,1.29,0,1,1,0,2.57,7.61,7.61,0,0,0-7,4.22,30.51,30.51,0,0,0,14.23,3.57c2.12,0,5-.25,6.34-1A1.17,1.17,0,0,0,33,37.78V7.69A1.17,1.17,0,0,0,32.43,6.55Zm-6.35,14.3a1.93,1.93,0,0,1-2.73,2.73L21.17,21.4,19,23.58a1.93,1.93,0,0,1-2.73-2.73l2.18-2.18-2.18-2.18A1.93,1.93,0,0,1,19,13.76l2.18,2.18,2.18-2.18a1.93,1.93,0,0,1,2.73,2.73L23.9,18.67Z" transform="translate(-1.93 -5.58)"/></svg>