<svg id="Laag_1" data-name="Laag 1" xmlns="http://www.w3.org/2000/svg" viewBox="0 0 100 44.47"><defs><style>.cls-1{fill:#fff;}</style></defs><title>doodvisgoed</title><path class="cls-1" d="M82,1.53A2.28,2.28,0,0,0,79.69,3.8V21H73.52V6.22a2.28,2.28,0,0,0-4.55,0V21H62.15V7.36a2.27,2.27,0,1,0-4.54,0V21H50.79V8.49a2.27,2.27,0,1,0-4.54,0V21H39.43V9.63a2.28,2.28,0,0,0-4.55,0V21H30C26.5,3.9,6.91,1.71,6.7,1.69A2.27,2.27,0,0,0,4.89,5.58c2.73,2.65,9.77,11,9.54,17.61v.15C14.71,31.3,5,40.86,4.89,41a2.28,2.28,0,0,0,1.58,3.91l.23,0c.21,0,19.8-2.2,23.29-19.3h4.89V38a2.28,2.28,0,0,0,4.55,0V25.54h6.82V39.17a2.27,2.27,0,1,0,4.54,0V25.54h6.82V40.31a2.27,2.27,0,1,0,4.54,0V25.54H69V41.45a2.28,2.28,0,0,0,4.55,0V25.54h6.17V43.73A2.27,2.27,0,0,0,82,46C94.1,46,104.2,29.85,104.2,23.76,104.2,18.56,94.72,1.53,82,1.53Zm9.5,15.16a2.75,2.75,0,1,1,2.74-2.75A2.75,2.75,0,0,1,91.47,16.69Z" transform="translate(-4.2 -1.53)"/></svg>