<svg id="Laag_1" data-name="Laag 1" xmlns="http://www.w3.org/2000/svg" viewBox="0 0 92.09 79.8"><defs><style>.cls-1{fill:#010101;}.cls-2{fill:#345ba7;}.cls-3{fill:#f9e63c;}.cls-4{fill:none;stroke:#1d1d1b;stroke-miterlimit:10;stroke-width:0.75px;}</style></defs><title>doodvis2</title><path class="cls-1" d="M90.11,37.93C77.65,36,71,39.65,69.57,40.13h0a21.26,21.26,0,0,1,8.51,4.46c.12.14.47.58.6.58h0c3.58-2.84,8.36-4.37,11.61-6A.65.65,0,0,0,90.11,37.93Z" transform="translate(-6.08 -10.63)"/><path class="cls-1" d="M53.77,78.85h0C62.24,91,74.56,93.08,89.84,87.43a.74.74,0,0,0,0-1.38c-5.41-.85-12.17-2.59-14.36-8.92C68.86,83.53,60.09,83.89,53.77,78.85Z" transform="translate(-6.08 -10.63)"/><path class="cls-1" d="M97.41,46.05c-6.79,1.15-10.86,3.69-13.28,6.18.23.42.46,1,.69,1.41a11.34,11.34,0,0,1,1.1,5.44,14.13,14.13,0,0,1-1.65,4.74l-.14.13-.42.8c3,3.47,7.44,5.51,9.67,6.46.5.16.91-.37.69-.93C88.66,59.92,95.14,50.48,98,47.05,98.4,46.52,98.06,45.81,97.41,46.05Z" transform="translate(-6.08 -10.63)"/><path class="cls-1" d="M51.71,44.26c-.79.51-1.71,1-2.49,1.52C45.53,48.2,40.55,53.45,37,57.4c-.13.13,0,.55.23.56l1.13.2a3.34,3.34,0,0,0-1.72,1.29c-.14.27,0,.55.22.56,3.53.47,5.69,2.65,8.07,5.68,1.42,1.87,2.83,3.88,4.37,5.89l0-.82a61.84,61.84,0,0,1,3.55-16.5h0c.61-1.76,2.57-5.24,1.29-7.38A16.32,16.32,0,0,0,51.71,44.26ZM48.78,60.93v.14a2.51,2.51,0,0,1-1.13,2,2,2,0,0,1-1.28.34,2.52,2.52,0,0,1-2.26-2.74,2.47,2.47,0,0,1,2.53-2.35A2.39,2.39,0,0,1,48.78,60.93Z" transform="translate(-6.08 -10.63)"/><path class="cls-2" d="M68.85,41.61c-8.32,10.72,1,19.77-9.45,38.65a14.31,14.31,0,0,0,10.44-.67C66.25,66.15,76.37,59.67,68.85,41.61Z" transform="translate(-6.08 -10.63)"/><path class="cls-2" d="M79.91,48.27c-.43,7.84-3,15.7-1.38,23.1,1.52-2.26,5.86-9.89,6.13-12.5C85,55.44,82.18,50.74,79.91,48.27Z" transform="translate(-6.08 -10.63)"/><path class="cls-1" d="M79.77,46.06c.13,0,.25.15.37.29h0Z" transform="translate(-6.08 -10.63)"/><path class="cls-3" d="M78.84,46.84a21.17,21.17,0,0,0-8.46-5.29c7,17.48-2.49,24.83.64,37.27a18.15,18.15,0,0,0,4.11-3.22h0a26.35,26.35,0,0,0,2.44-2.9C75.24,64.16,78.49,55.64,78.84,46.84Z" transform="translate(-6.08 -10.63)"/><path class="cls-3" d="M67.88,40.86h-.13a22.24,22.24,0,0,0-7.24.16A28.82,28.82,0,0,0,53,43.64c1.32,1.32,4,2.71,2.66,7.18h0c-.46,1.36-5.07,11.59-5,22.35,1.54,2,3.53,5,7.63,6.62C68.67,61.32,59.3,51.71,67.88,40.86Z" transform="translate(-6.08 -10.63)"/><path class="cls-1" d="M42,45.28c-2.16-1.19-5.37-2.38-7.72-4.4h0c-.08,0-.34.28-.43.37a15,15,0,0,1-6,2.66h0c.95.36,5.37,3,14,2.2A.43.43,0,0,0,42,45.28Z" transform="translate(-6.08 -10.63)"/><path class="cls-1" d="M33.26,19.52c1.74-4.13,6.42-5,10.15-5.41a.49.49,0,0,0,.09-.92c-10.24-4.31-18.74-3.39-25,4.4h0C23,14.48,29,15,33.26,19.52Z" transform="translate(-6.08 -10.63)"/><path class="cls-1" d="M47.57,40.33c-1.82-2.38-5.89-8.89-1.82-15.59.18-.36-.08-.73-.43-.64a18.44,18.44,0,0,0-6.85,3.95l.26.55.08.09a9,9,0,0,1,1,3.21,7.32,7.32,0,0,1-1,3.57c-.17.28-.34.64-.52.92C39.86,38.13,42.54,40,47.14,41,47.57,41.16,47.84,40.7,47.57,40.33Z" transform="translate(-6.08 -10.63)"/><path class="cls-1" d="M17.65,38.86c1-1.37-.26-3.76-.61-5h0a40.43,40.43,0,0,1-1.82-11.09v-.55C14.09,23.55,13.05,24.84,12,26c-1.73,1.92-3.29,3.3-5.72,3.48-.18,0-.26.19-.18.37a2.29,2.29,0,0,0,1.13.92l-.78.09a.24.24,0,0,0-.17.36c2.25,2.75,5.46,6.42,7.89,8.16.52.37,1.13.74,1.65,1.1A10.72,10.72,0,0,0,17.65,38.86ZM12.88,31a1.67,1.67,0,0,1-1.65-1.65,1.7,1.7,0,0,1,1.65-1.74,1.43,1.43,0,0,1,.87.27,1.66,1.66,0,0,1,.69,1.38v.09A1.6,1.6,0,0,1,12.88,31Z" transform="translate(-6.08 -10.63)"/><path class="cls-2" d="M29.53,17.69a10,10,0,0,0-7.11-.83c6.42,12.93-.26,18.61,5,26C33.26,31.16,26.58,26.49,29.53,17.69Z" transform="translate(-6.08 -10.63)"/><path class="cls-2" d="M38.9,32c-.09-1.74-2.77-7-3.73-8.53-1.39,4.86.09,10.18.09,15.4C36.91,37.31,39,34.28,38.9,32Z" transform="translate(-6.08 -10.63)"/><path class="cls-1" d="M12.88,28.32a1,1,0,1,0,.95,1A1,1,0,0,0,12.88,28.32Zm-.26,1a.39.39,0,0,1-.35-.37.33.33,0,0,1,.35-.36c.17,0,.26.09.26.36S12.79,29.33,12.62,29.33Z" transform="translate(-6.08 -10.63)"/><path class="cls-1" d="M35.34,40.15h0c-.08.09-.17.18-.26.18Z" transform="translate(-6.08 -10.63)"/><path class="cls-3" d="M34.56,22.54a17.11,17.11,0,0,0-1.56-2h0a12.05,12.05,0,0,0-2.69-2.29C27.71,26.4,34,31.62,28.49,43a14.59,14.59,0,0,0,6-3.21C34.56,33.91,32.66,28.14,34.56,22.54Z" transform="translate(-6.08 -10.63)"/><path class="cls-3" d="M21.64,17.14a11.68,11.68,0,0,0-5.46,4.12c-.44,7.15,2.34,14.12,2.6,15h0c.78,3-1.13,3.85-2.08,4.67a19.92,19.92,0,0,0,5,2,15.86,15.86,0,0,0,4.94.37h.09C21.29,35.84,28.06,29.79,21.64,17.14Z" transform="translate(-6.08 -10.63)"/><line class="cls-4" x1="38.62" y1="48.96" x2="41.86" y2="51.57"/><line class="cls-4" x1="41.56" y1="48.67" x2="39.15" y2="52.05"/></svg>