<svg id="Laag_1" data-name="Laag 1" xmlns="http://www.w3.org/2000/svg" viewBox="0 0 75.6 69.6"><defs><style>.cls-1{fill:#fff;opacity:0.18;}.cls-2{fill:#d6da20;}</style></defs><title>geelkoraal</title><ellipse class="cls-1" cx="73.24" cy="19.89" rx="1.18" ry="0.88"/><ellipse class="cls-1" cx="74.42" cy="0.88" rx="1.18" ry="0.88"/><path id="koraal_geel" data-name="koraal geel" class="cls-2" d="M52.45,67.46s-18.92,1.62-18.7-4.85c0,0,4-2,13.42,2s-7.26-5.21-7.26-5.21S21.42,49.49,30,44.64s24.42,19,30.58,28.93c0,0-.88-2.87-4.18-11.86,0,0-16.35-9.34-12.25-32.88,0,0,5.67-6.27,8,1.48,0,0-3,8-2,15.32q.06.49.15,1s2.12-3,4-14.07c0,0,2.74-4.56,4.87.58s-5,15-7.62,15.53S56,59.06,56,59.06a101.61,101.61,0,0,0,3.5-18.86c.62-9.18,6.36-1.83,6,.92S59.7,62,62.19,65.49s1.5,10.7,1.5,10.7,3.72-24,9.85-29.36a30.58,30.58,0,0,1-9-23s3-3,5.36,0-1.06,12.81,4.71,20.87c0,0,3,.81,6.41-10.5s10.61-1,7.49.71A51.91,51.91,0,0,1,75.93,52.51a14.91,14.91,0,0,0-3.5,5.74C71.18,61.92,78.05,54,78.05,54s5.35-2.65,4.36,2.24S72.06,60.7,72.06,60.7s-6,14.88-5.37,17.63,19.1-25.18,19.1-25.18,5-11.62,5-14,6-8.36,5.11-.61a35.58,35.58,0,0,1-4.12,13.15,6.68,6.68,0,0,0,5.5-5.2,25.42,25.42,0,0,0,.5-9.38s0-6.12,3.87-1.22S101,48.46,101,48.46a21.86,21.86,0,0,1-8.49,5.1c-1.12.3-12.36,14.58-12.36,14.58A21.68,21.68,0,0,0,91,62c5.36-5.3,5.24,1.22,5.24,1.22S91.91,70,83.79,70.18s-6.11,0-6.11,0-8.12,7.12-8.5,12.38H60.69S56.12,70.41,52.45,67.46Z" transform="translate(-27.73 -12.96)"/></svg>