<svg id="Laag_1" data-name="Laag 1" xmlns="http://www.w3.org/2000/svg" viewBox="0 0 553.03 54.66"><defs><style>.cls-1{fill:#1b2c4c;}.cls-2{fill:#243362;}</style></defs><title>golfbeneden</title><path class="cls-1" d="M19.86,37.27s66.87-34.07,124,4.11c59.41,39.67,66.63,14.41,86.83,5.77,30.47-13,34.53-13.63,44.92-15.65,24.73-4.81,45.27-8.48,74.13,6.29C392.31,59.54,467.61,39,471.16,33.91c0,0,29.4-21.09,64.94-4.87s36.79,11.27,36.79,11.27V77.57h-553Z" transform="translate(-19.86 -22.91)"/><path class="cls-2" d="M572.89,37.27s-56.89-23.34-124,4.11C378.89,70,382.22,55.79,362,47.15c-30.46-13-34.53-13.63-44.91-15.65-24.74-4.81-41.76-3.63-74.14,6.29-47.54,14.56-102.59-1.54-102.59-1.54s-36-15.16-71.59,1.06-48.92,3-48.92,3V77.57h553Z" transform="translate(-19.86 -22.91)"/></svg>