<svg id="Laag_1" data-name="Laag 1" xmlns="http://www.w3.org/2000/svg" viewBox="0 0 98.45 107.63"><defs><style>.cls-1{fill:#fff;opacity:0.18;}.cls-2{fill:#88bd27;}</style></defs><title>groenkoraal</title><ellipse class="cls-1" cx="1.18" cy="87.7" rx="1.18" ry="0.88"/><ellipse class="cls-1" cx="22.2" cy="92.43" rx="1.18" ry="0.88"/><ellipse class="cls-1" cx="49.78" cy="99.53" rx="1.18" ry="0.88"/><ellipse class="cls-1" cx="62.77" cy="98.1" rx="1.18" ry="0.88"/><ellipse class="cls-1" cx="29.09" cy="89.46" rx="1.18" ry="0.88"/><ellipse class="cls-1" cx="45.3" cy="88.48" rx="1.18" ry="0.88"/><ellipse class="cls-1" cx="68.44" cy="91.22" rx="1.18" ry="0.88"/><ellipse class="cls-1" cx="85.34" cy="19.89" rx="1.18" ry="0.88"/><ellipse class="cls-1" cx="26.03" cy="61.01" rx="1.18" ry="0.88"/><ellipse class="cls-1" cx="84.97" cy="56.44" rx="1.18" ry="0.88"/><ellipse class="cls-1" cx="78.2" cy="63.76" rx="1.18" ry="0.88"/><ellipse class="cls-1" cx="84.97" cy="69.02" rx="1.18" ry="0.88"/><ellipse class="cls-1" cx="86.52" cy="0.88" rx="1.18" ry="0.88"/><path id="koraal_groen2" data-name="koraal groen2" class="cls-2" d="M81.69,84.82a36.6,36.6,0,0,1-1.84,15.77h1s.39-.21,1.86-6.15a39.53,39.53,0,0,0,6.35-3.89s5.38.93,8.19-2.79,3.42-4,4.16-4.26,1.23-1.24,0-.92-4.3,4.59-6.55,5.68-3.1,1-3.87.83,8.83-8.7,8.83-8.7,8.47-.61,11-5.9-3,4-9.17,4.59c0,0-.85,0,.1-.85s5.63-6.65,10.55-10.17-1.93.22-3.2,1.15,2.15-7,2.39-7.45-1.09-2.4-1.72,0-3.52,9.58-4.29,10.38-4.64,5.26-5.48,6,1.47-3.87,1.47-3.87,1.51-2.46,2.15-9c0,0-.35-5.89,1.51-6.8s7.77-4.24,7.14-9.95c0,0-.78-1.58-1.66,0s-.42,6.77-4.6,7.73c0,0,2-4,1.46-6.32s-2.12-.43-1.92,0-2.46,9.07-3.11,9.26-2-3.56-1.38-11.41c0,0-1.23-1.06-1.9,0s1.4,12.33,1.71,13-5.45-4.7-4.53-8.14c0,0-1.31-1.67-1.42.06s2,8.87,6.49,12.62c0,0-.19,10.81-6.86,17.78,0,0-.24-4.81.66-7.28S97.51,72,97.5,66.22c0,0-1.06-1.79-1.71.06S96,72.39,93,78.12c0,0-.89,6.48-.81,7.53s-7.16,6-7.16,6,2-3.09,2.12-5.06.32-9.38.32-9.38a57.85,57.85,0,0,1,5-9.44c2.69-3.77-1.22-.06-1.22-.06S87.18,72.63,87.26,74s0-4.13,1-9.25c0,0,3-2,3-7.53s1-12.34,1.79-13.51A46.67,46.67,0,0,1,97,39.56s1.44-2.22-.68-.86-2,3.15-2.84,3.15-1-7.47-.65-8-1.22-1.42-1.39,0,.49,12.21-1.3,15.36,1.14,9.62-2.11,13a43.65,43.65,0,0,1-2-18s-.9-2.34-1.71-.06.16,8.45.16,8.45a9.5,9.5,0,0,1-4.56-8c-.15-5.68-1.45,1.36-1.53,1.54a13.93,13.93,0,0,0,5.77,8.95s3,9.38,2.27,12.83-1,5.8-.73,11.66-1,10.31-1.87,11.23.41-4.75,0-6.35-4.39-6.42-3.25-7.9,5.69-8.27,2.28-14.25-1.3,2.28-1.3,2.28,2,1.79-1,9.44c0,0-.65-.43-.57-8.58a6.24,6.24,0,0,0-1.63-4s2-3.88,1.63-6.23-2.12-.37-1.63.06-.64,4-.64,4-2.88-8.6-5.64-10S74.4,37.25,73,34.75s-1.93-.7-1.75.75a28.18,28.18,0,0,1,0,4.09S68.28,34.45,68,33.8s-2.11-.55-1.39.5,3.36,5.49,3.43,6.34.19,6.34.19,6.34.27,1.15-.79,0-4.08-4-5.13-8.44c0,0-2-1.39-1.31.55s2.23,6.75,4.67,8.29,5.92,6.34,6,6.79-1.25.2-3-.4a58.81,58.81,0,0,1-5.92-2.84s.13-3.7-1.91-5.69-2.3.15-1.84.4,2.83,4.14,1.78,3.59-5.33-5.39-5.33-5.39-2.7-1.35-1.25.55c0,0,5.53,7.39,9.87,8.84,0,0,2,.59-.13.49s-4.67.3-5.73-.15a7.68,7.68,0,0,1-1.77-1s-2-.85-.92.4a5.25,5.25,0,0,0,3.09,2c.92.1,6.31-.65,7.43-.5s4.54,1.5,5.66,1.65,3,5.24,3,5.24,1.78,4.21,1.51,5.55-2.76-2.3-2.76-2.3-1.38-.5-1.25.65,3.49,4,4,4.24.66,11.14,2.44,12.84" transform="translate(-15.63 7.04)"/><path id="koraal_groen1" data-name="koraal groen1" class="cls-2" d="M48.39,75.07a36.52,36.52,0,0,0,1.85,15.77h-1s-.39-.21-1.86-6.15A39.36,39.36,0,0,1,41,80.8s-5.37.92-8.19-2.79-3.42-4-4.15-4.27-1.24-1.23,0-.91S33,77.41,35.2,78.51s3.1,1,3.87.83-8.83-8.7-8.83-8.7-8.47-.62-11-5.9,3.06,4,9.18,4.59c0,0,.84,0-.11-.85s-5.62-6.65-10.55-10.17,1.94.21,3.2,1.15-2.14-7-2.39-7.45,1.09-2.4,1.73,0,3.51,9.58,4.28,10.38,4.65,5.26,5.49,6-1.48-3.87-1.48-3.87-1.51-2.45-2.14-9c0,0,.35-5.9-1.51-6.8s-7.77-4.25-7.14-10c0,0,.77-1.57,1.65,0s.42,6.78,4.61,7.74c0,0-2-4-1.46-6.32s2.12-.43,1.92,0,2.45,9.06,3.1,9.26S29.66,46,29,38.1c0,0,1.22-1.05,1.9,0s-1.41,12.34-1.72,13,5.45-4.69,4.53-8.13c0,0,1.32-1.67,1.42.05s-2,8.87-6.48,12.62c0,0,.18,10.82,6.85,17.79,0,0,.24-4.81-.65-7.28s-2.28-3.93-2.28-9.69c0,0,1.06-1.79,1.71.06s-.24,6.11,2.76,11.85c0,0,.9,6.48.82,7.53s7.15,6,7.15,6-2-3.08-2.11-5.06-.33-9.37-.33-9.37a57,57,0,0,0-5-9.44c-2.68-3.77,1.22-.07,1.22-.07s4.15,4.94,4.07,6.3,0-4.14-1-9.26c0,0-3-2-3-7.52s-1-12.34-1.79-13.52a47.66,47.66,0,0,0-3.93-4.13s-1.43-2.22.68-.86,2,3.14,2.85,3.14,1-7.46.65-8,1.22-1.42,1.38,0S38.19,36.35,40,39.5s-1.14,9.62,2.11,13a43.68,43.68,0,0,0,2-18s.89-2.35,1.7-.06-.16,8.45-.16,8.45a9.55,9.55,0,0,0,4.57-8c.15-5.68,1.45,1.35,1.53,1.54A14,14,0,0,1,46,45.3s-3,9.37-2.28,12.83,1,5.8.73,11.66,1,10.3,1.87,11.23-.4-4.75,0-6.36,4.39-6.41,3.25-7.89S43.88,58.5,47.3,52.51s1.3,2.29,1.3,2.29-2,1.79,1,9.44c0,0,.65-.43.57-8.58a6.3,6.3,0,0,1,1.63-4s-2-3.89-1.63-6.23,2.13-.37,1.63.06.65,4,.65,4,2.87-8.6,5.64-10S55.69,27.49,57.14,25s1.92-.7,1.75.75a27.27,27.27,0,0,0,0,4.09s2.89-5.14,3.15-5.79,2.1-.55,1.38.5S60.1,30,60,30.89s-.2,6.34-.2,6.34-.26,1.15.79,0,4.08-4,5.13-8.44c0,0,2-1.4,1.32.55S64.83,36,62.4,37.58s-5.92,6.34-6,6.79,1.25.2,3-.4a60,60,0,0,0,5.92-2.84s-.12-3.7,1.91-5.7,2.3.15,1.84.4-2.83,4.15-1.77,3.6S72.6,34,72.6,34s2.69-1.35,1.25.54c0,0-5.53,7.39-9.87,8.84,0,0-2,.6.13.5s4.67.3,5.72-.15a7.85,7.85,0,0,0,1.78-1.05s2-.85.92.4a5.23,5.23,0,0,1-3.09,2.05c-.92.1-6.32-.65-7.44-.5s-4.54,1.5-5.65,1.65-3,5.24-3,5.24-1.78,4.2-1.52,5.55,2.77-2.3,2.77-2.3,1.38-.5,1.25.65-3.49,4-4,4.24-.66,11.14-2.43,12.83" transform="translate(-15.63 7.04)"/></svg>