<svg id="Laag_1" data-name="Laag 1" xmlns="http://www.w3.org/2000/svg" viewBox="0 0 124.52 117.03"><defs><style>.cls-1{fill:#c5ba67;}</style></defs><title>koraal</title><path id="koraal_groen2" data-name="koraal groen2" class="cls-1" d="M85.32,106.94a73.91,73.91,0,0,1-6.86,26.32l1.46.23s.61-.27,4.3-10a56.12,56.12,0,0,0,10.14-5.17s7.45,2.78,12.47-2.87,6-6,7.09-6.3,2.1-1.82.25-1.56-7.38,6.82-10.89,8.16-4.72,1.07-5.76.53,15-12.75,15-12.75,12.29.87,17.33-7.52-5.43,6-14.36,5.71c0,0-1.2-.23.38-1.42s9.83-10,17.81-14.86-2.82-.07-4.88,1.23,4.94-11.37,5.41-12.08-.92-4.32-2.46-.39-7.6,15.44-8.92,16.63-8.05,7.86-9.46,9,3.14-6.23,3.14-6.23,2.82-3.82,5.48-14.76c0,0,1.07-10.07,4-11.19s12.26-5.44,12.88-15.26c0,0-.68-2.85-2.36-.38s-2.42,11.4-8.67,12.08c0,0,3.9-6.39,3.79-10.39s-2.92-1.21-2.76-.36-6,14.81-6.93,15-1.95-6.49,1.08-19.66c0,0-1.48-2.07-2.72-.43s-1.29,21.23-1,22.43c.32,1.42-6.54-9.19-4.31-14.81,0,0-1.43-3.14-2.05-.23s.44,15.48,5.91,22.86c0,0-3.16,18.29-14.56,28.6,0,0,.93-8.21,2.87-12.19s4.32-6.16,5.85-15.91c0,0-1-3.27-2.46-.28s-1.28,10.41-7.12,19.46c0,0-3,10.78-3.18,12.57s-11.84,8.53-11.84,8.53,3.73-4.77,4.38-8.1,3-15.82,3-15.82,4.9-9.09,9.74-14.87-1.73-.38-1.73-.38-7.25,7.43-7.5,9.75,1.11-7,3.87-15.47c0,0,4.84-2.66,6.32-12.08s4.7-20.7,6.18-22.5a77.47,77.47,0,0,1,6.73-6.12s2.65-3.44-.74-1.62-3.64,4.89-4.92,4.69.61-12.87,1.2-13.64-1.36-2.68-2-.31-2.56,20.82-6,25.75-.94,16.58-6.49,21.49a87.74,87.74,0,0,1,1.91-31s-.65-4.18-2.42-.49-2,14.36-2,14.36-5.71-5-4.4-14.62-2.43,2-2.6,2.26S90.57,49.82,96.71,57c0,0,1.8,16.57-.17,22.27s-3,9.61-4.17,19.6-4.15,17.25-5.68,18.62,1.85-8,1.7-10.78S83.82,94.85,85.85,92.6,96.2,79.87,92.92,69s-2.47,3.58-2.47,3.58S92.88,76,86.52,88.31c0,0-.81-.88,1.48-14.67,0,0,.68-2.89-1.26-7.17,0,0,3.84-6.14,4-10.19S87.8,55.17,88.39,56s-2,6.55-2,6.55S84.6,47.33,81,44.25,87.6,24.64,86.2,20.08s-2.57-1.62-2.71.87a56.81,56.81,0,0,1-1.15,6.93s-2.75-9.37-3-10.53-2.87-1.4-2.12.54S80.61,28,80.48,29.41s-1.42,10.8-1.42,10.8.07,2-1.11-.27-4.78-7.69-5.09-15.46c0,0-2.45-2.82-2,.63s1.4,11.94,4.47,15.11,6.78,12.09,6.84,12.88-1.84.06-4.22-1.36a83.13,83.13,0,0,1-7.72-6.16S71.37,39.34,69,35.5s-3.33-.27-2.74.26,2.94,7.66,1.58,6.49-6.18-10.34-6.18-10.34-3.5-2.9-1.94.65c0,0,5.93,13.77,11.76,17.21,0,0,2.67,1.46-.32.82S64.38,50,63,49a11.27,11.27,0,0,1-2.26-2.18s-2.6-1.89-1.43.47,2.59,3.79,3.88,4.17,9.21.32,10.77.83,6.1,3.57,7.66,4.07S84.46,66,84.46,66s1.42,7.52.68,9.74-3.34-4.52-3.34-4.52S80,70,79.84,72s3.92,7.56,4.61,8.1-2,19,0,22.31" transform="translate(-14.29 -16.46)"/><path id="koraal_groen1" data-name="koraal groen1" class="cls-1" d="M64.84,108.5a73.73,73.73,0,0,0,9.71,22l-1.1.37s-.52-.15-5-8.16a44.61,44.61,0,0,1-8.72-3.29,8.69,8.69,0,0,1-10.14-1c-4.83-4.32-5.62-4.5-6.54-4.63s-1.93-1.33-.45-1.32,6.85,5,9.79,5.79,3.84.37,4.56-.22-13.73-9.3-13.73-9.3-9.37,2.21-14.68-4.47,5.22,4.57,12.09,3.26c0,0,.89-.35-.54-1.19s-9.28-7.52-16.28-10.79,2.18-.4,4,.49-5.72-9.28-6.21-9.85,0-3.85,1.85-.63,8.46,12.51,9.68,13.38,7.55,5.87,8.83,6.68-3.48-5-3.48-5-2.82-3-6.7-12.16c0,0-2.51-8.62-4.95-9.24S16.41,75.91,14.29,67.47c0,0,.06-2.55,1.77-.61s3.78,9.6,8.73,9.46c0,0-4.09-5.09-4.66-8.57s2.06-1.39,2.07-.64,7.08,12.15,7.87,12.19S30.5,73.44,26,62.37c0,0,.8-2,2-.69S32.53,80,32.53,81c0,1.27,3.54-8.74.87-13.36,0,0,.59-2.89,1.55-.44s2.24,13.48-.77,20.53c0,0,5.5,15.5,16.06,23.1,0,0-2.1-7-4.27-10.24s-4.37-4.83-7.18-13.11c0,0,.25-3,1.86-.54s2.73,8.88,8.76,16c0,0,4.13,9,4.56,10.53s10.6,6,10.6,6-3.69-3.7-4.75-6.51-4.94-13.38-4.94-13.38a102.21,102.21,0,0,0-10-11.75c-4.72-4.44,1.27-.53,1.27-.53S53,93,53.57,94.94s-2-6-5.58-13c0,0-4.19-1.75-6.91-9.74S34,54.84,32.55,53.45a69.29,69.29,0,0,0-6.24-4.52s-2.63-2.67.3-1.49,3.63,3.82,4.59,3.49S28.59,39.83,28,39.24s.61-2.49,1.48-.51,5.46,17.76,8.92,21.64S41.9,74.64,47,78.25a87.66,87.66,0,0,0-6.64-26.67s-.2-3.7,1.79-.71,4,12.22,4,12.22,3.59-5,1-13.21,2.21,1.43,2.39,1.66a23.5,23.5,0,0,1-1.8,15s1.37,14.6,3.85,19.3,3.88,8,6.49,16.52,6.1,14.47,7.51,15.48-2.76-6.69-3.12-9.15S64,97.84,62,96.12,51.89,86.3,52.62,76.44s2.51,2.81,2.51,2.81-1.3,3.32,5.67,13.23c0,0,.49-.86-3.59-12.55A11.8,11.8,0,0,1,57,73.56s-4-4.88-4.8-8.37,2.1-1.31,1.78-.51,2.62,5.45,2.62,5.45S55.46,56.7,57.71,53.61s-8.36-16.24-8-20.36,1.72-1.71,2.24.43a58.51,58.51,0,0,0,2,5.89s.57-8.46.53-9.49,2-1.56,1.73.22-.91,9.12-.56,10.37,2.89,9.2,2.89,9.2.28,1.75.83-.36a31.09,31.09,0,0,0,1.36-14s1.43-2.73,1.68.31.9,10.52-1,13.64-3.23,11.28-3.15,12,1.43-.17,3-1.68a62.39,62.39,0,0,0,4.95-6.26s-1.94-5.27-.74-8.89,2.54-.62,2.17-.09-1,7-.14,5.82,3.06-9.71,3.06-9.71,2.23-2.92,1.61.34c0,0-2.3,12.65-6.24,16.32,0,0-1.82,1.58.38.67s5.16-1.27,6.06-2.3a9,9,0,0,0,1.39-2.16s1.7-1.94,1.19.24-1.38,3.59-2.31,4.07-7.09,1.37-8.22,2-4.13,3.81-5.25,4.43-.6,8.63-.6,8.63.15,6.69,1.09,8.53,1.84-4.32,1.84-4.32,1.23-1.22,1.65.48-1.78,7-2.22,7.57,4.75,16.27,3.68,19.36" transform="translate(-14.29 -16.46)"/></svg>