<svg id="Laag_1" data-name="Laag 1" xmlns="http://www.w3.org/2000/svg" viewBox="0 0 626 83.11"><defs><style>.cls-1{fill:#fff;opacity:0.18;}.cls-2{fill:#262819;}.cls-3{fill:#353a1a;}</style></defs><title>Naamloos-15</title><ellipse class="cls-1" cx="352.59" cy="1" rx="1.18" ry="0.88"/><path class="cls-2" d="M19.49,33.28s75.69-51.8,140.41,6.24c67.25,60.31,75.42,21.91,98.29,8.77C292.67,28.48,297.27,27.57,309,24.5c28-7.31,51.25-12.88,83.92,9.56,48.14,33.08,133.36,1.87,137.39-5.89,0,0,33.27-32.07,73.51-7.41s41.64,17.13,41.64,17.13V94.54h-626Z" transform="translate(-19.49 -11.44)"/><path class="cls-3" d="M645.49,33.28s-64.4-35.5-140.41,6.24C425.9,83,429.66,61.43,406.79,48.29,372.31,28.48,367.71,27.57,356,24.5,328,17.19,308.69,19,272,34.06,218.22,56.19,155.9,31.72,155.9,31.72s-40.8-23-81,1.62-55.38,4.55-55.38,4.55V94.54h626Z" transform="translate(-19.49 -11.44)"/></svg>