<svg id="Laag_1" data-name="Laag 1" xmlns="http://www.w3.org/2000/svg" viewBox="0 0 61.61 90"><title>pinpin</title><path d="M50,95a2.76,2.76,0,0,0,2.19-1.08C57,87.68,80.8,55.55,80.8,35.8a30.8,30.8,0,0,0-61.6,0C19.2,55.55,43,87.68,47.8,93.91A2.76,2.76,0,0,0,50,95ZM50,8.6A27.23,27.23,0,0,1,77.2,35.8c0,17.83-21.34,47.3-27.2,55.05-5.86-7.75-27.2-37.22-27.2-55A27.23,27.23,0,0,1,50,8.6ZM66.3,35.8A16.3,16.3,0,1,0,50,52.1,16.3,16.3,0,0,0,66.3,35.8Zm-29,0A12.7,12.7,0,1,1,50,48.5h0A12.71,12.71,0,0,1,37.3,35.8Z" transform="translate(-19.2 -5)"/></svg>