<svg id="Laag_1" data-name="Laag 1" xmlns="http://www.w3.org/2000/svg" viewBox="0 0 56.93 56.93"><title>plastic</title><path d="M21.27,14.83l-.9-.9,1.39-1.39-.85-.84-.95,1L15.71,8.41a1.92,1.92,0,0,0-2.73,0L6.49,14.9a1.94,1.94,0,0,0,0,2.73l4.24,4.24-1,1,.85.85L12,22.29l.9.9c-.87,1.64-3.17,7.6,4.17,14.94L41.71,62.75c2.45,2.45,6.77,3.09,10.3-.44l8.39-8.39c3.52-3.52,2.89-7.85.44-10.3L36.22,19C28.87,11.66,22.91,14,21.27,14.83Zm-13.93.92,6.49-6.49a.73.73,0,0,1,1,0l2.55,2.55L9.9,19.34,7.34,16.78A.73.73,0,0,1,7.34,15.75Zm3.12,4.16L18,12.38l1.12,1.12L11.58,21ZM60,44.47c2,2,2.53,5.64-.44,8.6l-8.39,8.4c-3,3-6.58,2.47-8.61.44L17.93,37.28c-7.86-7.86-3.95-13.6-3.78-13.84a.59.59,0,0,0-.06-.77l-1.23-1.23,6.67-6.66L20.75,16a.59.59,0,0,0,.77.07c.24-.17,6-4.08,13.85,3.78L60,44.47Z" transform="translate(-5.93 -7.84)"/><rect x="14.4" y="26.96" width="22.09" height="0.8" transform="translate(-17.82 18.16) rotate(-45)"/><rect x="36.62" y="48.72" width="21.16" height="0.8" transform="translate(-26.83 39.92) rotate(-45)"/></svg>