<svg id="Laag_1" data-name="Laag 1" xmlns="http://www.w3.org/2000/svg" viewBox="0 0 177.44 25.03"><defs><style>.cls-1{fill:none;stroke:#e0b036;stroke-miterlimit:10;}.cls-2{fill:#edbe83;}.cls-3{fill:#3f5a24;}.cls-4{fill:#39642a;}</style></defs><title>pluk</title><path class="cls-1" d="M488.86-291.26" transform="translate(-14.07 -8.08)"/><path class="cls-2" d="M84.92-22.66" transform="translate(-14.07 -8.08)"/><path class="cls-2" d="M0-13.4" transform="translate(-14.07 -8.08)"/><path class="cls-3" d="M-113.33-15.39" transform="translate(-14.07 -8.08)"/><path class="cls-3" d="M337,22.85" transform="translate(-14.07 -8.08)"/><path class="cls-4" d="M15,30.31S8.71,21.37,29.22,20.25s25.64,1.12,45-5.59,24.5-10.63,34.19,0,13.1-1.68,18.23-1.12,4.56,4,14.81,5.65,5.13-7.89,13.68-6.77c2.13.28,23.54,9.16,19.3,7.37s24,1.9,15.45,7.17S15,35.9,15,30.31Z" transform="translate(-14.07 -8.08)"/></svg>