<svg id="Laag_1" data-name="Laag 1" xmlns="http://www.w3.org/2000/svg" viewBox="0 0 145.42 55.73"><defs><style>.cls-1{fill:#ba003a;stroke:#fff;stroke-miterlimit:10;}.cls-2{fill:#fff;}</style></defs><title>pop-up</title><path d="M142,9c1.79-1.12,5.47-4.48,5.47-13.29a.79.79,0,0,0-.77-.79c-12.33,0-14.55,13.7-14.57,13.84a.5.5,0,0,0,0,.21.6.6,0,0,0,0,.23c0,.14,2.24,13.86,14.57,13.86a.78.78,0,0,0,.77-.77C147.48,13.5,143.8,10.14,142,9Z" transform="translate(-2.06 5.05)"/><rect class="cls-1" x="0.5" y="11.27" width="61.05" height="43.96"/><rect class="cls-2" x="0.5" y="11.27" width="61.05" height="19.98"/></svg>