<svg id="Laag_1" data-name="Laag 1" xmlns="http://www.w3.org/2000/svg" viewBox="0 0 10.58 14.82"><defs><style>.cls-1{fill-rule:evenodd;}</style></defs><title>slot</title><path class="cls-1" d="M8.47,1.06a4.45,4.45,0,0,0-2.67.83A3.22,3.22,0,0,0,4.5,4.5V6.75H5.82V4.5a1.81,1.81,0,0,1,.77-1.56,3.27,3.27,0,0,1,1.88-.56,3.26,3.26,0,0,1,1.87.56,1.81,1.81,0,0,1,.77,1.56V7.94H3.84a.65.65,0,0,0-.66.66v6.61a.67.67,0,0,0,.66.67H13.1a.67.67,0,0,0,.66-.67V8.6a.66.66,0,0,0-.66-.66h-.66V4.5a3.22,3.22,0,0,0-1.3-2.61A4.45,4.45,0,0,0,8.47,1.06Z" transform="translate(-3.18 -1.06)"/></svg>