<svg id="Laag_1" data-name="Laag 1" xmlns="http://www.w3.org/2000/svg" viewBox="0 0 74.2 63.18"><defs><style>.cls-1{fill:#fff;opacity:0.18;}.cls-2{fill:#ef7a4e;}.cls-3{fill:#f59d32;}.cls-4{fill:#010101;}</style></defs><title>vis</title><ellipse class="cls-1" cx="71.84" cy="19.89" rx="1.18" ry="0.88"/><ellipse class="cls-1" cx="73.02" cy="0.88" rx="1.18" ry="0.88"/><path class="cls-2" d="M38.65,57.08c-1.25,4,.56,5.69,1.81,5.52A3,3,0,0,0,42,61.46c1-1,2.87-1.54,6.25-2.39C44.78,59.47,41.59,59.12,38.65,57.08Z" transform="translate(-29.13 -12.96)"/><path class="cls-2" d="M38.46,47.74c2-1.42,2.88-3.19,8.76-3.19a14.12,14.12,0,0,1,4.26.63,4,4,0,0,0-3.63-2.91c-4.88-.22-7.58-.34-9.27-1.19a4.46,4.46,0,0,0-2.25-.8C34.33,40.39,34,43.81,38.46,47.74Z" transform="translate(-29.13 -12.96)"/><path class="cls-2" d="M36,50c-1.5.51-2.38-.51-3.32-1.71a15.55,15.55,0,0,1-1.25-1.54.62.62,0,0,0-1,0h0a9,9,0,0,0,0,9.4.59.59,0,0,0,.94,0c1.69-2,2.81-4,4.63-2.56A11.69,11.69,0,0,1,36,50Z" transform="translate(-29.13 -12.96)"/><path class="cls-3" d="M58.48,53.15c-.06,0-.06-.12,0-.12a4,4,0,0,1,.57-.05c.43,0-.19-1.09-.38-1.43a2,2,0,0,0-.31-.45,13.5,13.5,0,0,0-2.07-2.45h0a12.63,12.63,0,0,0-4.5-2.73h0a13.67,13.67,0,0,0-4.57-.8c-6.82,0-6.44,2.33-10.51,4.5a9.52,9.52,0,0,0,.25,5c.31.57,4.13,5.63,13.7,3.47A17.28,17.28,0,0,0,57.54,55a6.45,6.45,0,0,0,1.63-1.48C59.36,53.26,58.92,53.26,58.48,53.15Zm-1.37-2.39a1.07,1.07,0,1,1-1.07-1A1,1,0,0,1,57.11,50.76Zm-10,5.86A2.5,2.5,0,0,1,46.59,52c1.19-.68,3.07-.74,5.51,1A5.81,5.81,0,0,0,47,52.69a6.62,6.62,0,0,1,4.51.74,5.4,5.4,0,0,0-4.88.86,6.16,6.16,0,0,1,4.19-.4,5.07,5.07,0,0,0-4.19,1.93,6.78,6.78,0,0,1,4.5-1.36v.11C48.6,55.31,48.72,56.9,47.1,56.62Z" transform="translate(-29.13 -12.96)"/><path class="cls-4" d="M55.35,50.76a.63.63,0,0,0,1.26,0,.63.63,0,0,0-1.26,0Zm.44.11c-.12,0-.18-.06-.18-.17a.19.19,0,0,1,.18-.17.25.25,0,0,1,.19.17A.19.19,0,0,1,55.79,50.87Z" transform="translate(-29.13 -12.96)"/><path class="cls-2" d="M61.2,72.58c-1,2.6.42,3.66,1.37,3.55a2.22,2.22,0,0,0,1.19-.73c.76-.62,2.18-1,4.74-1.54A11.53,11.53,0,0,1,61.2,72.58Z" transform="translate(-29.13 -12.96)"/><path class="cls-2" d="M61.06,66.58c1.51-.91,2.18-2,6.63-2a12.6,12.6,0,0,1,3.22.4,2.9,2.9,0,0,0-2.74-1.86c-3.7-.15-5.74-.22-7-.77a3.74,3.74,0,0,0-1.71-.51C57.93,61.86,57.69,64.06,61.06,66.58Z" transform="translate(-29.13 -12.96)"/><path class="cls-2" d="M59.21,68c-1.14.33-1.8-.33-2.51-1.1a8.85,8.85,0,0,1-1-1,.52.52,0,0,0-.76,0h0a5.08,5.08,0,0,0,0,6,.49.49,0,0,0,.71,0c1.28-1.32,2.13-2.6,3.51-1.65A6.57,6.57,0,0,1,59.21,68Z" transform="translate(-29.13 -12.96)"/><path class="cls-3" d="M76.22,70.06s0-.08,0-.08l.43,0c.33,0-.14-.7-.28-.92a1.53,1.53,0,0,0-.24-.29,9.33,9.33,0,0,0-1.57-1.57h0a10,10,0,0,0-3.41-1.76h0a12.13,12.13,0,0,0-3.46-.51c-5.16,0-4.88,1.5-8,2.89A5.29,5.29,0,0,0,59.92,71c.24.36,3.13,3.62,10.38,2.23a14.31,14.31,0,0,0,5.21-2,4.18,4.18,0,0,0,1.23-1C76.89,70.13,76.55,70.13,76.22,70.06Zm-1-1.54c0,.37-.38.62-.81.62a.64.64,0,1,1,0-1.24C74.8,67.9,75.18,68.15,75.18,68.52ZM67.6,72.29a1.54,1.54,0,0,1-.38-3c.9-.43,2.32-.47,4.17.66a5.12,5.12,0,0,0-3.84-.22,5.8,5.8,0,0,1,3.41.48,4.62,4.62,0,0,0-3.69.55,5.5,5.5,0,0,1,3.17-.26,4.11,4.11,0,0,0-3.17,1.25,5.76,5.76,0,0,1,3.41-.88V71C68.73,71.45,68.83,72.47,67.6,72.29Z" transform="translate(-29.13 -12.96)"/><path class="cls-4" d="M73.85,68.52c0,.22.24.37.48.37a.43.43,0,0,0,.47-.37c0-.22-.24-.37-.47-.37S73.85,68.3,73.85,68.52Zm.33.07c-.09,0-.14,0-.14-.11s.1-.11.14-.11.15.08.15.11A.14.14,0,0,1,74.18,68.59Z" transform="translate(-29.13 -12.96)"/><path class="cls-2" d="M72.46,42.57C71.3,46,73,47.4,74.15,47.25a2.7,2.7,0,0,0,1.45-1c.93-.82,2.68-1.31,5.82-2C78.16,44.6,75.2,44.31,72.46,42.57Z" transform="translate(-29.13 -12.96)"/><path class="cls-2" d="M72.29,34.65C74.15,33.44,75,32,80.43,32a14.26,14.26,0,0,1,4,.53A3.62,3.62,0,0,0,81,30c-4.53-.2-7-.29-8.61-1a4.35,4.35,0,0,0-2.09-.67C68.45,28.42,68.16,31.32,72.29,34.65Z" transform="translate(-29.13 -12.96)"/><path class="cls-2" d="M70,36.53c-1.4.44-2.21-.43-3.08-1.44a14.42,14.42,0,0,1-1.17-1.31.61.61,0,0,0-.93,0h0a7.11,7.11,0,0,0,0,8,.58.58,0,0,0,.87,0c1.57-1.74,2.62-3.43,4.31-2.18A8.91,8.91,0,0,1,70,36.53Z" transform="translate(-29.13 -12.96)"/><path class="cls-3" d="M90.9,39.24a.05.05,0,0,1,0-.1,3.51,3.51,0,0,1,.52,0c.41,0-.17-.91-.34-1.2a1.51,1.51,0,0,0-.3-.39,12.13,12.13,0,0,0-1.91-2.08h0a12.32,12.32,0,0,0-4.19-2.31h0a13.76,13.76,0,0,0-4.25-.68c-6.34,0-6,2-9.77,3.81a7.37,7.37,0,0,0,.23,4.25c.29.49,3.84,4.78,12.74,2.95A16.93,16.93,0,0,0,90,40.83a6.09,6.09,0,0,0,1.51-1.25C91.72,39.33,91.31,39.33,90.9,39.24Zm-1.28-2a1,1,0,1,1-1-.82A.91.91,0,0,1,89.62,37.21Zm-9.31,5a2.06,2.06,0,0,1-.46-3.91c1.1-.58,2.85-.63,5.12.87a5.85,5.85,0,0,0-4.71-.29,6.61,6.61,0,0,1,4.18.63,5.43,5.43,0,0,0-4.53.72,6.22,6.22,0,0,1,3.89-.33,4.85,4.85,0,0,0-3.89,1.64,6.69,6.69,0,0,1,4.19-1.16v.1C81.71,41.07,81.83,42.42,80.31,42.18Z" transform="translate(-29.13 -12.96)"/><path class="cls-4" d="M88,37.21a.54.54,0,0,0,.58.48.49.49,0,1,0,0-1A.54.54,0,0,0,88,37.21Zm.41.1c-.12,0-.17-.05-.17-.15s.11-.14.17-.14.17.09.17.14A.16.16,0,0,1,88.4,37.31Z" transform="translate(-29.13 -12.96)"/><path class="cls-2" d="M87.77,60.51c-.71,1.94.32,2.74,1,2.65a1.71,1.71,0,0,0,.9-.54c.57-.47,1.64-.74,3.57-1.15A8.76,8.76,0,0,1,87.77,60.51Z" transform="translate(-29.13 -12.96)"/><path class="cls-2" d="M87.66,56c1.14-.69,1.64-1.53,5-1.53a9.13,9.13,0,0,1,2.43.3A2.21,2.21,0,0,0,93,53.4c-2.79-.11-4.32-.16-5.29-.57a3,3,0,0,0-1.28-.39C85.31,52.5,85.13,54.14,87.66,56Z" transform="translate(-29.13 -12.96)"/><path class="cls-2" d="M86.27,57.09c-.86.25-1.36-.24-1.89-.82a6.21,6.21,0,0,1-.71-.74.41.41,0,0,0-.58,0h0a3.79,3.79,0,0,0,0,4.52.38.38,0,0,0,.54,0c1-1,1.61-1.94,2.64-1.23A4.68,4.68,0,0,1,86.27,57.09Z" transform="translate(-29.13 -12.96)"/><path class="cls-3" d="M99.08,58.62a0,0,0,0,1,0,0l.33,0c.25,0-.11-.52-.22-.68a.87.87,0,0,0-.18-.22,6.93,6.93,0,0,0-1.18-1.18h0a7.54,7.54,0,0,0-2.57-1.31h0a9,9,0,0,0-2.6-.38c-3.89,0-3.68,1.12-6,2.16a3.91,3.91,0,0,0,.15,2.41c.17.27,2.35,2.7,7.81,1.66a10.78,10.78,0,0,0,3.93-1.47,3.84,3.84,0,0,0,.93-.71C99.58,58.68,99.33,58.68,99.08,58.62Zm-.78-1.14c0,.27-.29.46-.61.46a.48.48,0,1,1,0-.93C98,57,98.3,57.2,98.3,57.48Zm-5.71,2.81a1.14,1.14,0,0,1-.29-2.21,3.26,3.26,0,0,1,3.14.49,3.83,3.83,0,0,0-2.89-.16,4.28,4.28,0,0,1,2.57.35,3.58,3.58,0,0,0-2.78.41A4.12,4.12,0,0,1,94.73,59a3.13,3.13,0,0,0-2.39.93,4.39,4.39,0,0,1,2.57-.66v.06C93.44,59.66,93.52,60.43,92.59,60.29Z" transform="translate(-29.13 -12.96)"/><path class="cls-4" d="M97.3,57.48c0,.16.18.27.36.27a.32.32,0,0,0,.35-.27.32.32,0,0,0-.35-.28C97.48,57.2,97.3,57.31,97.3,57.48Zm.25.05c-.07,0-.11,0-.11-.08s.07-.08.11-.08.11.05.11.08A.1.1,0,0,1,97.55,57.53Z" transform="translate(-29.13 -12.96)"/></svg>