<svg id="Laag_1" data-name="Laag 1" xmlns="http://www.w3.org/2000/svg" viewBox="0 0 80.44 67.03"><defs><style>.cls-1{fill:#fff;opacity:0.18;}.cls-2{fill:#010101;}.cls-3{fill:#345ba7;}.cls-4{fill:#f9e63c;}</style></defs><title>vistropisch</title><ellipse class="cls-1" cx="74.04" cy="19.89" rx="1.18" ry="0.88"/><ellipse class="cls-1" cx="75.22" cy="0.88" rx="1.18" ry="0.88"/><path class="cls-2" d="M100.07,79c-2.8-1.18-6.94-2.36-10-4.35h0a2,2,0,0,0-.56.36,22.4,22.4,0,0,1-7.72,2.63h0c1.23.36,6.94,3,18,2.17C100.41,79.83,100.63,79.29,100.07,79Z" transform="translate(-26.93 -12.96)"/><path class="cls-2" d="M88.77,53.56c2.24-4.07,8.28-5,13.09-5.34.56-.09.67-.73.11-.91C88.77,43.06,77.8,44,69.74,51.66h0A17.63,17.63,0,0,1,88.77,53.56Z" transform="translate(-26.93 -12.96)"/><path class="cls-2" d="M107.23,74.13c-2.35-2.36-7.61-8.79-2.35-15.4.23-.37-.11-.73-.56-.64-2,.55-6,1.72-8.84,3.9l.34.54.11.09a7.55,7.55,0,0,1,1.23,3.17,6,6,0,0,1-1.23,3.54c-.22.27-.45.63-.67.9,2,1.72,5.48,3.53,11.41,4.53C107.23,74.94,107.57,74.49,107.23,74.13Z" transform="translate(-26.93 -12.96)"/><path class="cls-2" d="M68.63,72.68c1.23-1.36-.34-3.72-.79-4.89h0a31.39,31.39,0,0,1-2.35-11v-.54C64,57.55,62.69,58.82,61.35,60c-2.24,1.9-4.25,3.26-7.38,3.44-.23,0-.34.18-.23.36a3,3,0,0,0,1.46.91l-1,.09c-.22,0-.34.27-.22.36,2.91,2.72,7.05,6.34,10.18,8.06.67.36,1.45.73,2.13,1.09A13.7,13.7,0,0,0,68.63,72.68Zm-6.16-7.79c-1.12,0-2.13-.73-2.13-1.63a2,2,0,0,1,2.13-1.72,2.24,2.24,0,0,1,1.12.27,1.54,1.54,0,0,1,.9,1.36v.09A1.85,1.85,0,0,1,62.47,64.89Z" transform="translate(-26.93 -12.96)"/><path class="cls-3" d="M84,51.75a16.55,16.55,0,0,0-9.18-.81c8.28,12.77-.34,18.39,6.49,25.72C88.77,65.07,80.15,60.45,84,51.75Z" transform="translate(-26.93 -12.96)"/><path class="cls-3" d="M96,65.88c-.11-1.72-3.58-6.88-4.81-8.42-1.79,4.8.11,10.05.11,15.22C93.47,71.14,96.16,68.15,96,65.88Z" transform="translate(-26.93 -12.96)"/><path class="cls-2" d="M62.47,62.26a1,1,0,1,0,1.23,1A1.14,1.14,0,0,0,62.47,62.26Zm-.34,1a.45.45,0,0,1-.44-.37c0-.18.11-.36.44-.36s.34.09.34.36A.34.34,0,0,1,62.13,63.26Z" transform="translate(-26.93 -12.96)"/><path class="cls-2" d="M91.46,74h0a.67.67,0,0,1-.34.18Z" transform="translate(-26.93 -12.96)"/><path class="cls-4" d="M90.45,56.55a19,19,0,0,0-2-2h0A15.29,15.29,0,0,0,85,52.3c-3.35,8.06,4.7,13.22-2.35,24.45a21,21,0,0,0,7.73-3.17C90.45,67.79,88,62.08,90.45,56.55Z" transform="translate(-26.93 -12.96)"/><path class="cls-4" d="M73.77,51.21a15.36,15.36,0,0,0-7,4.07c-.56,7.07,3,14,3.36,14.86h0c1,3-1.45,3.81-2.69,4.62a30.64,30.64,0,0,0,6.5,2,26.18,26.18,0,0,0,6.37.37h.12C73.33,69.69,82.05,63.71,73.77,51.21Z" transform="translate(-26.93 -12.96)"/><path class="cls-2" d="M58.69,57.18c-1.92-.78-4.75-1.57-6.82-2.89h0a1.37,1.37,0,0,0-.39.24,15.69,15.69,0,0,1-5.28,1.75h0c.84.24,4.75,2,12.33,1.45C58.92,57.73,59.07,57.36,58.69,57.18Z" transform="translate(-26.93 -12.96)"/><path class="cls-2" d="M51,40.24c1.53-2.72,5.67-3.32,9-3.56.39-.06.46-.48.08-.6C51,33.24,43.44,33.84,37.92,39h0A12.34,12.34,0,0,1,51,40.24Z" transform="translate(-26.93 -12.96)"/><path class="cls-2" d="M63.59,53.93C62,52.36,58.38,48.08,62,43.67c.16-.24-.07-.48-.38-.42a18.2,18.2,0,0,0-6.05,2.6l.23.36.07.06a4.86,4.86,0,0,1,.84,2.11,4,4,0,0,1-.84,2.35c-.15.18-.3.42-.46.6,1.38,1.15,3.76,2.35,7.82,3C63.59,54.47,63.82,54.17,63.59,53.93Z" transform="translate(-26.93 -12.96)"/><path class="cls-2" d="M37.15,53c.85-.9-.23-2.47-.53-3.26h0A20.24,20.24,0,0,1,35,42.41v-.36c-1,.84-1.92,1.68-2.84,2.47a8.18,8.18,0,0,1-5.05,2.29c-.16,0-.23.12-.16.24a2,2,0,0,0,1,.6l-.69.06c-.15,0-.23.19-.15.25a41.09,41.09,0,0,0,7,5.36c.46.24,1,.49,1.46.73A9.33,9.33,0,0,0,37.15,53Zm-4.21-5.19c-.77,0-1.46-.48-1.46-1.08a1.34,1.34,0,0,1,1.46-1.15,1.57,1.57,0,0,1,.77.18,1.05,1.05,0,0,1,.61.91v.06A1.25,1.25,0,0,1,32.94,47.77Z" transform="translate(-26.93 -12.96)"/><path class="cls-3" d="M47.65,39a11.66,11.66,0,0,0-6.28-.54C47,47,41.14,50.73,45.81,55.61,51,47.9,45.05,44.82,47.65,39Z" transform="translate(-26.93 -12.96)"/><path class="cls-3" d="M55.93,48.44c-.08-1.15-2.45-4.58-3.3-5.61-1.22,3.2.08,6.69.08,10.13C54.17,51.94,56,50,55.93,48.44Z" transform="translate(-26.93 -12.96)"/><path class="cls-2" d="M32.94,46a.68.68,0,1,0,.84.66A.77.77,0,0,0,32.94,46Zm-.23.66c-.15,0-.31-.12-.31-.24s.08-.24.31-.24.23.06.23.24A.23.23,0,0,1,32.71,46.69Z" transform="translate(-26.93 -12.96)"/><path class="cls-2" d="M52.79,53.81h0a.47.47,0,0,1-.23.12Z" transform="translate(-26.93 -12.96)"/><path class="cls-4" d="M52.1,42.23a13.36,13.36,0,0,0-1.38-1.33h0a10.83,10.83,0,0,0-2.38-1.51c-2.3,5.37,3.22,8.81-1.61,16.28A14.49,14.49,0,0,0,52,53.56C52.1,49.7,50.41,45.91,52.1,42.23Z" transform="translate(-26.93 -12.96)"/><path class="cls-4" d="M40.68,38.67a10.57,10.57,0,0,0-4.83,2.71c-.38,4.71,2.07,9.29,2.3,9.89h0c.69,2-1,2.54-1.84,3.08a21.8,21.8,0,0,0,4.45,1.32,17.67,17.67,0,0,0,4.36.25h.08C40.37,51,46.35,47,40.68,38.67Z" transform="translate(-26.93 -12.96)"/></svg>