<svg id="Laag_1" data-name="Laag 1" xmlns="http://www.w3.org/2000/svg" viewBox="0 0 74.06 87.41"><defs><style>.cls-1{fill:#b73709;}</style></defs><title>vuur1</title><path class="cls-1" d="M71.52,24.81a2,2,0,0,0-3.42,1.41c0,8.42-4.12,14.21-7.26,16.67C63.58,26.76,59,8.4,46.74,4.32a2,2,0,0,0-2.53,1.27,2.32,2.32,0,0,0-.11.63c0,12.46-7.79,19.26-16,26.45C21.38,38.5,14.47,44.53,12.17,53.74c-3.75,15,1,26.23,14.65,34.36a2,2,0,0,0,2.87-2.5c-5.58-13.38-1.58-29.38,10.42-37.38,0,12,8,12,8,24a12.51,12.51,0,0,0,12-8c8,4,8,16-1.26,23.58l-.41.31a2,2,0,0,0-.22,2.82,2,2,0,0,0,1.52.7,1.9,1.9,0,0,0,.41,0C71,89.33,79.64,80.8,83.23,68.78,87.81,53.45,83.32,36.61,71.52,24.81Z" transform="translate(-10.94 -4.22)"/></svg>