<svg xmlns="http://www.w3.org/2000/svg" viewBox="0 0 626 301.27"><defs><style>.cls-1,.cls-6{fill:#fff;}.cls-1{opacity:0.18;}.cls-2{fill:#88bd27;}.cls-3{fill:#ffcf02;}.cls-4{fill:#77aed6;opacity:0.71;}.cls-5,.cls-7{fill:#3d85c6;}.cls-5{opacity:0.87;}.cls-6{opacity:0.39;}.cls-8{fill:#1b2c4c;}.cls-9{fill:#243362;}.cls-10{fill:none;}.cls-10,.cls-11{stroke:#e30613;stroke-miterlimit:10;stroke-width:0.5px;}.cls-11{fill:#e30613;}.cls-12{fill:#d6da20;}.cls-13{fill:#e6007e;}.cls-14{fill:#ef7a4e;}.cls-15{fill:#f59d32;}.cls-16{fill:#010101;}.cls-17{fill:#345ba7;}.cls-18{fill:#f9e63c;}</style></defs><title>water1</title><g id="Laag_7" data-name="Laag 7"><g id="bubbels"><circle class="cls-1" cx="138.21" cy="270.3" r="1.34"/><circle class="cls-1" cx="314.34" cy="267.63" r="1.34"/><circle class="cls-1" cx="28.01" cy="264.95" r="1.34"/><circle class="cls-1" cx="50.89" cy="243.71" r="1.34"/><circle class="cls-1" cx="83.02" cy="282.93" r="1.34"/><circle class="cls-1" cx="96.81" cy="252.34" r="1.34"/><circle class="cls-1" cx="48.16" cy="288.37" r="1.34"/><circle class="cls-1" cx="59.6" cy="267.63" r="1.34"/><circle class="cls-1" cx="13.85" cy="291.05" r="1.34"/><circle class="cls-1" cx="11.13" cy="246.39" r="1.34"/><circle class="cls-1" cx="77.03" cy="237.72" r="1.34"/><circle class="cls-1" cx="282.33" cy="282.93" r="1.34"/><circle class="cls-1" cx="120.6" cy="292.38" r="1.34"/><circle class="cls-1" cx="104.14" cy="270.3" r="1.34"/><circle class="cls-1" cx="159.82" cy="288.37" r="1.34"/><circle class="cls-1" cx="247.89" cy="271.24" r="1.34"/><circle class="cls-1" cx="220.93" cy="289.71" r="1.34"/><circle class="cls-1" cx="608.59" cy="272.58" r="1.34"/><circle class="cls-1" cx="560.67" cy="279.91" r="1.34"/><circle class="cls-1" cx="544.3" cy="253.67" r="1.34"/><circle class="cls-1" cx="522.81" cy="279.91" r="1.34"/><circle class="cls-1" cx="509.51" cy="255.01" r="1.34"/><circle class="cls-1" cx="587.28" cy="268.96" r="1.34"/><circle class="cls-1" cx="367.28" cy="297.73" r="1.34"/><circle class="cls-1" cx="340.45" cy="279.91" r="1.34"/><circle class="cls-1" cx="321.55" cy="240.54" r="1.34"/><circle class="cls-1" cx="280.99" cy="252.34" r="1.34"/><circle class="cls-1" cx="415.37" cy="292.38" r="1.34"/><circle class="cls-1" cx="478.81" cy="270.3" r="1.34"/><circle class="cls-1" cx="454.25" cy="289.71" r="1.34"/><circle class="cls-1" cx="434.81" cy="274.31" r="1.34"/><circle class="cls-1" cx="386.72" cy="271.64" r="1.34"/><circle class="cls-1" cx="350.59" cy="253.67" r="1.34"/><circle class="cls-1" cx="318.87" cy="292.99" r="1.34"/><circle class="cls-1" cx="190.39" cy="284.26" r="1.34"/><circle class="cls-1" cx="123.28" cy="161.86" r="1.34"/><circle class="cls-1" cx="147.58" cy="69.97" r="1.34"/><circle class="cls-1" cx="125.95" cy="91.95" r="1.34"/><circle class="cls-1" cx="127.29" cy="50.94" r="1.34"/><circle class="cls-1" cx="157.15" cy="173" r="1.34"/><circle class="cls-1" cx="144.91" cy="229.19" r="1.34"/><circle class="cls-1" cx="139.55" cy="111.36" r="1.34"/><circle class="cls-1" cx="136.03" cy="174.34" r="1.34"/><circle class="cls-1" cx="143.57" cy="75.32" r="1.34"/><circle class="cls-1" cx="16.52" cy="183.52" r="1.34"/><circle class="cls-1" cx="55.22" cy="195.95" r="1.34"/><circle class="cls-1" cx="135.6" cy="153.2" r="1.34"/><circle class="cls-1" cx="121.94" cy="189.01" r="1.34"/><circle class="cls-1" cx="128.63" cy="23.7" r="1.34"/><circle class="cls-1" cx="114.27" cy="200.13" r="1.34"/><circle class="cls-1" cx="147.58" cy="39.32" r="1.34"/><circle class="cls-1" cx="158.48" cy="219.5" r="1.34"/><circle class="cls-1" cx="121.94" cy="208.13" r="1.34"/><circle class="cls-1" cx="124.62" cy="132.95" r="1.34"/><circle class="cls-1" cx="134.26" cy="218.16" r="1.34"/><circle class="cls-1" cx="146.25" cy="187.67" r="1.34"/><circle class="cls-1" cx="146.25" cy="209.47" r="1.34"/><circle class="cls-1" cx="161.16" cy="195.95" r="1.34"/><circle class="cls-1" cx="134.26" cy="201.47" r="1.34"/></g></g><g id="boot"><path class="cls-2" d="M446.3,988.22" transform="translate(-107.94 -275.28)"/><path class="cls-3" d="M544.85,430.39" transform="translate(-107.94 -275.28)"/><path class="cls-3" d="M544.66,442.88" transform="translate(-107.94 -275.28)"/></g><g id="zee"><path class="cls-4" d="M733.94,573V293.14S641.8,297,603.64,281.93s-77.63-.69-102.41,4.86c-42.44,9.5-83.72,11.92-175.57-4.11-27.74-4.84-33.39-2.57-112.17,13.45-13.06,2.66-24.39,3.37-53.21-6.35s-51.92-9-51.92-9V573H733.94" transform="translate(-107.94 -275.28)"/><path class="cls-5" d="M107.94,576.54V300s92.21,3.76,130.39-11.08,77.68-.68,102.49,4.8c42.47,9.39,83.78,11.79,175.69-4.06,27.75-4.78,33.41-2.54,112.24,13.3,13.07,2.62,24.4,3.32,53.24-6.28s52-8.87,52-8.87V576.54h-626" transform="translate(-107.94 -275.28)"/><path class="cls-6" d="M107.94,319.19s45.89-1.83,56.43-7.33,78.36-18.79,80.19-17,29.79-8.25,87.07,1.83,67.82,11.46,67.82,11.46,46.74,5.53,82.94-2.5,92.56,3.88,101.27,7.08S630.4,327,679,309.11c0,0,46.25-12.83,55-9.17v-5s-36.18,2.75-49.92,7.79-41.25,24.32-118.23,3c0,0-44.91-12.62-89.82-2.08s-82.1,2.64-153.17-10.25S164.34,308,164.34,308s-23.67,7.74-56.4,7.16Z" transform="translate(-107.94 -275.28)"/><path class="cls-7" d="M333.11,234.46" transform="translate(-107.94 -275.28)"/></g><g id="Laag_1" data-name="Laag 1"><g id="Laag_2" data-name="Laag 2"><path class="cls-8" d="M107.94,515.28s75.7-51.8,140.41,6.24c67.25,60.31,75.42,21.91,98.3,8.77,34.48-19.81,39.08-20.72,50.84-23.79,28-7.31,51.25-12.88,83.91,9.56,48.14,33.08,133.37,1.87,137.39-5.89,0,0,33.28-32.07,73.51-7.41s41.64,17.13,41.64,17.13v56.65h-626Z" transform="translate(-107.94 -275.28)"/><path class="cls-9" d="M733.94,515.28s-64.39-35.5-140.4,6.24c-79.19,43.47-75.42,21.91-98.3,8.77-34.48-19.81-39.08-20.72-50.84-23.79-28-7.31-47.26-5.52-83.91,9.56-53.81,22.13-116.14-2.34-116.14-2.34s-40.79-23-81,1.62-55.38,4.55-55.38,4.55v56.65h626Z" transform="translate(-107.94 -275.28)"/></g><path class="cls-10" d="M338.65,535.93" transform="translate(-107.94 -275.28)"/><path class="cls-11" d="M339.93,535.9" transform="translate(-107.94 -275.28)"/></g><g id="koraal1"><path id="koraal_groen2" data-name="koraal groen2" class="cls-2" d="M664.85,497.17A73.87,73.87,0,0,1,658,523.49l1.46.23s.62-.26,4.31-10a56.49,56.49,0,0,0,10.14-5.17s7.45,2.79,12.47-2.87,6-6,7.09-6.29,2.1-1.82.24-1.56-7.37,6.81-10.89,8.16-4.72,1.06-5.76.53,15-12.76,15-12.76,12.29.88,17.33-7.51-5.44,6-14.37,5.71c0,0-1.2-.24.38-1.43s9.83-10,17.82-14.85-2.83-.07-4.89,1.22,4.94-11.36,5.42-12.08-.92-4.32-2.47-.39-7.59,15.45-8.92,16.63-8,7.87-9.46,9,3.15-6.23,3.15-6.23,2.82-3.82,5.47-14.76c0,0,1.08-10.08,4-11.19s12.26-5.44,12.88-15.27c0,0-.69-2.84-2.37-.37s-2.42,11.4-8.66,12.08c0,0,3.9-6.39,3.78-10.4s-2.92-1.2-2.76-.36-5.94,14.82-6.92,15-2-6.49,1.07-19.66c0,0-1.47-2.07-2.72-.43s-1.29,21.23-1,22.42c.31,1.43-6.55-9.19-4.31-14.81,0,0-1.44-3.13-2.05-.23s.43,15.48,5.91,22.86c0,0-3.16,18.29-14.57,28.61,0,0,.94-8.22,2.88-12.2s4.32-6.15,5.85-15.91c0,0-1-3.27-2.46-.28s-1.29,10.41-7.13,19.46c0,0-3,10.78-3.17,12.58s-11.84,8.53-11.84,8.53,3.73-4.77,4.37-8.1,3-15.83,3-15.83,4.89-9.09,9.74-14.86-1.73-.38-1.73-.38-7.26,7.43-7.5,9.75,1.1-7,3.87-15.47c0,0,4.83-2.67,6.32-12.08s4.7-20.7,6.17-22.51a78.93,78.93,0,0,1,6.74-6.12s2.64-3.44-.75-1.61-3.63,4.89-4.91,4.69.6-12.88,1.2-13.64-1.37-2.68-2-.31-2.57,20.82-6,25.75-.95,16.57-6.49,21.49a87.8,87.8,0,0,1,1.91-31s-.66-4.17-2.43-.49-2,14.37-2,14.37-5.7-5-4.39-14.63-2.44,2-2.6,2.27-.27,9.28,5.87,16.47c0,0,1.79,16.58-.18,22.27s-3,9.61-4.16,19.61-4.16,17.24-5.68,18.61,1.85-8,1.69-10.77-4.56-11.87-2.54-14.13,10.36-12.73,7.07-23.64-2.47,3.57-2.47,3.57,2.43,3.49-3.92,15.79c0,0-.82-.88,1.48-14.67,0,0,.68-2.9-1.26-7.17,0,0,3.84-6.15,4-10.2s-2.94-1.1-2.35-.26-2,6.55-2,6.55-1.82-15.24-5.38-18.32,6.56-19.61,5.16-24.17-2.57-1.62-2.71.88a57.53,57.53,0,0,1-1.14,6.93s-2.76-9.37-3-10.53-2.87-1.41-2.11.53,3.33,10.07,3.2,11.53-1.41,10.79-1.41,10.79.07,2-1.12-.26-4.77-7.69-5.09-15.47c0,0-2.45-2.81-2,.64s1.4,11.93,4.47,15.11,6.78,12.09,6.85,12.88-1.84.05-4.23-1.36a82.25,82.25,0,0,1-7.71-6.17s1.17-6.23-1.21-10.08-3.34-.26-2.74.26,2.94,7.67,1.58,6.5-6.19-10.35-6.19-10.35-3.5-2.89-1.93.65c0,0,5.93,13.78,11.76,17.21,0,0,2.66,1.47-.32.82s-6.77-.55-8.16-1.55a11.41,11.41,0,0,1-2.26-2.17s-2.6-1.89-1.43.46,2.59,3.8,3.88,4.17,9.22.33,10.78.84,6.1,3.56,7.66,4.07S664,456.2,664,456.2s1.42,7.52.69,9.74-3.34-4.52-3.34-4.52-1.85-1.16-2,.81,3.93,7.56,4.61,8.11-2,19,0,22.3" transform="translate(-107.94 -275.28)"/><path id="koraal_groen1" data-name="koraal groen1" class="cls-2" d="M644.38,498.73a74,74,0,0,0,9.7,22l-1.09.37s-.52-.16-5-8.17a44.61,44.61,0,0,1-8.72-3.29,8.65,8.65,0,0,1-10.13-1c-4.84-4.31-5.63-4.49-6.55-4.62s-1.93-1.34-.45-1.33,6.85,5,9.8,5.8,3.83.36,4.55-.22-13.72-9.3-13.72-9.3-9.38,2.2-14.68-4.48,5.21,4.57,12.08,3.26c0,0,.89-.34-.53-1.19s-9.28-7.51-16.28-10.78,2.17-.4,4,.48-5.73-9.28-6.21-9.84,0-3.86,1.84-.63,8.46,12.5,9.69,13.37,7.54,5.88,8.83,6.68-3.48-5-3.48-5-2.82-3-6.7-12.16c0,0-2.52-8.61-5-9.24s-10.4-3.27-12.52-11.72c0,0,.06-2.55,1.77-.6s3.77,9.6,8.73,9.46c0,0-4.09-5.09-4.67-8.58s2.06-1.39,2.08-.64,7.07,12.16,7.86,12.2.44-5.87-4.11-16.93c0,0,.8-2,2-.7s4.54,18.27,4.53,19.34c0,1.27,3.54-8.75.87-13.36,0,0,.59-2.89,1.55-.44s2.25,13.48-.76,20.53c0,0,5.49,15.49,16,23.1,0,0-2.1-7-4.26-10.25s-4.37-4.83-7.19-13.11c0,0,.26-3,1.86-.53s2.73,8.88,8.77,16c0,0,4.13,9,4.56,10.54s10.59,6,10.59,6-3.69-3.7-4.74-6.51-4.94-13.38-4.94-13.38a101,101,0,0,0-10-11.74c-4.72-4.44,1.28-.54,1.28-.54s6.86,5.59,7.44,7.58-2-5.95-5.58-13c0,0-4.19-1.74-6.91-9.73s-7.09-17.41-8.54-18.8a67.27,67.27,0,0,0-6.24-4.51s-2.62-2.68.31-1.49,3.63,3.81,4.59,3.49-2.61-11.1-3.2-11.7.61-2.48,1.48-.5,5.46,17.76,8.92,21.64,3.49,14.26,8.61,17.87a87.58,87.58,0,0,0-6.65-26.67s-.19-3.7,1.8-.71,4,12.23,4,12.23,3.59-5,1-13.21,2.22,1.42,2.4,1.66a23.61,23.61,0,0,1-1.81,15s1.38,14.59,3.85,19.3,3.89,8,6.5,16.52,6.09,14.47,7.5,15.47-2.76-6.68-3.11-9.14,1.56-10.84-.38-12.55-10.15-9.83-9.43-19.69,2.52,2.82,2.52,2.82-1.31,3.31,5.67,13.23c0,0,.48-.86-3.6-12.55a11.77,11.77,0,0,1-.21-6.37s-4-4.88-4.8-8.38,2.09-1.3,1.77-.5,2.63,5.45,2.63,5.45-1.13-13.43,1.12-16.53-8.36-16.24-8-20.36,1.73-1.71,2.25.44a56.28,56.28,0,0,0,2,5.88s.57-8.45.54-9.48,2-1.56,1.72.21-.9,9.13-.56,10.38,2.9,9.2,2.9,9.2.28,1.74.82-.36a31.09,31.09,0,0,0,1.36-14s1.43-2.73,1.68.31.91,10.52-.94,13.63-3.24,11.29-3.16,12,1.44-.16,3-1.67a63.58,63.58,0,0,0,5-6.26s-2-5.27-.74-8.89,2.53-.62,2.16-.1-1,7-.14,5.83,3.07-9.71,3.07-9.71,2.23-2.92,1.61.34c0,0-2.3,12.65-6.25,16.31,0,0-1.82,1.59.39.68s5.15-1.28,6.06-2.31a9,9,0,0,0,1.39-2.15s1.7-2,1.18.23-1.37,3.6-2.31,4.08-7.08,1.37-8.21,2-4.13,3.81-5.26,4.44-.6,8.62-.6,8.62.16,6.7,1.1,8.54,1.83-4.32,1.83-4.32,1.24-1.22,1.66.48-1.78,7-2.22,7.57,4.75,16.26,3.68,19.36" transform="translate(-107.94 -275.28)"/><path id="koraal_geel" data-name="koraal geel" class="cls-12" d="M642.37,500.4S621,502.86,621.2,493c0,0,4.48-3,15.19,3s-8.22-7.93-8.22-7.93-20.92-15-11.21-22.4,27.65,29,34.63,44c0,0-1-4.37-4.74-18,0,0-18.51-14.21-13.86-50,0,0,6.42-9.53,9.1,2.25,0,0-3.36,12.2-2.29,23.29.05.51.1,1,.17,1.52,0,0,2.4-4.65,4.52-21.39,0,0,3.11-6.95,5.52.86s-5.66,22.85-8.63,23.63,5,15.81,5,15.81a202.08,202.08,0,0,0,4-28.68c.71-13.95,7.21-2.79,6.78,1.4s-6.5,31.77-3.67,37,1.69,16.28,1.69,16.28,4.21-36.43,11.15-44.64c0,0-11-13.24-10.16-35,0,0,3.4-4.6,6.08,0s-1.21,19.49,5.33,31.73c0,0,3.43,1.24,7.25-16s12-1.55,8.48,1.08c0,0-4.4,15-14.28,26.78a24.38,24.38,0,0,0-4,8.72c-1.42,5.58,6.36-6.51,6.36-6.51s6-4,4.93,3.41-11.72,6.82-11.72,6.82-6.78,22.63-6.07,26.82,21.62-38.29,21.62-38.29,5.65-17.67,5.65-21.24,6.79-12.71,5.8-.93a67.51,67.51,0,0,1-4.67,20s4.81-.62,6.22-7.91a51.53,51.53,0,0,0,.57-14.26s0-9.3,4.38-1.86-.71,19.07-.71,19.07-4.27,5.8-9.61,7.75c-1.27.46-14,22.17-14,22.17s6.22-1.25,12.3-9.31S692,494,692,494s-5,10.24-14.13,10.55-6.93,0-6.93,0-9.18,10.82-9.61,18.82H651.7S646.52,504.88,642.37,500.4Z" transform="translate(-107.94 -275.28)"/><path id="koraal_groen2-2" data-name="koraal groen2" class="cls-2" d="M208.48,518.13a73.94,73.94,0,0,1-2.09,24h1.15s.45-.32,2.11-9.35a44.87,44.87,0,0,0,7.19-5.92,8.67,8.67,0,0,0,9.27-4.23c3.18-5.65,3.88-6.07,4.71-6.49s1.39-1.89,0-1.4-4.86,7-7.41,8.64-3.51,1.58-4.38,1.26,10-13.23,10-13.23,9.59-.93,12.46-9-3.47,6-10.39,7c0,0-1,0,.12-1.3s6.37-10.1,11.94-15.46-2.19.33-3.62,1.75,2.42-10.63,2.7-11.32-1.23-3.65-1.95,0-4,14.56-4.85,15.78-5.26,8-6.21,9.17,1.67-5.89,1.67-5.89,1.71-3.73,2.43-13.67c0,0-.4-9,1.71-10.34s8.79-6.45,8.08-15.13c0,0-.88-2.4-1.87,0s-.48,10.3-5.22,11.76c0,0,2.23-6.13,1.66-9.62s-2.4-.65-2.18.07S232.72,479,232,479.28s-2.3-5.41-1.57-17.35c0,0-1.39-1.6-2.15,0s1.59,18.76,1.94,19.77c.42,1.2-6.17-7.14-5.13-12.37,0,0-1.49-2.54-1.61.08s2.22,13.49,7.34,19.19c0,0-.21,16.44-7.75,27,0,0-.28-7.32.74-11.07s2.58-6,2.57-14.73c0,0-1.19-2.72-1.93.1s.28,9.28-3.13,18c0,0-1,9.85-.92,11.44s-8.1,9.1-8.1,9.1,2.3-4.69,2.4-7.69.36-14.26.36-14.26a101.22,101.22,0,0,1,5.71-14.35c3-5.72-1.38-.09-1.38-.09s-4.69,7.5-4.6,9.56,0-6.28,1.1-14.07c0,0,3.41-3,3.41-11.44s1.1-18.76,2-20.54a67.41,67.41,0,0,1,4.45-6.29S227.38,446,225,448s-2.21,4.78-3.22,4.78-1.1-11.35-.73-12.1-1.38-2.15-1.57,0,.55,18.58-1.47,23.36,1.29,14.63-2.39,19.7a87.45,87.45,0,0,1-2.3-27.39s-1-3.57-1.94-.1.19,12.85.19,12.85-5-3.56-5.17-12.19-1.64,2.06-1.73,2.35a23.54,23.54,0,0,0,6.53,13.6s3.4,14.25,2.58,19.51-1.11,8.81-.83,17.73-1.11,15.66-2.12,17.07.46-7.23,0-9.66-5-9.76-3.68-12,6.44-12.57,2.58-21.67-1.47,3.47-1.47,3.47,2.3,2.72-1.11,14.35c0,0-.73-.65-.64-13a11.78,11.78,0,0,0-1.85-6.09s2.22-5.91,1.85-9.48-2.41-.56-1.85.1-.73,6-.73,6-3.25-13.08-6.38-15.28,2.68-18.07,1-21.86-2.18-1.07-2,1.13a58.93,58.93,0,0,1,0,6.23s-3.27-7.82-3.56-8.81-2.39-.83-1.57.76,3.8,8.35,3.88,9.64.22,9.65.22,9.65.3,1.74-.9-.08a31,31,0,0,1-5.8-12.83s-2.24-2.13-1.49.83,2.53,10.25,5.28,12.61,6.71,9.64,6.86,10.32-1.42.3-3.43-.61a62.61,62.61,0,0,1-6.7-4.32s.14-5.62-2.16-8.66-2.61.23-2.09.61,3.21,6.3,2,5.47-6-8.2-6-8.2-3.05-2.05-1.41.83c0,0,6.25,11.24,11.17,13.44,0,0,2.23.91-.15.76s-5.29.45-6.48-.23a9.05,9.05,0,0,1-2-1.59s-2.24-1.29-1,.6,2.45,3,3.5,3.12,7.15-1,8.41-.76,5.14,2.27,6.41,2.5,3.35,8,3.35,8,2,6.39,1.71,8.44-3.13-3.5-3.13-3.5-1.56-.76-1.41,1,3.94,6.08,4.54,6.46.74,16.93,2.75,19.51" transform="translate(-107.94 -275.28)"/><path id="koraal_groen1-2" data-name="koraal groen1" class="cls-2" d="M170.78,503.3a73.94,73.94,0,0,0,2.09,24h-1.15s-.44-.32-2.11-9.35a44.21,44.21,0,0,1-7.19-5.92,8.67,8.67,0,0,1-9.27-4.23c-3.18-5.64-3.87-6.07-4.7-6.49s-1.4-1.88,0-1.4,4.86,7,7.4,8.64,3.52,1.59,4.39,1.26-10-13.22-10-13.22-9.59-.94-12.45-9,3.46,6,10.38,7c0,0,1,0-.12-1.3s-6.36-10.1-11.93-15.46,2.18.33,3.62,1.75-2.43-10.63-2.71-11.32,1.23-3.65,1.95,0,4,14.56,4.86,15.78,5.25,8,6.2,9.17-1.67-5.88-1.67-5.88-1.71-3.74-2.43-13.67c0,0,.4-9-1.71-10.35s-8.79-6.45-8.08-15.13c0,0,.88-2.39,1.88,0s.47,10.3,5.21,11.76c0,0-2.23-6.13-1.65-9.61s2.39-.66,2.17.06,2.78,13.78,3.51,14.08,2.31-5.41,1.57-17.35c0,0,1.39-1.61,2.15,0s-1.59,18.75-1.94,19.76c-.41,1.2,6.17-7.14,5.13-12.37,0,0,1.49-2.54,1.61.09s-2.22,13.48-7.34,19.18c0,0,.21,16.44,7.75,27,0,0,.28-7.31-.73-11.07s-2.59-6-2.58-14.72c0,0,1.2-2.72,1.93.09s-.27,9.29,3.13,18c0,0,1,9.85.92,11.44s8.1,9.1,8.1,9.1-2.3-4.69-2.39-7.69-.37-14.26-.37-14.26a101.22,101.22,0,0,0-5.71-14.35c-3-5.72,1.38-.09,1.38-.09s4.7,7.5,4.6,9.57,0-6.29-1.1-14.07c0,0-3.41-3-3.41-11.45s-1.1-18.76-2-20.54a68.32,68.32,0,0,0-4.45-6.28s-1.62-3.38.77-1.32,2.21,4.79,3.22,4.79,1.1-11.35.74-12.1,1.38-2.16,1.56,0-.55,18.57,1.47,23.35-1.29,14.63,2.4,19.7a87.81,87.81,0,0,0,2.3-27.39s1-3.56,1.93-.09-.19,12.85-.19,12.85,5-3.57,5.17-12.2,1.64,2.07,1.74,2.35a23.59,23.59,0,0,1-6.54,13.6s-3.4,14.26-2.57,19.51,1.1,8.82.82,17.73,1.11,15.66,2.12,17.07-.46-7.22,0-9.66,5-9.76,3.68-12-6.44-12.57-2.58-21.67,1.48,3.47,1.48,3.47-2.3,2.72,1.1,14.36c0,0,.74-.66.64-13a11.8,11.8,0,0,1,1.85-6.1s-2.21-5.91-1.85-9.47,2.41-.57,1.85.09.73,6,.73,6,3.26-13.08,6.38-15.28-2.68-18.07-1-21.86,2.18-1.06,2,1.14a58.78,58.78,0,0,0,0,6.22s3.27-7.82,3.57-8.8,2.38-.84,1.56.76-3.8,8.35-3.87,9.64-.23,9.64-.23,9.64-.29,1.74.9-.08a31.14,31.14,0,0,0,5.81-12.83s2.23-2.12,1.49.84-2.54,10.25-5.29,12.6-6.7,9.64-6.85,10.32,1.41.31,3.42-.6a62.26,62.26,0,0,0,6.7-4.33s-.14-5.62,2.17-8.65,2.6.22,2.08.6-3.2,6.3-2,5.47,6-8.2,6-8.2,3-2.05,1.42.83c0,0-6.26,11.24-11.17,13.44,0,0-2.24.91.14.76s5.29.46,6.48-.23a9.05,9.05,0,0,0,2-1.59s2.24-1.29,1.05.61-2.46,3-3.5,3.11-7.15-1-8.42-.76-5.14,2.28-6.4,2.5-3.35,8-3.35,8-2,6.38-1.72,8.43,3.13-3.5,3.13-3.5,1.56-.76,1.42,1-4,6.07-4.55,6.45S174,496.87,172,499.45" transform="translate(-107.94 -275.28)"/><path id="koraal_roze" data-name="koraal roze" class="cls-13" d="M150.33,536s-25.62,2.91-25.32-8.75c0,0,5.36-3.57,18.17,3.56s-9.83-9.39-9.83-9.39-25-17.82-13.41-26.57S153,529.19,161.35,547c0,0-1.19-5.18-5.66-21.38,0,0-22.14-16.85-16.58-59.29,0,0,7.67-11.3,10.88,2.67,0,0-4,14.46-2.74,27.62q.09.9.21,1.8s2.87-5.52,5.41-25.37c0,0,3.71-8.24,6.59,1s-6.76,27.09-10.31,28,5.91,18.75,5.91,18.75a236.52,236.52,0,0,0,4.73-34c.85-16.54,8.62-3.3,8.12,1.66s-7.78,37.68-4.4,43.94,2,19.3,2,19.3,5-43.2,13.33-52.95c0,0-13.16-15.69-12.15-41.48,0,0,4.06-5.46,7.27,0s-1.45,23.1,6.38,37.62c0,0,4.1,1.47,8.66-18.93s14.37-1.84,10.14,1.29c0,0-5.25,17.78-17.07,31.76a28.79,28.79,0,0,0-4.73,10.33c-1.69,6.62,7.61-7.72,7.61-7.72s7.24-4.78,5.9,4.05-14,8.09-14,8.09-8.11,26.83-7.26,31.8,25.86-45.41,25.86-45.41,6.76-21,6.76-25.18,8.11-15.08,6.92-1.11a79.69,79.69,0,0,1-5.57,23.72s5.74-.74,7.43-9.38a60.93,60.93,0,0,0,.68-16.91s0-11,5.24-2.21-.85,22.62-.85,22.62-5.11,6.87-11.49,9.19c-1.52.55-16.73,26.28-16.73,26.28s7.44-1.47,14.7-11,7.1,2.21,7.1,2.21-5.91,12.13-16.9,12.5-8.28,0-8.28,0-11,12.84-11.49,22.32h-11.5S155.29,541.31,150.33,536Z" transform="translate(-107.94 -275.28)"/><path id="koraal_groen2-3" data-name="koraal groen2" class="cls-2" d="M503.4,513.13a25.22,25.22,0,0,1-3.9,11.37l.83.17s.35-.09,2.45-4.24a33.91,33.91,0,0,0,5.76-1.82s4.24,1.58,7.09-.69,3.4-2.39,4-2.47,1.19-.71.14-.68-4.2,2.68-6.2,3.11-2.68.26-3.27,0,8.51-5,8.51-5,7,1,9.85-2.53-3.09,2.41-8.17,1.86c0,0-.68-.16.22-.61s5.59-4,10.13-5.76-1.61-.17-2.78.31,2.81-4.81,3.08-5.11-.52-2-1.4-.29-4.32,6.51-5.07,7-4.58,3.11-5.38,3.55,1.79-2.62,1.79-2.62,1.6-1.57,3.11-6.3c0,0,.61-4.42,2.27-4.78s7-1.85,7.32-6.18c0,0-.39-1.29-1.34-.28s-1.38,4.95-4.93,5c0,0,2.22-2.65,2.15-4.44s-1.66-.67-1.57-.29-3.38,6.3-3.93,6.34-1.12-3,.61-8.68c0,0-.84-1-1.55-.32s-.73,9.37-.58,9.91-3.72-4.39-2.45-6.78c0,0-.82-1.46-1.17-.2s.25,6.9,3.36,10.43c0,0-1.8,8-8.28,12,0,0,.53-3.6,1.63-5.28s2.46-2.53,3.33-6.79c0,0-.59-1.5-1.4-.24s-.73,4.56-4.05,8.31c0,0-1.71,4.64-1.81,5.43s-6.73,3.24-6.73,3.24,2.12-2,2.49-3.39,1.69-6.89,1.69-6.89a42.27,42.27,0,0,1,5.54-6.15c2.76-2.33-1-.25-1-.25s-4.13,3-4.27,4a69.53,69.53,0,0,1,2.2-6.69s2.75-1,3.6-5.07,2.67-9,3.51-9.7a38.19,38.19,0,0,1,3.83-2.4s1.5-1.41-.42-.75-2.07,2-2.8,1.85.35-5.69.69-6-.78-1.26-1.13-.23-1.46,9.12-3.4,11.15-.54,7.32-3.69,9.24a30.36,30.36,0,0,1,1.09-13.68s-.37-1.88-1.38-.33-1.15,6.29-1.15,6.29A7.21,7.21,0,0,1,508,483c.74-4.22-1.39.77-1.48.89a10.38,10.38,0,0,0,3.34,7.59s1,7.45-.11,9.88a27.68,27.68,0,0,0-2.37,8.51c-.69,4.38-2.36,7.47-3.23,8s1.06-3.45,1-4.7-2.6-5.49-1.44-6.39,5.89-5.17,4-10.17-1.41,1.47-1.41,1.47,1.38,1.66-2.23,6.82c0,0-.46-.43.84-6.44a4.48,4.48,0,0,0-.71-3.24s2.18-2.55,2.27-4.34-1.67-.63-1.33-.23-1.13,2.81-1.13,2.81-1-6.85-3.06-8.38,3.74-8.4,2.94-10.49-1.46-.84-1.54.26a19.33,19.33,0,0,1-.65,3s-1.57-4.29-1.68-4.81-1.63-.76-1.2.14,1.89,4.63,1.82,5.27-.81,4.72-.81,4.72,0,.9-.63-.17-2.71-3.64-2.89-7.1c0,0-1.4-1.37-1.16.18s.8,5.37,2.54,6.92a21.24,21.24,0,0,1,3.89,6c0,.36-1-.06-2.4-.8a52.11,52.11,0,0,1-4.38-3.1s.66-2.71-.69-4.53-1.9-.28-1.56,0,1.67,3.54.9,3A42.66,42.66,0,0,1,490,478.7s-2-1.45-1.1.2c0,0,3.37,6.39,6.69,8.19,0,0,1.51.78-.19.35s-3.84-.56-4.63-1.07a6.94,6.94,0,0,1-1.29-1.07s-1.47-1-.81.14a4.37,4.37,0,0,0,2.21,2c.73.23,5.24.58,6.12.88s3.47,1.87,4.36,2.16,1.61,4.38,1.61,4.38.8,3.41.39,4.36-1.9-2.16-1.9-2.16-1.05-.61-1.12.27,2.23,3.54,2.62,3.81-1.16,8.35,0,9.91" transform="translate(-107.94 -275.28)"/><path id="koraal_groen1-3" data-name="koraal groen1" class="cls-2" d="M477.79,500.34a25.28,25.28,0,0,0-.9,12l-.83-.17s-.29-.22-.58-4.86a33.56,33.56,0,0,1-4.58-4s-4.52-.21-6.24-3.43-2.18-3.53-2.73-3.86-.82-1.12.14-.68,2.79,4.12,4.46,5.31,2.37,1.29,3,1.26-5.86-7.92-5.86-7.92-6.8-1.87-8.05-6.21,1.88,3.44,6.76,4.94c0,0,.7.12.05-.65s-3.57-5.86-7-9.3,1.54.49,2.43,1.39-.68-5.54-.81-5.91,1.25-1.6,1.4.29,1.4,7.68,1.91,8.4,3,4.67,3.55,5.38-.62-3.11-.62-3.11-.85-2.07-.37-7c0,0,1.18-4.3-.2-5.29s-5.67-4.44-4.29-8.56c0,0,.87-1,1.35.28s-.69,5.08,2.57,6.5c0,0-1-3.32-.23-4.93s1.79,0,1.56.35.62,7.12,1.11,7.37,2.2-2.29,2.87-8.21c0,0,1.16-.58,1.54.32s-3,8.89-3.37,9.33,5.15-2.56,4.93-5.26c0,0,1.32-1,1.14.28s-2.94,6.24-7.19,8.26c0,0-1.5,8,2.86,14.31,0,0,.93-3.52.58-5.5s-1.26-3.29-.38-7.55c0,0,1.14-1.15,1.38.33s-1.12,4.48.45,9.23c0,0-.26,4.95-.48,5.71s4.91,5.63,4.91,5.63-1.19-2.63-.95-4.1,1.16-7,1.16-7a42.13,42.13,0,0,0-2.66-7.83c-1.61-3.24,1,.16,1,.16s2.62,4.34,2.35,5.34.63-3.06.61-7c0,0-2.15-2-1.3-6.07s1.08-9.3.6-10.31a37.58,37.58,0,0,0-2.57-3.71s-.83-1.89.69-.53,1.1,2.66,1.83,2.81,1.93-5.37,1.74-5.79,1.21-.84,1.13.23-2.26,9-1.28,11.59-2.39,6.94-.25,10a30.23,30.23,0,0,0,4.39-13s1.09-1.58,1.4.24-1.42,6.23-1.42,6.23a7.19,7.19,0,0,0,4.94-5.17c1-4.18,1,1.25,1,1.4a10.35,10.35,0,0,1-6.06,5.65s-3.88,6.44-3.81,9.12a27.46,27.46,0,0,1-1.18,8.76c-1.09,4.3-.77,7.79-.18,8.63s.39-3.59,1-4.71,4.55-4,3.85-5.3-3.37-7.07.32-10.93.71,1.9.71,1.9-1.93,1-.64,7.16c0,0,.59-.22,1.77-6.26a4.44,4.44,0,0,1,1.93-2.69s-1-3.21-.38-4.89,1.79.08,1.32.32-.07,3-.07,3,3.65-5.89,6.12-6.5-.12-9.19,1.43-10.8,1.68-.19,1.32.85a19.65,19.65,0,0,0-.6,3s3.13-3.33,3.44-3.77,1.8-.05,1.05.61-3.56,3.5-3.75,4.12-1.12,4.66-1.12,4.66-.39.81.65.09,3.93-2.27,5.46-5.38c0,0,1.82-.71,1,.62s-2.85,4.62-5.07,5.36a21.42,21.42,0,0,0-6,4c-.17.31,1,.36,2.53.21a51.07,51.07,0,0,0,5.25-1.11s.46-2.76,2.42-3.9,1.85.5,1.44.61-2.94,2.59-2,2.36,5.16-3.1,5.16-3.1,2.4-.55.93.61c0,0-5.62,4.55-9.37,4.9,0,0-1.7.11,0,.39s3.75,1,4.68.85a7.15,7.15,0,0,0,1.61-.48s1.73-.3.68.45a4.43,4.43,0,0,1-2.82,1c-.77-.08-5.05-1.53-6-1.61s-3.92.35-4.85.27-3.21,3.39-3.21,3.39-2.09,2.81-2.08,3.85,2.6-1.24,2.6-1.24,1.2-.14.92.69-3.44,2.38-3.91,2.47-2.23,8.14-3.94,9.1" transform="translate(-107.94 -275.28)"/><path class="cls-14" d="M141.5,395c-1.42,6.14.63,8.65,2.05,8.39.71-.17,1.28-.95,1.77-1.73,1.13-1.47,3.26-2.33,7.08-3.63C148.44,398.61,144.83,398.09,141.5,395Z" transform="translate(-107.94 -275.28)"/><path class="cls-14" d="M141.28,380.78c2.27-2.16,3.26-4.84,9.92-4.84a12.19,12.19,0,0,1,4.82.95c-.57-1.91-1.56-4.24-4.11-4.42-5.53-.34-8.57-.52-10.48-1.81-.85-.61-1.7-1.3-2.55-1.22C136.61,369.62,136.25,374.81,141.28,380.78Z" transform="translate(-107.94 -275.28)"/><path class="cls-14" d="M138.52,384.16c-1.7.78-2.69-.78-3.75-2.6a23.46,23.46,0,0,1-1.42-2.34.61.61,0,0,0-1.13,0h0a17.85,17.85,0,0,0,0,14.29.57.57,0,0,0,1.06.08c1.91-3.11,3.19-6.14,5.24-3.89A24.44,24.44,0,0,1,138.52,384.16Z" transform="translate(-107.94 -275.28)"/><path class="cls-15" d="M164,389c-.07,0-.07-.18,0-.18a3.2,3.2,0,0,1,.64-.08c.49,0-.22-1.65-.43-2.17a3.2,3.2,0,0,0-.35-.69,20.41,20.41,0,0,0-2.34-3.72h0a14.38,14.38,0,0,0-5.1-4.16h0a12.12,12.12,0,0,0-5.17-1.21c-7.72,0-7.3,3.55-11.9,6.84a19.37,19.37,0,0,0,.28,7.62c.36.86,4.68,8.56,15.52,5.28a17.91,17.91,0,0,0,7.79-4.68,8.93,8.93,0,0,0,1.84-2.25C164.94,389.18,164.45,389.18,164,389Zm-1.56-3.64a1.23,1.23,0,1,1-1.2-1.47A1.34,1.34,0,0,1,162.39,385.37Zm-11.33,8.91c-2.06-.51-3.12-5-.57-7,1.35-1,3.47-1.12,6.23,1.56-2.4-1.64-4.6-1.3-5.73-.52,1.7-.6,3.54.09,5.1,1.13a5,5,0,0,0-5.53,1.3,5.46,5.46,0,0,1,4.75-.61,5.45,5.45,0,0,0-4.75,2.94,6.44,6.44,0,0,1,5.1-2.07v.17C152.76,392.29,152.9,394.72,151.06,394.28Z" transform="translate(-107.94 -275.28)"/><path class="cls-16" d="M160.41,385.37a.8.8,0,0,0,.71.87.81.81,0,0,0,.7-.87.72.72,0,1,0-1.41,0Zm.49.17c-.14,0-.21-.08-.21-.26a.25.25,0,0,1,.21-.26c.07,0,.22.18.22.26S161.05,385.54,160.9,385.54Z" transform="translate(-107.94 -275.28)"/><path class="cls-14" d="M167,418.55c-1.07,3.95.49,5.56,1.56,5.4a2.64,2.64,0,0,0,1.34-1.12c.86-.94,2.47-1.5,5.36-2.33A10.31,10.31,0,0,1,167,418.55Z" transform="translate(-107.94 -275.28)"/><path class="cls-14" d="M166.86,409.43c1.72-1.39,2.47-3.12,7.51-3.12a10.7,10.7,0,0,1,3.65.62c-.43-1.23-1.18-2.73-3.11-2.84-4.19-.22-6.49-.33-7.94-1.17a3.61,3.61,0,0,0-1.93-.78C163.32,402.25,163.05,405.59,166.86,409.43Z" transform="translate(-107.94 -275.28)"/><path class="cls-14" d="M164.77,411.6c-1.29.5-2-.5-2.84-1.67a14.63,14.63,0,0,1-1.08-1.5.49.49,0,0,0-.86,0h0a9.93,9.93,0,0,0,0,9.18.47.47,0,0,0,.81.05c1.45-2,2.41-4,4-2.5A13.26,13.26,0,0,1,164.77,411.6Z" transform="translate(-107.94 -275.28)"/><path class="cls-15" d="M184,414.71c-.05,0-.05-.11,0-.11a2.93,2.93,0,0,1,.48-.05c.38,0-.16-1.06-.32-1.39a1.79,1.79,0,0,0-.27-.45,12.44,12.44,0,0,0-1.77-2.39h0a10.74,10.74,0,0,0-3.86-2.67h0a10.44,10.44,0,0,0-3.92-.78c-5.85,0-5.52,2.28-9,4.39a10.62,10.62,0,0,0,.21,4.9c.27.56,3.54,5.51,11.75,3.39a14,14,0,0,0,5.9-3,5.74,5.74,0,0,0,1.4-1.45C184.78,414.82,184.4,414.82,184,414.71Zm-1.18-2.33a.92.92,0,1,1-.91-.95A.92.92,0,0,1,182.85,412.38Zm-8.58,5.73c-1.56-.34-2.37-3.23-.43-4.51,1-.67,2.62-.72,4.72,1a4.43,4.43,0,0,0-4.35-.33,5,5,0,0,1,3.86.72,4.17,4.17,0,0,0-4.18.84,4.72,4.72,0,0,1,3.59-.39,4.19,4.19,0,0,0-3.59,1.89,5.34,5.34,0,0,1,3.86-1.34v.11C175.55,416.83,175.66,418.38,174.27,418.11Z" transform="translate(-107.94 -275.28)"/><path class="cls-16" d="M181.35,412.38a.54.54,0,1,0,.53-.56A.54.54,0,0,0,181.35,412.38Zm.37.11a.15.15,0,0,1-.16-.17.18.18,0,0,1,.16-.17c.06,0,.16.12.16.17A.17.17,0,0,1,181.72,412.49Z" transform="translate(-107.94 -275.28)"/><path class="cls-14" d="M179.77,372.92c-1.31,5.22.59,7.35,1.91,7.12a3.18,3.18,0,0,0,1.65-1.46c1-1.25,3-2,6.58-3.09C186.22,376,182.87,375.57,179.77,372.92Z" transform="translate(-107.94 -275.28)"/><path class="cls-14" d="M179.57,360.88c2.11-1.83,3-4.11,9.22-4.11a12.41,12.41,0,0,1,4.48.81c-.53-1.61-1.45-3.6-3.82-3.74-5.13-.3-8-.44-9.74-1.54a4.13,4.13,0,0,0-2.37-1C175.23,351.42,174.9,355.82,179.57,360.88Z" transform="translate(-107.94 -275.28)"/><path class="cls-14" d="M177,363.75c-1.58.66-2.51-.66-3.49-2.2a21.45,21.45,0,0,1-1.32-2,.58.58,0,0,0-1,0h0a13.9,13.9,0,0,0,0,12.12.55.55,0,0,0,1,.07c1.78-2.64,3-5.21,4.88-3.3A18.48,18.48,0,0,1,177,363.75Z" transform="translate(-107.94 -275.28)"/><path class="cls-15" d="M200.64,367.86c-.06,0-.06-.15,0-.15a3.22,3.22,0,0,1,.6-.07c.46,0-.2-1.4-.4-1.84a2.45,2.45,0,0,0-.33-.58,17,17,0,0,0-2.17-3.16h0a13.31,13.31,0,0,0-4.74-3.52h0a12,12,0,0,0-4.81-1c-7.17,0-6.78,3-11.06,5.8a15,15,0,0,0,.26,6.46c.33.73,4.35,7.27,14.42,4.48a17,17,0,0,0,7.25-4,7.6,7.6,0,0,0,1.71-1.91C201.57,368,201.1,368,200.64,367.86Zm-1.44-3.08a1.13,1.13,0,1,1-1.12-1.25A1.17,1.17,0,0,1,199.2,364.78Zm-10.54,7.56c-1.91-.44-2.9-4.26-.53-5.95,1.25-.88,3.23-.95,5.8,1.32a5.13,5.13,0,0,0-5.34-.44,5.86,5.86,0,0,1,4.75,1,4.88,4.88,0,0,0-5.14,1.1,5.51,5.51,0,0,1,4.41-.52,5.1,5.1,0,0,0-4.41,2.5,6.26,6.26,0,0,1,4.74-1.76v.14C190.24,370.65,190.37,372.7,188.66,372.34Z" transform="translate(-107.94 -275.28)"/><path class="cls-16" d="M197.35,364.78a.66.66,0,1,0,1.32,0,.66.66,0,1,0-1.32,0Zm.46.14c-.13,0-.19-.07-.19-.22a.23.23,0,0,1,.19-.22c.07,0,.2.15.2.22A.22.22,0,0,1,197.81,364.92Z" transform="translate(-107.94 -275.28)"/><path class="cls-14" d="M197.1,400.2c-.81,2.95.36,4.16,1.17,4a1.87,1.87,0,0,0,1-.83c.65-.7,1.86-1.12,4-1.74A7.8,7.8,0,0,1,197.1,400.2Z" transform="translate(-107.94 -275.28)"/><path class="cls-14" d="M197,393.38c1.29-1,1.86-2.33,5.65-2.33a8.17,8.17,0,0,1,2.75.46,2.68,2.68,0,0,0-2.34-2.12c-3.15-.16-4.89-.25-6-.87a2.73,2.73,0,0,0-1.46-.58C194.31,388,194.11,390.51,197,393.38Z" transform="translate(-107.94 -275.28)"/><path class="cls-14" d="M195.4,395c-1,.38-1.53-.37-2.14-1.24a13.52,13.52,0,0,1-.81-1.13.37.37,0,0,0-.64,0h0a7.32,7.32,0,0,0,0,6.86.35.35,0,0,0,.6.05c1.09-1.5,1.82-3,3-1.87A10,10,0,0,1,195.4,395Z" transform="translate(-107.94 -275.28)"/><path class="cls-15" d="M209.91,397.33s0-.08,0-.08a2,2,0,0,1,.36,0c.28,0-.12-.79-.24-1a1.27,1.27,0,0,0-.2-.33,9.61,9.61,0,0,0-1.34-1.79h0a8,8,0,0,0-2.91-2h0a7.94,7.94,0,0,0-3-.58c-4.4,0-4.16,1.71-6.78,3.29a7.76,7.76,0,0,0,.16,3.65c.2.42,2.67,4.12,8.85,2.54a10.65,10.65,0,0,0,4.44-2.25,4.26,4.26,0,0,0,1-1.08C210.47,397.42,210.19,397.42,209.91,397.33Zm-.89-1.74a.69.69,0,1,1-.69-.71A.69.69,0,0,1,209,395.59Zm-6.47,4.28a1.92,1.92,0,0,1-.32-3.37c.77-.5,2-.54,3.56.75a3.38,3.38,0,0,0-3.28-.25,3.84,3.84,0,0,1,2.91.54,3.18,3.18,0,0,0-3.15.62,3.69,3.69,0,0,1,2.71-.29,3.16,3.16,0,0,0-2.71,1.42,4,4,0,0,1,2.91-1v.08C203.52,398.91,203.6,400.08,202.55,399.87Z" transform="translate(-107.94 -275.28)"/><path class="cls-16" d="M207.89,395.59a.4.4,0,0,0,.4.41.42.42,0,1,0-.4-.41Zm.28.08c-.08,0-.12,0-.12-.13a.13.13,0,0,1,.12-.12.18.18,0,0,1,.12.12A.13.13,0,0,1,208.17,395.67Z" transform="translate(-107.94 -275.28)"/><path class="cls-16" d="M601.63,468.17c-3.17-1.79-7.85-3.58-11.27-6.61h0c-.13,0-.51.41-.64.55a21.4,21.4,0,0,1-8.74,4h0c1.4.55,7.86,4.55,20.4,3.31A.65.65,0,0,0,601.63,468.17Z" transform="translate(-107.94 -275.28)"/><path class="cls-16" d="M588.84,429.47c2.53-6.2,9.37-7.58,14.82-8.13a.73.73,0,0,0,.12-1.37c-14.94-6.48-27.36-5.1-36.48,6.61h0C573.89,421.89,582.63,422.72,588.84,429.47Z" transform="translate(-107.94 -275.28)"/><path class="cls-16" d="M609.74,460.73c-2.66-3.58-8.62-13.36-2.66-23.41.25-.55-.13-1.1-.64-1-2.28.82-6.84,2.61-10,5.92l.38.82.12.14a14,14,0,0,1,1.4,4.82,11.32,11.32,0,0,1-1.4,5.37c-.25.42-.5,1-.76,1.38,2.28,2.62,6.21,5.37,12.92,6.89C609.74,462,610.12,461.28,609.74,460.73Z" transform="translate(-107.94 -275.28)"/><path class="cls-16" d="M566,458.53c1.4-2.07-.38-5.65-.88-7.44h0a61.75,61.75,0,0,1-2.66-16.66v-.83c-1.65,1.93-3.17,3.86-4.69,5.65-2.53,2.89-4.81,5-8.36,5.23-.25,0-.38.28-.25.55a3.31,3.31,0,0,0,1.64,1.38l-1.14.14c-.25,0-.38.41-.25.55,3.29,4.13,8,9.64,11.53,12.25.76.56,1.64,1.11,2.4,1.66A15.81,15.81,0,0,0,566,458.53Zm-7-11.85a2.48,2.48,0,0,1-2.41-2.47,2.52,2.52,0,0,1,2.41-2.62,2,2,0,0,1,1.26.41,2.48,2.48,0,0,1,1,2.07v.14A2.38,2.38,0,0,1,559.07,446.68Z" transform="translate(-107.94 -275.28)"/><path class="cls-17" d="M583.39,426.72A14.26,14.26,0,0,0,573,425.48c9.38,19.41-.38,27.95,7.35,39.11C588.84,447,579.08,439.94,583.39,426.72Z" transform="translate(-107.94 -275.28)"/><path class="cls-17" d="M597.07,448.2c-.13-2.62-4.05-10.47-5.45-12.81-2,7.3.13,15.29.13,23.14C594.16,456.19,597.2,451.64,597.07,448.2Z" transform="translate(-107.94 -275.28)"/><path class="cls-16" d="M559.07,442.69a1.52,1.52,0,1,0,1.39,1.52A1.48,1.48,0,0,0,559.07,442.69Zm-.38,1.52a.57.57,0,0,1-.51-.56.49.49,0,0,1,.51-.55c.25,0,.38.14.38.55S558.94,444.21,558.69,444.21Z" transform="translate(-107.94 -275.28)"/><path class="cls-16" d="M591.88,460.46h0c-.13.13-.26.27-.38.27Z" transform="translate(-107.94 -275.28)"/><path class="cls-18" d="M590.74,434a27.57,27.57,0,0,0-2.28-3h0a18.8,18.8,0,0,0-3.93-3.44c-3.8,12.26,5.32,20.11-2.66,37.19a21.25,21.25,0,0,0,8.74-4.82C590.74,451.09,588,442.41,590.74,434Z" transform="translate(-107.94 -275.28)"/><path class="cls-18" d="M571.86,425.89c-4.18,1.38-6.33,4.27-8,6.2-.63,10.74,3.42,21.2,3.8,22.58h0c1.14,4.55-1.65,5.79-3,7a29.61,29.61,0,0,0,7.35,3,22.81,22.81,0,0,0,7.22.55h.12C571.35,454,581.23,444.89,571.86,425.89Z" transform="translate(-107.94 -275.28)"/><path class="cls-16" d="M554.78,435c-2.16-1.19-5.37-2.38-7.72-4.4h0c-.08,0-.34.28-.43.37a15,15,0,0,1-6,2.66h0c1,.36,5.37,3,14,2.2A.43.43,0,0,0,554.78,435Z" transform="translate(-107.94 -275.28)"/><path class="cls-16" d="M546,409.21c1.74-4.13,6.42-5,10.15-5.41a.49.49,0,0,0,.09-.92c-10.24-4.31-18.74-3.39-25,4.4h0C535.79,404.17,541.77,404.72,546,409.21Z" transform="translate(-107.94 -275.28)"/><path class="cls-16" d="M560.34,430c-1.83-2.38-5.9-8.89-1.83-15.59.18-.36-.08-.73-.43-.64a18.3,18.3,0,0,0-6.85,3.95l.26.55.08.09a9,9,0,0,1,1,3.21,7.32,7.32,0,0,1-1,3.57c-.17.28-.34.64-.52.92,1.57,1.74,4.25,3.57,8.85,4.58C560.34,430.85,560.6,430.39,560.34,430Z" transform="translate(-107.94 -275.28)"/><path class="cls-16" d="M530.41,428.55c1-1.37-.26-3.76-.61-4.95h0A40.43,40.43,0,0,1,528,412.51V412c-1.13,1.28-2.17,2.57-3.21,3.76-1.73,1.92-3.29,3.3-5.72,3.48-.18,0-.26.19-.18.37a2.29,2.29,0,0,0,1.13.92l-.78.09a.24.24,0,0,0-.17.36c2.25,2.75,5.46,6.42,7.89,8.16.52.37,1.13.74,1.65,1.1A10.72,10.72,0,0,0,530.41,428.55Zm-4.77-7.88A1.67,1.67,0,0,1,524,419a1.7,1.7,0,0,1,1.65-1.74,1.43,1.43,0,0,1,.87.27,1.66,1.66,0,0,1,.69,1.38V419A1.6,1.6,0,0,1,525.64,420.67Z" transform="translate(-107.94 -275.28)"/><path class="cls-17" d="M542.29,407.38a10,10,0,0,0-7.11-.83c6.42,12.93-.26,18.61,5,26C546,420.85,539.34,416.18,542.29,407.38Z" transform="translate(-107.94 -275.28)"/><path class="cls-17" d="M551.66,421.68c-.09-1.74-2.77-7-3.73-8.53-1.39,4.86.09,10.18.09,15.4C549.67,427,551.75,424,551.66,421.68Z" transform="translate(-107.94 -275.28)"/><path class="cls-16" d="M525.64,418a1,1,0,1,0,1,1A1,1,0,0,0,525.64,418Zm-.26,1a.39.39,0,0,1-.35-.37.33.33,0,0,1,.35-.36c.17,0,.26.09.26.36S525.55,419,525.38,419Z" transform="translate(-107.94 -275.28)"/><path class="cls-16" d="M548.11,429.84h0c-.09.09-.18.18-.26.18Z" transform="translate(-107.94 -275.28)"/><path class="cls-18" d="M547.32,412.23a17.11,17.11,0,0,0-1.56-2h0a12.05,12.05,0,0,0-2.69-2.29c-2.6,8.15,3.65,13.38-1.82,24.75a14.59,14.59,0,0,0,6-3.21C547.32,423.6,545.42,417.83,547.32,412.23Z" transform="translate(-107.94 -275.28)"/><path class="cls-18" d="M534.4,406.83a11.68,11.68,0,0,0-5.46,4.12c-.44,7.15,2.34,14.12,2.6,15h0c.78,3-1.13,3.85-2.08,4.67a19.92,19.92,0,0,0,5,2,15.86,15.86,0,0,0,4.94.37h.09C534.05,425.53,540.82,419.48,534.4,406.83Z" transform="translate(-107.94 -275.28)"/><path class="cls-14" d="M300.19,520.11c2.15.54,3.34.9,4,1.52a1.9,1.9,0,0,0,1,.72c.8.11,1.95-.94,1.16-3.5A8.54,8.54,0,0,1,300.19,520.11Z" transform="translate(-107.94 -275.28)"/><path class="cls-14" d="M307.8,508.21a2.81,2.81,0,0,0-1.43.5c-1.08.54-2.8.61-5.9.76a2.52,2.52,0,0,0-2.32,1.84,9.13,9.13,0,0,1,2.71-.4c3.75,0,4.31,1.12,5.58,2C309.27,510.44,309.08,508.28,307.8,508.21Z" transform="translate(-107.94 -275.28)"/><path class="cls-14" d="M308,516.65c1.16-.94,1.87.32,2.95,1.62a.38.38,0,0,0,.6,0,5.74,5.74,0,0,0,0-6h0a.4.4,0,0,0-.64,0,10.69,10.69,0,0,1-.8,1c-.6.75-1.15,1.4-2.11,1.08A7.46,7.46,0,0,1,308,516.65Z" transform="translate(-107.94 -275.28)"/><path class="cls-15" d="M293.25,516.61a4.2,4.2,0,0,0,1,.94,11,11,0,0,0,4.38,2c6.1,1.37,8.53-1.84,8.73-2.2a6,6,0,0,0,.16-3.18c-2.59-1.37-2.35-2.85-6.7-2.85a8.79,8.79,0,0,0-2.91.51h0a8.1,8.1,0,0,0-2.87,1.73h0a8.89,8.89,0,0,0-1.31,1.55,1.26,1.26,0,0,0-.2.29c-.12.22-.52.9-.24.9a2,2,0,0,1,.36,0s0,.07,0,.07C293.41,516.43,293.13,516.43,293.25,516.61Zm2-2.38a.62.62,0,1,1-.67.61A.64.64,0,0,1,295.24,514.23Zm3.11,3v-.07a4.31,4.31,0,0,1,2.87.87,3.23,3.23,0,0,0-2.67-1.23,4,4,0,0,1,2.67.25,3.46,3.46,0,0,0-3.11-.54,4.26,4.26,0,0,1,2.87-.47,3.69,3.69,0,0,0-3.22.22c1.55-1.12,2.75-1.08,3.5-.65a1.58,1.58,0,0,1-.32,2.92C299.91,518.74,300,517.73,298.35,517.26Z" transform="translate(-107.94 -275.28)"/><path class="cls-16" d="M295.28,514.48a.37.37,0,1,0,0,.73.37.37,0,1,0,0-.73Zm0,.33s.08-.11.12-.11.12,0,.12.11,0,.11-.12.11A.13.13,0,0,1,295.28,514.81Z" transform="translate(-107.94 -275.28)"/><path class="cls-14" d="M309.86,490.92c2.65.71,4.11,1.19,4.9,2a2.27,2.27,0,0,0,1.22.95c1,.14,2.4-1.24,1.42-4.62A9.88,9.88,0,0,1,309.86,490.92Z" transform="translate(-107.94 -275.28)"/><path class="cls-14" d="M319.21,475.2a3.44,3.44,0,0,0-1.76.67c-1.32.71-3.43.81-7.24,1a3.17,3.17,0,0,0-2.84,2.43,10.43,10.43,0,0,1,3.33-.52c4.59,0,5.28,1.47,6.85,2.66C321,478.16,320.77,475.3,319.21,475.2Z" transform="translate(-107.94 -275.28)"/><path class="cls-14" d="M319.45,486.35c1.42-1.24,2.3.43,3.62,2.14a.44.44,0,0,0,.74-.05,8,8,0,0,0,0-7.86h0a.48.48,0,0,0-.79,0,12.42,12.42,0,0,1-1,1.29c-.74,1-1.42,1.86-2.6,1.43A10.39,10.39,0,0,1,319.45,486.35Z" transform="translate(-107.94 -275.28)"/><path class="cls-15" d="M301.35,486.3a5.41,5.41,0,0,0,1.27,1.24,13.29,13.29,0,0,0,5.39,2.57c7.48,1.81,10.46-2.43,10.71-2.91a8.46,8.46,0,0,0,.19-4.19c-3.17-1.81-2.88-3.76-8.21-3.76a10.09,10.09,0,0,0-3.57.67h0a9.94,9.94,0,0,0-3.53,2.28h0a11.56,11.56,0,0,0-1.61,2.05,1.66,1.66,0,0,0-.25.38c-.14.29-.63,1.19-.29,1.19a2.41,2.41,0,0,1,.44.05c.05,0,.05.1,0,.1C301.55,486.06,301.21,486.06,301.35,486.3Zm2.45-3.14a.81.81,0,1,1-.83.81A.81.81,0,0,1,303.8,483.16Zm3.81,4v-.1a5.09,5.09,0,0,1,3.53,1.14,3.93,3.93,0,0,0-3.28-1.62,4.65,4.65,0,0,1,3.28.34,4,4,0,0,0-3.82-.72,4.89,4.89,0,0,1,3.52-.62,4.31,4.31,0,0,0-4,.29c1.91-1.48,3.38-1.43,4.31-.86a2.15,2.15,0,0,1-.4,3.86C309.52,489.11,309.62,487.78,307.61,487.16Z" transform="translate(-107.94 -275.28)"/><path class="cls-16" d="M303.85,483.49a.48.48,0,1,0,.49.48A.49.49,0,0,0,303.85,483.49Zm0,.43c0-.05.1-.14.14-.14a.15.15,0,0,1,.15.14c0,.09-.05.14-.15.14A.15.15,0,0,1,303.85,483.92Z" transform="translate(-107.94 -275.28)"/><path class="cls-14" d="M321.63,507c-.6,1.91.27,2.69.87,2.61a1.36,1.36,0,0,0,.75-.54,7.13,7.13,0,0,1,3-1.13A6.45,6.45,0,0,1,321.63,507Z" transform="translate(-107.94 -275.28)"/><path class="cls-14" d="M321.54,502.52a5.19,5.19,0,0,1,4.2-1.51,6.78,6.78,0,0,1,2,.3,1.91,1.91,0,0,0-1.74-1.38c-2.34-.1-3.63-.16-4.44-.56a2.14,2.14,0,0,0-1.08-.38C319.56,499,319.41,500.66,321.54,502.52Z" transform="translate(-107.94 -275.28)"/><path class="cls-14" d="M320.37,503.58c-.72.24-1.14-.25-1.59-.81a8.3,8.3,0,0,1-.6-.73.3.3,0,0,0-.48,0h0a4.24,4.24,0,0,0,0,4.45.28.28,0,0,0,.45,0c.81-1,1.35-1.91,2.22-1.21A5.51,5.51,0,0,1,320.37,503.58Z" transform="translate(-107.94 -275.28)"/><path class="cls-15" d="M331.14,505.09s0-.06,0-.06l.27,0c.21,0-.09-.51-.18-.67a1.23,1.23,0,0,0-.15-.22,6.83,6.83,0,0,0-1-1.16h0a6.11,6.11,0,0,0-2.16-1.29h0a6.54,6.54,0,0,0-2.19-.38c-3.27,0-3.09,1.11-5,2.13a4.5,4.5,0,0,0,.12,2.38c.15.27,2,2.67,6.57,1.64a8.4,8.4,0,0,0,3.3-1.45,3.11,3.11,0,0,0,.78-.71C331.56,505.14,331.35,505.14,331.14,505.09Zm-.66-1.14a.48.48,0,0,1-.51.46.48.48,0,0,1-.51-.46.51.51,0,0,1,1,0Zm-4.8,2.78a1.18,1.18,0,0,1-.24-2.18c.57-.33,1.47-.35,2.64.48a2.82,2.82,0,0,0-2.43-.16,3.21,3.21,0,0,1,2.16.35,2.62,2.62,0,0,0-2.34.4,3,3,0,0,1,2-.18,2.44,2.44,0,0,0-2,.91,3.3,3.3,0,0,1,2.16-.64v.05C326.4,506.11,326.46,506.87,325.68,506.73Z" transform="translate(-107.94 -275.28)"/><path class="cls-16" d="M329.64,504a.29.29,0,0,0,.3.27.28.28,0,0,0,.3-.27.3.3,0,0,0-.6,0Zm.21.06c-.06,0-.09,0-.09-.08a.1.1,0,0,1,.09-.09.14.14,0,0,1,.09.09A.1.1,0,0,1,329.85,504Z" transform="translate(-107.94 -275.28)"/><path class="cls-14" d="M675.79,416.45c-.6,1.91.27,2.69.87,2.61a1.36,1.36,0,0,0,.75-.54,7.27,7.27,0,0,1,3-1.13A6.45,6.45,0,0,1,675.79,416.45Z" transform="translate(-107.94 -275.28)"/><path class="cls-14" d="M675.7,412a5.19,5.19,0,0,1,4.2-1.51,6.85,6.85,0,0,1,2.05.3,1.91,1.91,0,0,0-1.75-1.38c-2.34-.1-3.63-.16-4.44-.56a2.14,2.14,0,0,0-1.08-.38C673.72,408.54,673.57,410.16,675.7,412Z" transform="translate(-107.94 -275.28)"/><path class="cls-14" d="M674.53,413.08c-.72.24-1.14-.25-1.59-.81a8.3,8.3,0,0,1-.6-.73.3.3,0,0,0-.48,0h0a4.24,4.24,0,0,0,0,4.45.29.29,0,0,0,.45,0c.81-1,1.35-1.92,2.22-1.22A5.51,5.51,0,0,1,674.53,413.08Z" transform="translate(-107.94 -275.28)"/><path class="cls-15" d="M685.31,414.59s0-.06,0-.06l.27,0c.21,0-.09-.52-.18-.68a.91.91,0,0,0-.15-.21,6.13,6.13,0,0,0-1-1.16h0a6,6,0,0,0-2.16-1.3h0a6.87,6.87,0,0,0-2.2-.38c-3.27,0-3.09,1.11-5,2.13a4.5,4.5,0,0,0,.12,2.38c.15.27,2,2.67,6.58,1.64a8.4,8.4,0,0,0,3.3-1.45,2.92,2.92,0,0,0,.78-.71C685.73,414.64,685.52,414.64,685.31,414.59Zm-.66-1.14a.48.48,0,0,1-.51.46.48.48,0,0,1-.51-.46.51.51,0,0,1,1,0Zm-4.81,2.78a1.18,1.18,0,0,1-.24-2.18c.57-.33,1.48-.35,2.65.48a2.85,2.85,0,0,0-2.44-.16,3.24,3.24,0,0,1,2.17.35,2.6,2.6,0,0,0-2.35.41,3,3,0,0,1,2-.19,2.45,2.45,0,0,0-2,.91,3.33,3.33,0,0,1,2.17-.64v.05C680.56,415.61,680.62,416.37,679.84,416.23Z" transform="translate(-107.94 -275.28)"/><path class="cls-16" d="M683.81,413.45a.3.3,0,0,0,.6,0,.3.3,0,0,0-.6,0Zm.21.06c-.06,0-.09,0-.09-.08a.09.09,0,0,1,.09-.08s.09,0,.09.08A.1.1,0,0,1,684,413.51Z" transform="translate(-107.94 -275.28)"/><path class="cls-14" d="M685.63,438.48c-.94,3.66.43,5.15,1.38,5a2.31,2.31,0,0,0,1.18-1c.75-.88,2.17-1.39,4.73-2.17A8.79,8.79,0,0,1,685.63,438.48Z" transform="translate(-107.94 -275.28)"/><path class="cls-14" d="M685.49,430c1.52-1.29,2.18-2.88,6.62-2.88a9.06,9.06,0,0,1,3.22.56c-.38-1.13-1-2.52-2.74-2.63-3.69-.2-5.73-.31-7-1.08a3.1,3.1,0,0,0-1.71-.72C682.37,423.37,682.13,426.47,685.49,430Z" transform="translate(-107.94 -275.28)"/><path class="cls-14" d="M683.65,432c-1.14.47-1.8-.46-2.51-1.54a13.67,13.67,0,0,1-.94-1.4.43.43,0,0,0-.76,0h0a9.59,9.59,0,0,0,0,8.51.4.4,0,0,0,.71,0c1.27-1.85,2.13-3.66,3.5-2.32A13,13,0,0,1,683.65,432Z" transform="translate(-107.94 -275.28)"/><path class="cls-15" d="M700.63,434.92s0-.1,0-.1a2.28,2.28,0,0,1,.42-.05c.33,0-.14-1-.28-1.29a1.8,1.8,0,0,0-.24-.42,11.71,11.71,0,0,0-1.56-2.21h0a9.52,9.52,0,0,0-3.4-2.48h0a9,9,0,0,0-3.46-.72c-5.15,0-4.87,2.12-7.94,4.07a10.33,10.33,0,0,0,.19,4.54c.23.52,3.12,5.1,10.36,3.15a12.3,12.3,0,0,0,5.2-2.79,5.68,5.68,0,0,0,1.23-1.34C701.29,435,701,435,700.63,434.92Zm-1-2.16a.81.81,0,1,1-.81-.88A.83.83,0,0,1,699.59,432.76ZM692,438.07c-1.37-.31-2.08-3-.38-4.18.9-.62,2.32-.67,4.16.93a3.72,3.72,0,0,0-3.83-.31,4.29,4.29,0,0,1,3.41.67,3.56,3.56,0,0,0-3.69.77,4,4,0,0,1,3.17-.36,3.67,3.67,0,0,0-3.17,1.75,4.57,4.57,0,0,1,3.4-1.23v.1C693.15,436.88,693.25,438.32,692,438.07Z" transform="translate(-107.94 -275.28)"/><path class="cls-16" d="M698.26,432.76a.48.48,0,1,0,.48-.52A.5.5,0,0,0,698.26,432.76Zm.33.1c-.09,0-.14-.05-.14-.16a.16.16,0,0,1,.14-.15.23.23,0,0,1,.15.15A.16.16,0,0,1,698.59,432.86Z" transform="translate(-107.94 -275.28)"/><path class="cls-14" d="M715.18,441.45a7.42,7.42,0,0,1,3,1.13,1.35,1.35,0,0,0,.76.54c.6.09,1.47-.7.87-2.61A6.48,6.48,0,0,1,715.18,441.45Z" transform="translate(-107.94 -275.28)"/><path class="cls-14" d="M720.92,432.55a2.24,2.24,0,0,0-1.08.38c-.81.4-2.11.46-4.45.57a1.89,1.89,0,0,0-1.74,1.37,6.79,6.79,0,0,1,2-.29,5.19,5.19,0,0,1,4.21,1.51C722,434.22,721.88,432.61,720.92,432.55Z" transform="translate(-107.94 -275.28)"/><path class="cls-14" d="M721.07,438.86c.87-.7,1.41.25,2.22,1.22a.29.29,0,0,0,.45,0,4.24,4.24,0,0,0,0-4.45h0a.3.3,0,0,0-.48,0,7.06,7.06,0,0,1-.6.73c-.45.56-.87,1.05-1.59.81A5.51,5.51,0,0,1,721.07,438.86Z" transform="translate(-107.94 -275.28)"/><path class="cls-15" d="M710,438.84a3.19,3.19,0,0,0,.78.7A8.4,8.4,0,0,0,714,441c4.59,1,6.43-1.37,6.58-1.64a4.47,4.47,0,0,0,.12-2.37c-2-1-1.77-2.14-5-2.14a6.81,6.81,0,0,0-2.19.38h0a6.12,6.12,0,0,0-2.16,1.3h0a6.13,6.13,0,0,0-1,1.16.91.91,0,0,0-.15.21c-.09.16-.39.68-.18.68l.27,0s0,.06,0,.06C710.08,438.7,709.87,438.7,710,438.84Zm1.5-1.78a.46.46,0,1,1-.51.45A.48.48,0,0,1,711.46,437.06Zm2.34,2.26v-.05a3.3,3.3,0,0,1,2.16.64,2.44,2.44,0,0,0-2-.91,3,3,0,0,1,2,.19,2.61,2.61,0,0,0-2.34-.41,3.21,3.21,0,0,1,2.16-.35,2.82,2.82,0,0,0-2.43.16c1.17-.83,2.07-.81,2.64-.48a1.18,1.18,0,0,1-.24,2.18C715,440.43,715,439.67,713.8,439.32Z" transform="translate(-107.94 -275.28)"/><path class="cls-16" d="M711.49,437.25a.27.27,0,1,0,.3.26A.28.28,0,0,0,711.49,437.25Zm0,.24s.06-.08.09-.08a.09.09,0,0,1,.09.08c0,.05,0,.08-.09.08A.1.1,0,0,1,711.49,437.49Z" transform="translate(-107.94 -275.28)"/><path class="cls-14" d="M705.28,420.55c2.56.77,4,1.29,4.73,2.16a2.27,2.27,0,0,0,1.18,1c.95.16,2.32-1.34,1.38-5A8.76,8.76,0,0,1,705.28,420.55Z" transform="translate(-107.94 -275.28)"/><path class="cls-14" d="M714.32,403.53a3.11,3.11,0,0,0-1.71.73c-1.27.77-3.31.87-7,1.08-1.7.1-2.36,1.49-2.74,2.63a9.05,9.05,0,0,1,3.22-.57c4.44,0,5.1,1.6,6.62,2.89C716.07,406.73,715.83,403.64,714.32,403.53Z" transform="translate(-107.94 -275.28)"/><path class="cls-14" d="M714.55,415.6c1.37-1.34,2.22.46,3.5,2.32a.4.4,0,0,0,.71-.05,9.59,9.59,0,0,0,0-8.51h0a.43.43,0,0,0-.76,0,12.52,12.52,0,0,1-.94,1.39c-.71,1.08-1.37,2-2.51,1.55A13,13,0,0,1,714.55,415.6Z" transform="translate(-107.94 -275.28)"/><path class="cls-15" d="M697.05,415.55a5.68,5.68,0,0,0,1.23,1.34,12.3,12.3,0,0,0,5.2,2.78c7.24,2,10.13-2.63,10.36-3.14A10.35,10.35,0,0,0,714,412c-3.07-2-2.79-4.07-7.94-4.07a9,9,0,0,0-3.46.72h0a9.5,9.5,0,0,0-3.4,2.47h0a11.47,11.47,0,0,0-1.56,2.22,1.75,1.75,0,0,0-.24.41c-.14.31-.61,1.29-.28,1.29a2.28,2.28,0,0,1,.42.05s0,.11,0,.11C697.24,415.29,696.91,415.29,697.05,415.55Zm2.37-3.41a.88.88,0,1,1-.81.88A.84.84,0,0,1,699.42,412.14Zm3.69,4.33v-.1a4.54,4.54,0,0,1,3.4,1.24,3.65,3.65,0,0,0-3.17-1.75,4,4,0,0,1,3.17.36,3.59,3.59,0,0,0-3.69-.78,4.29,4.29,0,0,1,3.41-.67,3.75,3.75,0,0,0-3.83.31c1.84-1.6,3.26-1.54,4.16-.93,1.7,1.19,1,3.87-.38,4.18S705.05,417.14,703.11,416.47Z" transform="translate(-107.94 -275.28)"/><path class="cls-16" d="M699.46,412.5a.52.52,0,1,0,.48.52A.5.5,0,0,0,699.46,412.5Zm0,.47c0-.05.1-.16.15-.16a.17.17,0,0,1,.14.16c0,.1,0,.15-.14.15A.16.16,0,0,1,699.46,413Z" transform="translate(-107.94 -275.28)"/></g></svg>