<svg xmlns="http://www.w3.org/2000/svg" viewBox="0 0 553.03 183.45"><defs><style>.cls-1{fill:#fff;opacity:0.18;}.cls-2{fill:#88bd27;}.cls-3{fill:#ffcf02;}.cls-4{fill:#3d85c6;}.cls-5{fill:#1b2c4c;}.cls-6{fill:#243362;}.cls-7{fill:none;}.cls-7,.cls-8{stroke:#e30613;stroke-miterlimit:10;stroke-width:0.5px;}.cls-8{fill:#e30613;}.cls-9{fill:#ef7a4e;}.cls-10{fill:#f59d32;}.cls-11{fill:#010101;}</style></defs><title>zeekleingoed</title><g id="Laag_7" data-name="Laag 7"><g id="bubbels"><ellipse class="cls-1" cx="122.1" cy="163.08" rx="1.18" ry="0.88"/><ellipse class="cls-1" cx="277.7" cy="161.33" rx="1.18" ry="0.88"/><ellipse class="cls-1" cx="24.75" cy="159.57" rx="1.18" ry="0.88"/><ellipse class="cls-1" cx="44.96" cy="145.6" rx="1.18" ry="0.88"/><ellipse class="cls-1" cx="73.35" cy="171.39" rx="1.18" ry="0.88"/><ellipse class="cls-1" cx="85.52" cy="151.27" rx="1.18" ry="0.88"/><ellipse class="cls-1" cx="42.55" cy="174.97" rx="1.18" ry="0.88"/><ellipse class="cls-1" cx="52.66" cy="161.33" rx="1.18" ry="0.88"/><ellipse class="cls-1" cx="12.24" cy="176.73" rx="1.18" ry="0.88"/><ellipse class="cls-1" cx="9.83" cy="147.35" rx="1.18" ry="0.88"/><ellipse class="cls-1" cx="68.05" cy="141.66" rx="1.18" ry="0.88"/><ellipse class="cls-1" cx="249.42" cy="171.39" rx="1.18" ry="0.88"/><ellipse class="cls-1" cx="106.55" cy="177.61" rx="1.18" ry="0.88"/><ellipse class="cls-1" cx="92" cy="163.08" rx="1.18" ry="0.88"/><ellipse class="cls-1" cx="141.19" cy="174.97" rx="1.18" ry="0.88"/><ellipse class="cls-1" cx="219" cy="163.7" rx="1.18" ry="0.88"/><ellipse class="cls-1" cx="195.18" cy="175.85" rx="1.18" ry="0.88"/><ellipse class="cls-1" cx="537.65" cy="164.58" rx="1.18" ry="0.88"/><ellipse class="cls-1" cx="495.32" cy="169.4" rx="1.18" ry="0.88"/><ellipse class="cls-1" cx="480.86" cy="152.15" rx="1.18" ry="0.88"/><ellipse class="cls-1" cx="461.87" cy="169.4" rx="1.18" ry="0.88"/><ellipse class="cls-1" cx="450.12" cy="153.03" rx="1.18" ry="0.88"/><ellipse class="cls-1" cx="518.82" cy="162.21" rx="1.18" ry="0.88"/><ellipse class="cls-1" cx="324.47" cy="181.13" rx="1.18" ry="0.88"/><ellipse class="cls-1" cx="300.77" cy="169.4" rx="1.18" ry="0.88"/><ellipse class="cls-1" cx="284.07" cy="143.51" rx="1.18" ry="0.88"/><ellipse class="cls-1" cx="248.24" cy="151.27" rx="1.18" ry="0.88"/><ellipse class="cls-1" cx="366.96" cy="177.61" rx="1.18" ry="0.88"/><ellipse class="cls-1" cx="423" cy="163.08" rx="1.18" ry="0.88"/><ellipse class="cls-1" cx="401.31" cy="175.85" rx="1.18" ry="0.88"/><ellipse class="cls-1" cx="384.13" cy="165.72" rx="1.18" ry="0.88"/><ellipse class="cls-1" cx="341.64" cy="163.96" rx="1.18" ry="0.88"/><ellipse class="cls-1" cx="309.73" cy="152.15" rx="1.18" ry="0.88"/><ellipse class="cls-1" cx="281.71" cy="178.01" rx="1.18" ry="0.88"/><ellipse class="cls-1" cx="168.2" cy="172.27" rx="1.18" ry="0.88"/><ellipse class="cls-1" cx="108.91" cy="91.76" rx="1.18" ry="0.88"/><ellipse class="cls-1" cx="130.38" cy="31.32" rx="1.18" ry="0.88"/><ellipse class="cls-1" cx="111.27" cy="45.77" rx="1.18" ry="0.88"/><ellipse class="cls-1" cx="112.45" cy="18.8" rx="1.18" ry="0.88"/><ellipse class="cls-1" cx="138.83" cy="99.09" rx="1.18" ry="0.88"/><ellipse class="cls-1" cx="128.02" cy="136.04" rx="1.18" ry="0.88"/><ellipse class="cls-1" cx="123.28" cy="58.54" rx="1.18" ry="0.88"/><ellipse class="cls-1" cx="120.18" cy="99.96" rx="1.18" ry="0.88"/><ellipse class="cls-1" cx="126.84" cy="34.84" rx="1.18" ry="0.88"/><ellipse class="cls-1" cx="14.6" cy="106" rx="1.18" ry="0.88"/><ellipse class="cls-1" cx="48.79" cy="114.18" rx="1.18" ry="0.88"/><ellipse class="cls-1" cx="119.79" cy="86.06" rx="1.18" ry="0.88"/><ellipse class="cls-1" cx="107.73" cy="109.61" rx="1.18" ry="0.88"/><ellipse class="cls-1" cx="113.63" cy="0.88" rx="1.18" ry="0.88"/><ellipse class="cls-1" cx="100.95" cy="116.93" rx="1.18" ry="0.88"/><ellipse class="cls-1" cx="130.38" cy="11.16" rx="1.18" ry="0.88"/><ellipse class="cls-1" cx="140.01" cy="129.67" rx="1.18" ry="0.88"/><ellipse class="cls-1" cx="107.73" cy="122.19" rx="1.18" ry="0.88"/><ellipse class="cls-1" cx="110.09" cy="72.74" rx="1.18" ry="0.88"/><ellipse class="cls-1" cx="118.61" cy="128.79" rx="1.18" ry="0.88"/><ellipse class="cls-1" cx="129.2" cy="108.73" rx="1.18" ry="0.88"/><ellipse class="cls-1" cx="129.2" cy="123.07" rx="1.18" ry="0.88"/><ellipse class="cls-1" cx="142.37" cy="114.18" rx="1.18" ry="0.88"/><ellipse class="cls-1" cx="118.61" cy="117.81" rx="1.18" ry="0.88"/></g></g><g id="boot"><path class="cls-2" d="M350.67,625.22" transform="translate(-12.32 -30.1)"/><path class="cls-3" d="M398.3,117.42" transform="translate(-12.32 -30.1)"/><path class="cls-3" d="M398.13,125.63" transform="translate(-12.32 -30.1)"/></g><g id="zee"><path class="cls-4" d="M211.24-11.46" transform="translate(-12.32 -30.1)"/></g><g id="Laag_1" data-name="Laag 1"><g id="Laag_2" data-name="Laag 2"><path class="cls-5" d="M12.32,173.25s66.87-34.07,124,4.1C195.77,217,203,191.77,223.2,183.12c30.46-13,34.52-13.62,44.91-15.64,24.73-4.81,45.28-8.48,74.13,6.29,42.54,21.75,117.83,1.23,121.38-3.88,0,0,29.4-21.09,64.94-4.87s36.79,11.27,36.79,11.27v37.26h-553Z" transform="translate(-12.32 -30.1)"/><path class="cls-6" d="M565.35,173.25s-56.89-23.35-124,4.1c-69.95,28.6-66.63,14.42-86.84,5.77-30.46-13-34.52-13.62-44.91-15.64-24.73-4.81-41.75-3.63-74.13,6.29-47.54,14.55-102.6-1.54-102.6-1.54s-36-15.16-71.59,1.06-48.92,3-48.92,3v37.26h553Z" transform="translate(-12.32 -30.1)"/></g><path class="cls-7" d="M216.14,186.84" transform="translate(-12.32 -30.1)"/><path class="cls-8" d="M217.26,186.81" transform="translate(-12.32 -30.1)"/></g><g id="koraal1"><path id="koraal_groen2" data-name="koraal groen2" class="cls-2" d="M504.31,161.34a38.71,38.71,0,0,1-6.06,17.31l1.29.16s.55-.18,3.8-6.58a59,59,0,0,0,9-3.4s6.59,1.83,11-1.89,5.27-3.94,6.26-4.14,1.86-1.2.22-1-6.52,4.48-9.62,5.37-4.17.7-5.09.35,13.22-8.39,13.22-8.39,10.86.57,15.31-4.94-4.8,4-12.69,3.75c0,0-1.06-.15.34-.93S540,150.4,547,147.21s-2.5-.05-4.32.8,4.36-7.48,4.78-7.95-.81-2.84-2.18-.25-6.71,10.16-7.87,10.93-7.11,5.18-8.36,5.91,2.78-4.09,2.78-4.09,2.49-2.51,4.83-9.71c0,0,1-6.63,3.52-7.36s10.83-3.58,11.38-10c0,0-.6-1.87-2.09-.25s-2.13,7.5-7.65,8c0,0,3.44-4.21,3.34-6.84s-2.58-.79-2.44-.24-5.25,9.75-6.11,9.87-1.73-4.27.94-12.94c0,0-1.3-1.36-2.4-.28s-1.14,14-.9,14.75c.27.94-5.79-6-3.81-9.74,0,0-1.27-2.06-1.81-.15s.38,10.18,5.22,15c0,0-2.79,12-12.87,18.81,0,0,.83-5.4,2.54-8s3.82-4,5.17-10.47c0,0-.91-2.15-2.17-.18s-1.14,6.85-6.3,12.8c0,0-2.66,7.09-2.8,8.27S507,169.44,507,169.44s3.29-3.14,3.86-5.32,2.63-10.41,2.63-10.41a71.43,71.43,0,0,1,8.61-9.78c4.28-3.8-1.53-.25-1.53-.25s-6.41,4.89-6.63,6.41,1-4.61,3.42-10.17c0,0,4.27-1.76,5.58-7.95s4.15-13.62,5.46-14.8a65,65,0,0,1,6-4s2.34-2.26-.66-1.06-3.21,3.22-4.34,3.08.53-8.47,1.06-9-1.21-1.76-1.75-.2-2.27,13.69-5.27,16.94-.84,10.9-5.74,14.13a43.35,43.35,0,0,1,1.69-20.39s-.58-2.75-2.15-.32-1.79,9.45-1.79,9.45a9.68,9.68,0,0,1-3.88-9.63c1.16-6.35-2.15,1.3-2.3,1.5s-.24,6.1,5.19,10.83c0,0,1.59,10.9-.16,14.65s-2.6,6.32-3.68,12.89-3.67,11.35-5,12.25,1.64-5.24,1.51-7.09-4-7.81-2.25-9.29,9.15-8.37,6.25-15.55-2.19,2.35-2.19,2.35,2.15,2.3-3.46,10.38c0,0-.72-.58,1.31-9.65,0,0,.6-1.9-1.12-4.71,0,0,3.39-4,3.54-6.71s-2.6-.73-2.08-.17-1.75,4.3-1.75,4.3-1.6-10-4.75-12,5.8-12.9,4.56-15.9-2.27-1.07-2.39.57a29.39,29.39,0,0,1-1,4.56s-2.43-6.16-2.61-6.92-2.53-.93-1.86.35,2.94,6.62,2.83,7.58-1.25,7.1-1.25,7.1.06,1.32-1-.17-4.21-5.06-4.5-10.18c0,0-2.16-1.85-1.79.42s1.24,7.85,3.95,9.94,6,8,6.05,8.47-1.63,0-3.73-.89A73.73,73.73,0,0,1,491,121s1-4.1-1.07-6.63-2.94-.17-2.42.17,2.6,5,1.4,4.28S483.4,112,483.4,112s-3.09-1.9-1.71.43c0,0,5.24,9.06,10.39,11.32,0,0,2.36,1-.28.54s-6-.36-7.21-1a9.41,9.41,0,0,1-2-1.43s-2.3-1.24-1.26.3a6,6,0,0,0,3.42,2.75c1.14.24,8.14.21,9.52.54s5.39,2.35,6.77,2.68,2.5,6.29,2.5,6.29,1.26,5,.61,6.41-3-3-3-3-1.63-.76-1.74.54,3.47,5,4.07,5.33-1.8,12.51,0,14.67" transform="translate(-12.32 -30.1)"/><path id="koraal_groen1" data-name="koraal groen1" class="cls-2" d="M486.22,162.37a42.87,42.87,0,0,0,8.58,14.48l-1,.25s-.46-.1-4.42-5.37a49.07,49.07,0,0,1-7.7-2.17s-4.69,2.17-9-.67-5-2.95-5.78-3-1.71-.88-.4-.87,6.05,3.32,8.66,3.81,3.38.24,4-.15-12.12-6.11-12.12-6.11-8.29,1.45-13-2.94,4.6,3,10.67,2.14c0,0,.79-.23-.47-.78s-8.2-4.94-14.38-7.1,1.92-.26,3.52.32-5.05-6.1-5.48-6.47,0-2.54,1.63-.42,7.47,8.23,8.55,8.8,6.67,3.86,7.8,4.39-3.07-3.3-3.07-3.3-2.49-2-5.92-8c0,0-2.22-5.67-4.38-6.08s-9.19-2.15-11.06-7.71c0,0,.05-1.68,1.56-.4s3.33,6.32,7.71,6.22c0,0-3.61-3.34-4.12-5.64s1.82-.91,1.84-.42,6.24,8,6.94,8,.39-3.85-3.63-11.13c0,0,.71-1.3,1.8-.46s4,12,4,12.72,3.12-5.75.77-8.79c0,0,.52-1.9,1.36-.29s2,8.87-.67,13.51c0,0,4.85,10.19,14.18,15.19,0,0-1.85-4.62-3.77-6.74s-3.86-3.17-6.34-8.62c0,0,.22-2,1.64-.35s2.41,5.84,7.74,10.55c0,0,3.65,5.92,4,6.93s9.36,3.95,9.36,3.95-3.26-2.43-4.19-4.28-4.37-8.8-4.37-8.8a75.9,75.9,0,0,0-8.85-7.73c-4.17-2.92,1.13-.35,1.13-.35s6.06,3.68,6.57,5-1.79-3.91-4.93-8.53c0,0-3.7-1.14-6.11-6.4s-6.26-11.45-7.54-12.36a62.27,62.27,0,0,0-5.51-3s-2.32-1.76.27-1,3.21,2.51,4.06,2.29-2.31-7.3-2.83-7.69.54-1.63,1.3-.33,4.83,11.68,7.89,14.23,3.08,9.39,7.6,11.76a45.56,45.56,0,0,0-5.87-17.54s-.17-2.44,1.59-.47,3.5,8,3.5,8,3.17-3.28.86-8.69,1.95.94,2.11,1.1a11.86,11.86,0,0,1-1.59,9.85s1.21,9.6,3.4,12.69a46.55,46.55,0,0,1,5.74,10.87c2.3,5.6,5.38,9.52,6.63,10.18s-2.44-4.4-2.75-6,1.38-7.12-.34-8.25-9-6.46-8.32-12.95,2.21,1.85,2.21,1.85-1.14,2.18,5,8.7c0,0,.43-.56-3.17-8.25a5.91,5.91,0,0,1-.19-4.19s-3.54-3.21-4.24-5.51,1.85-.86,1.57-.33,2.32,3.58,2.32,3.58-1-8.83,1-10.87-7.38-10.68-7.09-13.39,1.52-1.12,2,.29a31.47,31.47,0,0,0,1.81,3.87s.5-5.56.47-6.24,1.75-1,1.52.14-.8,6-.49,6.82,2.56,6.06,2.56,6.06.25,1.15.72-.24a15.56,15.56,0,0,0,1.21-9.22s1.26-1.8,1.48.2.8,6.92-.83,9-2.86,7.42-2.79,7.88,1.27-.11,2.69-1.1a46.58,46.58,0,0,0,4.37-4.12s-1.72-3.47-.65-5.84,2.24-.41,1.91-.07-.88,4.6-.12,3.83,2.71-6.38,2.71-6.38,2-1.93,1.42.22c0,0-2,8.32-5.52,10.73,0,0-1.61,1,.34.44s4.55-.83,5.35-1.51a5.86,5.86,0,0,0,1.23-1.42s1.5-1.28,1.05.16a4,4,0,0,1-2,2.68c-.83.31-6.26.9-7.26,1.31s-3.65,2.5-4.64,2.92-.53,5.67-.53,5.67.13,4.4,1,5.61,1.62-2.84,1.62-2.84,1.1-.8,1.47.32-1.57,4.61-2,5,4.19,10.7,3.25,12.73" transform="translate(-12.32 -30.1)"/><path id="koraal_groen2-2" data-name="koraal groen2" class="cls-2" d="M101.13,175.13a36.6,36.6,0,0,1-1.84,15.77h1s.39-.21,1.86-6.15a39.18,39.18,0,0,0,6.35-3.9s5.38.93,8.19-2.78,3.42-4,4.16-4.27,1.23-1.24,0-.92-4.3,4.59-6.55,5.69-3.1,1-3.87.82,8.83-8.69,8.83-8.69,8.47-.62,11-5.9-3,3.95-9.17,4.59c0,0-.84,0,.1-.86s5.63-6.64,10.55-10.16-1.93.21-3.2,1.15,2.15-7,2.39-7.45-1.09-2.4-1.72,0-3.52,9.58-4.29,10.38-4.64,5.26-5.48,6,1.47-3.87,1.47-3.87,1.52-2.45,2.15-9c0,0-.35-5.9,1.51-6.81s7.77-4.24,7.14-9.95c0,0-.78-1.57-1.66,0s-.42,6.78-4.6,7.74c0,0,2-4,1.46-6.33s-2.12-.42-1.92,0-2.46,9.06-3.11,9.25-2-3.55-1.38-11.41c0,0-1.23-1-1.9,0s1.4,12.34,1.71,13-5.45-4.69-4.53-8.13c0,0-1.31-1.68-1.42.05s2,8.87,6.49,12.62c0,0-.19,10.82-6.85,17.79,0,0-.25-4.81.65-7.28s2.28-3.94,2.27-9.69c0,0-1-1.79-1.71.06s.25,6.11-2.76,11.85c0,0-.89,6.48-.81,7.53s-7.16,6-7.16,6,2-3.08,2.12-5.06.32-9.38.32-9.38a58.29,58.29,0,0,1,5-9.44c2.69-3.76-1.22-.06-1.22-.06s-4.14,4.94-4.06,6.29,0-4.13,1-9.25c0,0,3-2,3-7.53s1-12.34,1.79-13.51a47.66,47.66,0,0,1,3.93-4.13s1.44-2.22-.68-.87-2,3.15-2.84,3.15-1-7.46-.65-8-1.22-1.42-1.38,0,.48,12.22-1.31,15.36,1.14,9.63-2.11,13a43.62,43.62,0,0,1-2-18s-.9-2.35-1.71-.07.16,8.46.16,8.46a9.52,9.52,0,0,1-4.56-8c-.15-5.68-1.45,1.35-1.53,1.54a13.92,13.92,0,0,0,5.77,8.94s3,9.38,2.28,12.84-1,5.8-.74,11.66-1,10.3-1.87,11.23.41-4.75,0-6.36-4.39-6.41-3.25-7.9,5.69-8.26,2.28-14.25-1.3,2.29-1.3,2.29,2,1.78-1,9.44c0,0-.65-.44-.57-8.58a6.23,6.23,0,0,0-1.63-4s2-3.89,1.63-6.23-2.12-.37-1.63.06-.64,4-.64,4-2.88-8.61-5.64-10.05,2.37-11.89.92-14.38-1.93-.7-1.75.74a28.34,28.34,0,0,1,0,4.1s-2.88-5.14-3.14-5.79-2.11-.55-1.39.5,3.36,5.49,3.43,6.34.19,6.34.19,6.34.27,1.15-.79,0-4.08-4-5.13-8.44c0,0-2-1.4-1.31.55s2.23,6.74,4.67,8.29,5.92,6.34,6.05,6.79-1.25.2-3-.4a60.55,60.55,0,0,1-5.92-2.85s.13-3.69-1.91-5.69-2.3.15-1.84.4,2.83,4.15,1.78,3.6-5.33-5.4-5.33-5.4-2.7-1.34-1.25.55c0,0,5.53,7.39,9.87,8.84,0,0,2,.6-.13.5s-4.67.3-5.73-.15a7.92,7.92,0,0,1-1.77-1.05s-2-.85-.92.4a5.23,5.23,0,0,0,3.09,2c.92.1,6.31-.65,7.43-.5s4.54,1.5,5.66,1.65,3,5.24,3,5.24,1.78,4.2,1.51,5.55-2.76-2.3-2.76-2.3-1.38-.5-1.25.65,3.49,4,4,4.24.66,11.13,2.44,12.83" transform="translate(-12.32 -30.1)"/><path id="koraal_groen1-2" data-name="koraal groen1" class="cls-2" d="M67.83,165.37a36.7,36.7,0,0,0,1.85,15.77h-1s-.39-.21-1.86-6.14a39.87,39.87,0,0,1-6.36-3.9s-5.37.93-8.19-2.78-3.42-4-4.15-4.27-1.24-1.24,0-.92,4.29,4.59,6.54,5.68,3.11,1.05,3.87.83-8.82-8.7-8.82-8.7-8.48-.61-11-5.89,3.06,3.94,9.18,4.59c0,0,.84,0-.11-.86s-5.62-6.64-10.54-10.16,1.93.21,3.19,1.14-2.14-7-2.39-7.44,1.09-2.4,1.73,0S43.25,151.9,44,152.7s4.64,5.25,5.48,6S48,154.86,48,154.86s-1.51-2.46-2.14-9c0,0,.35-5.9-1.51-6.81s-7.77-4.24-7.14-9.95c0,0,.77-1.57,1.65,0s.42,6.78,4.61,7.74c0,0-2-4-1.46-6.33s2.12-.43,1.92,0,2.45,9.07,3.1,9.26,2-3.56,1.39-11.41c0,0,1.22-1.06,1.9,0s-1.41,12.34-1.72,13,5.45-4.69,4.53-8.13c0,0,1.32-1.68,1.42.05s-2,8.87-6.48,12.62c0,0,.19,10.81,6.85,17.79,0,0,.24-4.82-.65-7.28S52,152.52,52,146.77c0,0,1.06-1.79,1.71.06s-.24,6.11,2.77,11.85c0,0,.89,6.47.81,7.52s7.15,6,7.15,6-2-3.09-2.11-5.06-.33-9.38-.33-9.38a57,57,0,0,0-5-9.44c-2.68-3.76,1.22-.06,1.22-.06s4.15,4.93,4.07,6.29,0-4.13-1-9.25c0,0-3-2-3-7.53s-1-12.34-1.78-13.51a49,49,0,0,0-3.94-4.13s-1.43-2.23.68-.87,1.95,3.15,2.85,3.15,1-7.47.65-8,1.22-1.42,1.38,0-.49,12.22,1.3,15.36-1.14,9.63,2.12,13a43.85,43.85,0,0,0,2-18s.89-2.34,1.7-.06-.16,8.45-.16,8.45a9.53,9.53,0,0,0,4.57-8c.15-5.67,1.45,1.36,1.53,1.55a13.94,13.94,0,0,1-5.77,8.94s-3,9.38-2.28,12.83,1,5.8.73,11.67,1,10.3,1.87,11.22-.4-4.75,0-6.35,4.39-6.42,3.25-7.9-5.69-8.27-2.27-14.25S68,145.1,68,145.1s-2,1.79,1,9.44c0,0,.65-.43.57-8.57a6.3,6.3,0,0,1,1.63-4s-1.95-3.89-1.63-6.24,2.13-.37,1.63.07.65,4,.65,4,2.87-8.61,5.64-10.06-2.37-11.88-.92-14.38,1.92-.7,1.75.75a27.38,27.38,0,0,0,0,4.1s2.89-5.15,3.15-5.8,2.11-.55,1.38.5-3.35,5.5-3.42,6.34-.2,6.35-.2,6.35-.26,1.15.79-.05,4.08-4,5.13-8.44c0,0,2-1.4,1.32.55s-2.24,6.74-4.67,8.29-5.92,6.34-6,6.79,1.25.2,3-.4a59.39,59.39,0,0,0,5.92-2.85s-.12-3.69,1.91-5.69,2.3.15,1.84.4-2.83,4.14-1.77,3.59S92,124.34,92,124.34s2.69-1.35,1.25.55c0,0-5.53,7.39-9.87,8.84,0,0-2,.6.13.5s4.67.3,5.72-.15A7.85,7.85,0,0,0,91.05,133s2-.85.92.4a5.23,5.23,0,0,1-3.09,2c-.92.1-6.32-.65-7.44-.5s-4.54,1.49-5.65,1.64-3,5.25-3,5.25-1.78,4.2-1.52,5.54,2.77-2.3,2.77-2.3,1.38-.5,1.25.65-3.49,4-4,4.25-.66,11.13-2.43,12.83" transform="translate(-12.32 -30.1)"/><path id="koraal_groen2-3" data-name="koraal groen2" class="cls-2" d="M361.68,171.84a13.78,13.78,0,0,1-3.45,7.47l.74.12s.31-.06,2.16-2.79a38.8,38.8,0,0,0,5.09-1.2s3.75,1,6.27-.45,3-1.57,3.56-1.63,1.05-.46.12-.44-3.7,1.76-5.47,2a5.22,5.22,0,0,1-2.89,0c-.53-.19,7.52-3.26,7.52-3.26s6.17.63,8.7-1.66-2.73,1.58-7.21,1.22c0,0-.61-.1.19-.4a64.3,64.3,0,0,1,8.95-3.79c4-1.18-1.42-.11-2.46.2s2.48-3.16,2.72-3.36-.46-1.29-1.24-.19a28.49,28.49,0,0,1-4.48,4.59c-.66.3-4,2-4.75,2.33s1.58-1.72,1.58-1.72a10.24,10.24,0,0,0,2.75-4.15s.54-2.91,2-3.14,6.16-1.21,6.47-4.06c0,0-.34-.86-1.18-.19s-1.22,3.26-4.36,3.26c0,0,2-1.74,1.9-2.92s-1.46-.44-1.38-.19-3,4.15-3.48,4.17-1-2,.54-5.71c0,0-.74-.65-1.37-.21s-.64,6.16-.51,6.52-3.29-2.88-2.17-4.46c0,0-.72-1-1-.13s.21,4.54,3,6.86a14.09,14.09,0,0,1-7.32,7.91,9.43,9.43,0,0,1,1.45-3.48c1-1.1,2.17-1.66,2.94-4.46,0,0-.52-1-1.24-.16s-.64,3-3.58,5.46a36.75,36.75,0,0,0-1.59,3.58c-.09.52-5.95,2.13-5.95,2.13s1.88-1.28,2.2-2.23,1.49-4.54,1.49-4.54a32.8,32.8,0,0,1,4.9-4c2.43-1.53-.87-.16-.87-.16s-3.65,1.95-3.77,2.62a38.42,38.42,0,0,1,1.95-4.4,4.81,4.81,0,0,0,3.17-3.34c.75-2.7,2.36-5.9,3.1-6.38s3.39-1.58,3.39-1.58,1.33-.92-.38-.5-1.82,1.32-2.47,1.22.31-3.74.61-3.94-.69-.83-1-.16-1.29,6-3,7.34-.47,4.81-3.26,6.08a15,15,0,0,1,1-9s-.32-1.24-1.22-.22-1,4.14-1,4.14-2.86-1.63-2.2-4.41-1.22.5-1.31.58-.14,2.7,3,5c0,0,.9,4.9-.09,6.5a14.87,14.87,0,0,0-2.1,5.6c-.61,2.88-2.08,4.91-2.85,5.26s.93-2.27.86-3.09-2.3-3.61-1.28-4.21,5.2-3.39,3.55-6.68-1.24,1-1.24,1,1.22,1.1-2,4.49c0,0-.41-.28.74-4.24,0,0,.35-.82-.63-2.13,0,0,1.93-1.68,2-2.85s-1.48-.42-1.18-.15-1,1.85-1,1.85-.91-4.51-2.71-5.52,3.3-5.52,2.6-6.9-1.29-.55-1.36.17a9.77,9.77,0,0,1-.58,2s-1.38-2.82-1.48-3.16-1.44-.5-1.06.09a14.83,14.83,0,0,1,1.61,3.46c-.07.42-.71,3.11-.71,3.11s0,.59-.57-.11-2.39-2.39-2.55-4.67c0,0-1.23-.9-1,.12s.7,3.53,2.24,4.55a14,14,0,0,1,3.44,4c0,.24-.92,0-2.12-.52s-3.87-2-3.87-2a3.15,3.15,0,0,0-.61-3c-1.2-1.2-1.68-.18-1.38,0s1.48,2.33.8,1.94a28.39,28.39,0,0,1-3.11-3.21s-1.76-.95-1,.13c0,0,3,4.21,5.9,5.39,0,0,1.34.51-.16.23a30.28,30.28,0,0,1-4.09-.7,6,6,0,0,1-1.14-.71s-1.3-.63-.72.09a3.71,3.71,0,0,0,1.95,1.34c.65.15,4.63.38,5.41.58s3.07,1.23,3.85,1.42,1.42,2.88,1.42,2.88.72,2.24.35,2.87-1.68-1.43-1.68-1.43-.93-.39-1,.18,2,2.33,2.32,2.51-1,5.5,0,6.52" transform="translate(-12.32 -30.1)"/><path id="koraal_groen1-3" data-name="koraal groen1" class="cls-2" d="M339.05,163.42a12.72,12.72,0,0,0-.79,7.89l-.73-.12s-.26-.14-.51-3.19a29.91,29.91,0,0,1-4-2.6s-4-.14-5.51-2.26-1.93-2.32-2.42-2.53-.72-.74.13-.45,2.47,2.71,3.94,3.49a5,5,0,0,0,2.67.83c.58,0-5.18-5.21-5.18-5.21s-6-1.23-7.12-4.09,1.67,2.26,6,3.25c0,0,.61.08,0-.43a48.1,48.1,0,0,0-6.21-6.11c-3.07-2.26,1.36.32,2.14.91s-.6-3.64-.72-3.89,1.11-1,1.24.19a21.06,21.06,0,0,0,1.69,5.53c.45.47,2.63,3.07,3.13,3.54s-.54-2-.54-2-.76-1.36-.33-4.61c0,0,1-2.83-.17-3.48s-5-2.92-3.8-5.63c0,0,.77-.69,1.19.18s-.61,3.35,2.27,4.27c0,0-.87-2.18-.2-3.24s1.58,0,1.38.23.55,4.69,1,4.85,1.94-1.5,2.53-5.4c0,0,1-.38,1.36.21s-2.67,5.85-3,6.14,4.55-1.69,4.35-3.46c0,0,1.17-.67,1,.18s-2.61,4.1-6.36,5.43a10.88,10.88,0,0,0,2.53,9.42,8.63,8.63,0,0,0,.51-3.62c-.31-1.3-1.11-2.17-.33-5,0,0,1-.75,1.22.22s-1,2.95.39,6.07a33.32,33.32,0,0,1-.43,3.76c-.2.5,4.34,3.7,4.34,3.7s-1-1.73-.84-2.7,1-4.6,1-4.6a23.36,23.36,0,0,0-2.35-5.15c-1.43-2.13.88.1.88.1s2.32,2.86,2.08,3.52a35.16,35.16,0,0,0,.54-4.62,3.58,3.58,0,0,1-1.15-4c.75-2.71,1-6.12.53-6.78a27.11,27.11,0,0,0-2.27-2.45s-.73-1.24.61-.34,1,1.74,1.62,1.84,1.7-3.52,1.54-3.8,1.06-.56,1,.15-2,5.9-1.13,7.63-2.11,4.56-.22,6.54a17.17,17.17,0,0,0,3.88-8.55s1-1,1.24.16-1.26,4.09-1.26,4.09,3.5-.65,4.36-3.4.86.82.9.92-1.31,2.52-5.36,3.72c0,0-3.42,4.24-3.36,6a13.84,13.84,0,0,1-1,5.76c-1,2.83-.69,5.12-.17,5.67s.35-2.36.86-3.09,4-2.64,3.4-3.49-3-4.65.28-7.19.63,1.25.63,1.25-1.71.65-.57,4.71c0,0,.52-.14,1.56-4.11,0,0,.12-.86,1.71-1.78,0,0-.88-2.11-.33-3.21s1.57,0,1.16.21-.07,2-.07,2,3.23-3.87,5.41-4.27-.1-6.05,1.27-7.11,1.48-.13,1.16.56a10,10,0,0,0-.53,2s2.77-2.19,3.05-2.48,1.58,0,.92.4a20.21,20.21,0,0,0-3.31,2.71c-.16.41-1,3.07-1,3.07s-.35.53.57.06,3.47-1.5,4.82-3.54c0,0,1.61-.47.88.41s-2.52,3-4.48,3.52a20,20,0,0,0-5.26,2.64c-.16.2.87.24,2.23.14s4.64-.74,4.64-.74a3.93,3.93,0,0,1,2.14-2.56c1.73-.75,1.63.33,1.27.4s-2.6,1.71-1.77,1.56a41.61,41.61,0,0,0,4.56-2s2.12-.36.83.4c0,0-5,3-8.29,3.22,0,0-1.5.07,0,.26a29.48,29.48,0,0,0,4.14.55,7.51,7.51,0,0,0,1.41-.31s1.54-.2.61.29a4.77,4.77,0,0,1-2.5.66c-.67-.05-4.45-1-5.27-1.06s-3.47.23-4.29.18-2.84,2.23-2.84,2.23-1.84,1.85-1.83,2.53,2.3-.82,2.3-.82,1.06-.09.81.46-3.05,1.56-3.46,1.62-2,5.35-3.48,6" transform="translate(-12.32 -30.1)"/><path class="cls-9" d="M182.15,176.43a10.13,10.13,0,0,1,3.52,1,1.8,1.8,0,0,0,.88.47c.71.07,1.73-.62,1-2.3A9.73,9.73,0,0,1,182.15,176.43Z" transform="translate(-12.32 -30.1)"/><path class="cls-9" d="M188.88,168.6a3,3,0,0,0-1.27.33c-1,.36-2.46.4-5.21.5a2.17,2.17,0,0,0-2,1.21,10.23,10.23,0,0,1,2.39-.26c3.31,0,3.8.73,4.93,1.33C190.18,170.07,190,168.65,188.88,168.6Z" transform="translate(-12.32 -30.1)"/><path class="cls-9" d="M189.05,174.15c1-.62,1.66.22,2.61,1.07a.41.41,0,0,0,.53,0,3,3,0,0,0,0-3.92h0a.44.44,0,0,0-.57,0,6.11,6.11,0,0,1-.7.64,1.84,1.84,0,0,1-1.87.71A3.54,3.54,0,0,1,189.05,174.15Z" transform="translate(-12.32 -30.1)"/><path class="cls-10" d="M176,174.13a3.16,3.16,0,0,0,.91.62,11.7,11.7,0,0,0,3.87,1.28c5.39.9,7.54-1.21,7.72-1.45a3.08,3.08,0,0,0,.14-2.09c-2.29-.9-2.08-1.87-5.92-1.87a10.16,10.16,0,0,0-2.57.33h0a7.91,7.91,0,0,0-2.54,1.14h0a6.33,6.33,0,0,0-1.16,1,.73.73,0,0,0-.17.19c-.11.14-.46.59-.21.59l.31,0s0,.05,0,.05C176.17,174,175.92,174,176,174.13Zm1.76-1.57c.31,0,.59.17.59.41s-.24.4-.59.4-.6-.17-.6-.4S177.47,172.56,177.79,172.56Zm2.74,2v-.05a4.78,4.78,0,0,1,2.54.57,3.29,3.29,0,0,0-2.36-.81,4.59,4.59,0,0,1,2.36.17,3.87,3.87,0,0,0-2.75-.36,5,5,0,0,1,2.54-.31,4.34,4.34,0,0,0-2.86.14,3.6,3.6,0,0,1,3.1-.42c1.27.54.74,1.78-.28,1.92S182,174.86,180.53,174.56Z" transform="translate(-12.32 -30.1)"/><path class="cls-11" d="M177.82,172.73c-.18,0-.35.09-.35.24s.14.23.35.23.35-.09.35-.23S178,172.73,177.82,172.73Zm0,.21s.07-.07.11-.07.1,0,.1.07,0,.07-.1.07S177.82,173,177.82,172.94Z" transform="translate(-12.32 -30.1)"/><path class="cls-9" d="M190.7,157.23c2.34.47,3.63.78,4.32,1.31a2.06,2.06,0,0,0,1.08.63c.87.09,2.12-.81,1.26-3A11.14,11.14,0,0,1,190.7,157.23Z" transform="translate(-12.32 -30.1)"/><path class="cls-9" d="M199,146.89a3.68,3.68,0,0,0-1.56.44c-1.17.47-3,.53-6.4.66a2.64,2.64,0,0,0-2.5,1.6,12,12,0,0,1,2.94-.35c4.06,0,4.66,1,6.05,1.75C200.56,148.83,200.34,147,199,146.89Z" transform="translate(-12.32 -30.1)"/><path class="cls-9" d="M199.17,154.22c1.26-.81,2,.28,3.2,1.41a.47.47,0,0,0,.65,0,4.13,4.13,0,0,0,0-5.17h0a.49.49,0,0,0-.69,0,10,10,0,0,1-.87.85c-.64.65-1.25,1.22-2.29.94A5.18,5.18,0,0,1,199.17,154.22Z" transform="translate(-12.32 -30.1)"/><path class="cls-10" d="M183.18,154.19a4.3,4.3,0,0,0,1.13.81,13.47,13.47,0,0,0,4.75,1.7c6.61,1.19,9.25-1.6,9.46-1.92a4.19,4.19,0,0,0,.18-2.75c-2.81-1.19-2.55-2.48-7.26-2.48a11.75,11.75,0,0,0-3.16.44h0a9.49,9.49,0,0,0-3.11,1.51h0a8.29,8.29,0,0,0-1.43,1.34,1.46,1.46,0,0,0-.21.25c-.13.19-.56.79-.26.79l.39,0a0,0,0,1,1,0,.06C183.36,154,183.05,154,183.18,154.19Zm2.16-2.07c.39,0,.74.22.74.53s-.3.54-.74.54-.73-.22-.73-.54S185,152.12,185.34,152.12Zm3.37,2.63v-.06a5.59,5.59,0,0,1,3.12.75,3.91,3.91,0,0,0-2.9-1.06,5.28,5.28,0,0,1,2.9.22,4.47,4.47,0,0,0-3.38-.47,5.57,5.57,0,0,1,3.12-.41,4.91,4.91,0,0,0-3.5.19,4.18,4.18,0,0,1,3.8-.57,1.3,1.3,0,0,1-.35,2.54C190.4,156,190.49,155.16,188.71,154.75Z" transform="translate(-12.32 -30.1)"/><path class="cls-11" d="M185.39,152.34c-.22,0-.44.13-.44.31s.18.32.44.32.43-.13.43-.32S185.6,152.34,185.39,152.34Zm0,.28s.08-.09.13-.09.13,0,.13.09-.05.1-.13.1A.12.12,0,0,1,185.39,152.62Z" transform="translate(-12.32 -30.1)"/><path class="cls-9" d="M201.1,167.77c-.54,1.26.23,1.77.76,1.72a1.28,1.28,0,0,0,.67-.35,7.58,7.58,0,0,1,2.65-.75A7.25,7.25,0,0,1,201.1,167.77Z" transform="translate(-12.32 -30.1)"/><path class="cls-9" d="M201,164.86a5.48,5.48,0,0,1,3.71-1,8.22,8.22,0,0,1,1.8.19,1.62,1.62,0,0,0-1.54-.9,15.38,15.38,0,0,1-3.92-.37,2.29,2.29,0,0,0-1-.25C199.27,162.57,199.13,163.64,201,164.86Z" transform="translate(-12.32 -30.1)"/><path class="cls-9" d="M200,165.55a1.39,1.39,0,0,1-1.4-.53,4.1,4.1,0,0,1-.53-.48.35.35,0,0,0-.43,0h0a2.21,2.21,0,0,0,0,2.93.3.3,0,0,0,.4,0c.72-.64,1.19-1.26,2-.8A2.74,2.74,0,0,1,200,165.55Z" transform="translate(-12.32 -30.1)"/><path class="cls-10" d="M209.5,166.55s0,0,0,0l.24,0c.19,0-.08-.33-.16-.44a.83.83,0,0,0-.13-.14,5.06,5.06,0,0,0-.88-.77h0a6.2,6.2,0,0,0-1.91-.85h0a7.73,7.73,0,0,0-1.93-.25c-2.89,0-2.73.73-4.46,1.41a2.24,2.24,0,0,0,.11,1.56c.13.17,1.75,1.75,5.81,1.08a8.61,8.61,0,0,0,2.91-1,2.37,2.37,0,0,0,.69-.46C209.87,166.58,209.69,166.58,209.5,166.55Zm-.58-.75c0,.18-.21.3-.45.3s-.45-.14-.45-.3.21-.3.45-.3S208.92,165.62,208.92,165.8Zm-4.24,1.83c-.77-.11-1.17-1-.22-1.44a2.76,2.76,0,0,1,2.34.32,3.25,3.25,0,0,0-2.15-.11,3.76,3.76,0,0,1,1.91.23,3,3,0,0,0-2.07.27,3.55,3.55,0,0,1,1.78-.12,2.48,2.48,0,0,0-1.78.6,3.62,3.62,0,0,1,1.91-.43v0C205.31,167.22,205.36,167.72,204.68,167.63Z" transform="translate(-12.32 -30.1)"/><path class="cls-11" d="M208.18,165.8c0,.11.13.18.26.18s.27-.09.27-.18-.14-.18-.27-.18S208.18,165.69,208.18,165.8Zm.18,0c-.05,0-.08,0-.08-.06s.05-.05.08-.05a.12.12,0,0,1,.08.05A.08.08,0,0,1,208.36,165.84Z" transform="translate(-12.32 -30.1)"/><path class="cls-9" d="M514,108.24c-.53,1.26.24,1.78.77,1.72a1.29,1.29,0,0,0,.66-.35,7.81,7.81,0,0,1,2.65-.75A7.27,7.27,0,0,1,514,108.24Z" transform="translate(-12.32 -30.1)"/><path class="cls-9" d="M513.9,105.33a5.5,5.5,0,0,1,3.71-1,7.63,7.63,0,0,1,1.8.2,1.63,1.63,0,0,0-1.53-.91,15,15,0,0,1-3.93-.37,2.28,2.28,0,0,0-1-.25C512.15,103.05,512,104.11,513.9,105.33Z" transform="translate(-12.32 -30.1)"/><path class="cls-9" d="M512.86,106a1.39,1.39,0,0,1-1.4-.54,6.11,6.11,0,0,1-.53-.47.32.32,0,0,0-.43,0h0a2.19,2.19,0,0,0,0,2.92.3.3,0,0,0,.4,0c.72-.64,1.19-1.26,2-.8A2.69,2.69,0,0,1,512.86,106Z" transform="translate(-12.32 -30.1)"/><path class="cls-10" d="M522.38,107s0,0,0,0h.24c.19,0-.08-.34-.16-.45s-.08-.09-.13-.14a5.33,5.33,0,0,0-.87-.76h0a6,6,0,0,0-1.91-.85h0a7.43,7.43,0,0,0-1.94-.25c-2.89,0-2.73.73-4.46,1.4a2.29,2.29,0,0,0,.11,1.56c.13.18,1.75,1.76,5.81,1.08a9,9,0,0,0,2.92-1,2.36,2.36,0,0,0,.68-.47C522.75,107.06,522.57,107.06,522.38,107Zm-.58-.75c0,.18-.21.31-.45.31s-.45-.15-.45-.31.21-.3.45-.3S521.8,106.1,521.8,106.27Zm-4.24,1.83c-.77-.1-1.17-1-.22-1.44a2.76,2.76,0,0,1,2.34.32,3.3,3.3,0,0,0-2.15-.1,3.64,3.64,0,0,1,1.91.23,3,3,0,0,0-2.07.26,3.55,3.55,0,0,1,1.78-.12,2.55,2.55,0,0,0-1.78.6,3.62,3.62,0,0,1,1.91-.42v0C518.19,107.69,518.25,108.19,517.56,108.1Z" transform="translate(-12.32 -30.1)"/><path class="cls-11" d="M521.06,106.27c0,.11.13.18.26.18s.27-.09.27-.18-.13-.17-.27-.17S521.06,106.17,521.06,106.27Zm.18,0s-.08,0-.08,0,.06-.06.08-.06.08,0,.08.06S521.3,106.31,521.24,106.31Z" transform="translate(-12.32 -30.1)"/><path class="cls-9" d="M522.67,122.73c-.83,2.41.38,3.4,1.21,3.29a2,2,0,0,0,1-.67c.67-.58,1.92-.92,4.18-1.43A9.73,9.73,0,0,1,522.67,122.73Z" transform="translate(-12.32 -30.1)"/><path class="cls-9" d="M522.55,117.17c1.33-.84,1.92-1.9,5.85-1.9a10.38,10.38,0,0,1,2.84.38,2.6,2.6,0,0,0-2.43-1.73c-3.26-.14-5-.21-6.18-.71a3.26,3.26,0,0,0-1.5-.48C519.79,112.8,519.58,114.83,522.55,117.17Z" transform="translate(-12.32 -30.1)"/><path class="cls-9" d="M520.92,118.5c-1,.3-1.59-.31-2.22-1a10.29,10.29,0,0,1-.83-.92.45.45,0,0,0-.67,0h0a4.88,4.88,0,0,0,0,5.6.42.42,0,0,0,.62,0c1.13-1.22,1.89-2.41,3.1-1.52A6.09,6.09,0,0,1,520.92,118.5Z" transform="translate(-12.32 -30.1)"/><path class="cls-10" d="M535.92,120.39a0,0,0,1,1,0-.06,2.19,2.19,0,0,1,.37,0c.3,0-.12-.64-.25-.84a1,1,0,0,0-.21-.28,7.87,7.87,0,0,0-1.38-1.45h0a8.68,8.68,0,0,0-3-1.63h0a10.21,10.21,0,0,0-3.05-.48c-4.56,0-4.31,1.39-7,2.68a5.09,5.09,0,0,0,.16,3c.21.34,2.76,3.35,9.15,2.06a12.15,12.15,0,0,0,4.6-1.83,4.15,4.15,0,0,0,1.09-.88C536.5,120.46,536.21,120.46,535.92,120.39ZM535,119a.66.66,0,0,1-.71.58.59.59,0,1,1,0-1.16A.66.66,0,0,1,535,119Zm-6.69,3.49a1.43,1.43,0,0,1-.33-2.74c.79-.41,2-.44,3.68.61a4.31,4.31,0,0,0-3.39-.21,5,5,0,0,1,3,.44,4,4,0,0,0-3.26.51,4.69,4.69,0,0,1,2.8-.23A3.57,3.57,0,0,0,528,122a4.91,4.91,0,0,1,3-.82v.07C529.32,121.68,529.4,122.63,528.31,122.46Z" transform="translate(-12.32 -30.1)"/><path class="cls-11" d="M533.83,119a.39.39,0,0,0,.42.34.38.38,0,0,0,.41-.34.42.42,0,0,0-.83,0Zm.29.07c-.08,0-.12,0-.12-.1s.08-.11.12-.11.13.07.13.11A.13.13,0,0,1,534.12,119Z" transform="translate(-12.32 -30.1)"/><path class="cls-9" d="M548.78,124.69a7.66,7.66,0,0,1,2.65.75,1.25,1.25,0,0,0,.66.35c.53,0,1.3-.46.77-1.72A7.28,7.28,0,0,1,548.78,124.69Z" transform="translate(-12.32 -30.1)"/><path class="cls-9" d="M553.84,118.84a2.21,2.21,0,0,0-1,.25,15.47,15.47,0,0,1-3.93.37,1.64,1.64,0,0,0-1.54.9,8.24,8.24,0,0,1,1.81-.19,5.5,5.5,0,0,1,3.71,1C554.82,119.94,554.69,118.87,553.84,118.84Z" transform="translate(-12.32 -30.1)"/><path class="cls-9" d="M554,123c.77-.46,1.25.16,2,.8a.29.29,0,0,0,.39,0,2.2,2.2,0,0,0,0-2.93h0a.33.33,0,0,0-.42,0,4.88,4.88,0,0,1-.53.48,1.41,1.41,0,0,1-1.41.53A2.74,2.74,0,0,1,554,123Z" transform="translate(-12.32 -30.1)"/><path class="cls-10" d="M544.16,123a2.56,2.56,0,0,0,.69.46,8.76,8.76,0,0,0,2.92,1c4.06.67,5.67-.91,5.81-1.08a2.24,2.24,0,0,0,.1-1.56c-1.72-.68-1.56-1.4-4.45-1.4a7.85,7.85,0,0,0-1.94.24h0a6.43,6.43,0,0,0-1.91.85h0a5,5,0,0,0-.87.77.62.62,0,0,0-.14.14c-.08.11-.34.44-.15.44l.23,0a0,0,0,1,1,0,0C544.27,122.88,544.08,122.88,544.16,123Zm1.33-1.17c.24,0,.45.12.45.3s-.19.3-.45.3-.45-.12-.45-.3S545.25,121.8,545.49,121.8Zm2.07,1.49v0a3.62,3.62,0,0,1,1.91.43,2.5,2.5,0,0,0-1.78-.6,3.56,3.56,0,0,1,1.78.12,3,3,0,0,0-2.07-.27,3.75,3.75,0,0,1,1.91-.23,3.25,3.25,0,0,0-2.15.11,2.74,2.74,0,0,1,2.33-.32c1,.41.56,1.33-.21,1.44S548.64,123.52,547.56,123.29Z" transform="translate(-12.32 -30.1)"/><path class="cls-11" d="M545.51,121.92c-.13,0-.26.07-.26.18s.11.18.26.18.27-.07.27-.18S545.65,121.92,545.51,121.92Zm0,.16a.16.16,0,0,1,.08,0s.08,0,.08,0,0,.06-.08.06A.08.08,0,0,1,545.51,122.08Z" transform="translate(-12.32 -30.1)"/><path class="cls-9" d="M540,110.94c2.26.51,3.51.85,4.18,1.42a1.89,1.89,0,0,0,1,.68c.84.1,2-.88,1.21-3.29A9.75,9.75,0,0,1,540,110.94Z" transform="translate(-12.32 -30.1)"/><path class="cls-9" d="M548,99.75a3.26,3.26,0,0,0-1.5.48c-1.13.5-2.93.57-6.19.71a2.58,2.58,0,0,0-2.42,1.73,10.27,10.27,0,0,1,2.84-.38c3.93,0,4.51,1,5.85,1.9C549.56,101.85,549.35,99.82,548,99.75Z" transform="translate(-12.32 -30.1)"/><path class="cls-9" d="M548.22,107.69c1.21-.89,2,.3,3.09,1.52a.43.43,0,0,0,.63,0,4.91,4.91,0,0,0,0-5.6h0a.45.45,0,0,0-.67,0,9.06,9.06,0,0,1-.84.92c-.62.71-1.21,1.32-2.21,1A6.59,6.59,0,0,1,548.22,107.69Z" transform="translate(-12.32 -30.1)"/><path class="cls-10" d="M532.76,107.65a4,4,0,0,0,1.09.88,12.09,12.09,0,0,0,4.59,1.83c6.39,1.29,8.94-1.73,9.15-2.06a5.17,5.17,0,0,0,.17-3c-2.72-1.29-2.47-2.68-7-2.68a10.21,10.21,0,0,0-3,.48h0a8.57,8.57,0,0,0-3,1.63h0a8.6,8.6,0,0,0-1.38,1.45,1.24,1.24,0,0,0-.21.27c-.12.21-.54.85-.25.85a2.26,2.26,0,0,1,.38,0,0,0,0,0,1,0,.06C532.93,107.48,532.63,107.48,532.76,107.65Zm2.09-2.24a.59.59,0,1,1-.71.58A.66.66,0,0,1,534.85,105.41Zm3.26,2.85v-.07a4.94,4.94,0,0,1,3,.82,3.6,3.6,0,0,0-2.8-1.16,4.77,4.77,0,0,1,2.8.24,4,4,0,0,0-3.26-.51,5,5,0,0,1,3-.44,4.28,4.28,0,0,0-3.38.21c1.63-1.06,2.88-1,3.68-.61a1.44,1.44,0,0,1-.34,2.74C539.74,109.65,539.82,108.7,538.11,108.26Z" transform="translate(-12.32 -30.1)"/><path class="cls-11" d="M534.89,105.65a.39.39,0,0,0-.42.34.39.39,0,0,0,.42.34.35.35,0,1,0,0-.68Zm0,.31s.08-.11.13-.11.12,0,.12.11,0,.1-.12.1A.12.12,0,0,1,534.89,106Z" transform="translate(-12.32 -30.1)"/></g></svg>